<?xml version="1.0" standalone="no"?>
<!DOCTYPE svg PUBLIC "-//W3C//DTD SVG 1.1//EN" "http://www.w3.org/Graphics/SVG/1.1/DTD/svg11.dtd" >
<svg>
<metadata>
Created by FontForge 20090914 at Fri Apr 23 23:03:51 2021
 By www-data
Copyright 2020 The LibreFranklin Project Authors (https://github.com/impallari/Libre-Franklin)
</metadata>
<defs>
<font id="LibreFranklin-Regular" horiz-adv-x="599" >
  <font-face 
    font-family="Libre Franklin"
    font-weight="400"
    font-stretch="normal"
    units-per-em="1000"
    panose-1="0 0 0 0 0 0 0 0 0 0"
    ascent="800"
    descent="-200"
    x-height="529.999"
    cap-height="742"
    bbox="-465.843 -239.003 1284 1151"
    underline-thickness="50"
    underline-position="-50"
    unicode-range="U+000D-U+FB02"
  />
<missing-glyph horiz-adv-x="702" 
d="M605 -136c0 -19.333 -10.999 -29 -32.999 -29h-448c-10.667 0 -17.834 2 -21.501 6s-5.5 10.333 -5.5 19v964c0 15.333 6.33301 23 19 23h471c12 0 18 -7 18 -21v-962v0zM553.001 779c0 12 -5 18.001 -15 18.001h-373c-10.667 0 -16 -6.33301 -16 -19v-872
c0 -6.66699 1.66699 -11.834 5 -15.501s9.33301 -5.5 18 -5.5h353c18.667 0 28 8 28 24v870zM118.001 806.001l52 27l415 -965l-60 -5z" />
    <glyph glyph-name="fi" unicode="fi" horiz-adv-x="617" 
d="M345 530c3.33301 0 5.83301 -1 7.5 -3s2.5 -4.33301 2.5 -7v-43c0 -6.66699 -3.33301 -10 -10 -10h-114c-5.33301 0 -8 -2.66699 -8 -8v-445c0 -9.33301 -4 -14 -12 -14h-61c-7.33301 -0 -11 4.33301 -11 13v447c0 4.66699 -2.33301 7 -7 7h-98
c-6.66699 0 -10 3.33301 -10 10v43c0 2.66699 0.833008 5 2.5 7s4.5 3 8.5 3h95c6 0 9 3.33301 9 10v73c0 42 10.333 74 31 96s52 33 94 33h83c8.66699 0 13 -4 13 -12v-39c0 -3.33301 -0.833008 -5.83301 -2.5 -7.5s-4.5 -2.5 -8.5 -2.5h-70
c-20.667 0 -35.5 -6.5 -44.5 -19.5s-13.5 -30.5 -13.5 -52.5v-70c0 -6 3 -9 9 -9h115v0zM540 17c0 -6.66699 -1.16797 -11.167 -3.50098 -13.5s-7.16602 -3.5 -14.499 -3.5h-51c-6 0 -10 1 -12 3s-3 5.66699 -3 11v502c0 9.33301 4 14 12 14h61
c7.33301 0 11 -4.33301 11 -13v-500zM543.999 644c0 -12.667 -6 -19 -18 -19h-58c-6 0 -10 1.5 -12 4.5s-3 7.16699 -3 12.5v84c0 10.667 4.66699 16 14 16h63c9.33301 0 14 -5 14 -15v-83z" />
    <glyph glyph-name="fl" unicode="fl" horiz-adv-x="618" 
d="M345 530c3.33301 0 5.83301 -1 7.5 -3s2.5 -4.33301 2.5 -7v-43c0 -6.66699 -3.33301 -10 -10 -10h-114c-5.33301 0 -8 -2.66699 -8 -8v-445c0 -9.33301 -4 -14 -12 -14h-61c-7.33301 -0 -11 4.33301 -11 13v447c0 4.66699 -2.33301 7 -7 7h-98
c-6.66699 0 -10 3.33301 -10 10v43c0 2.66699 0.833008 5 2.5 7s4.5 3 8.5 3h95c6 0 9 3.33301 9 10v73c0 42 10.333 74 31 96s52 33 94 33h83c8.66699 0 13 -4 13 -12v-39c0 -3.33301 -0.833008 -5.83301 -2.5 -7.5s-4.5 -2.5 -8.5 -2.5h-70
c-20.667 0 -35.5 -6.5 -44.5 -19.5s-13.5 -30.5 -13.5 -52.5v-70c0 -6 3 -9 9 -9h115v0zM541 17c0 -6.66699 -1.33203 -11.167 -3.99902 -13.5s-7.33398 -3.5 -14.001 -3.5h-52c-10 0 -15 4.66699 -15 14l1 714c0 9.33301 4 14 12 14h60c8 0 12 -4.33301 12 -13v-712z" />
    <glyph glyph-name=".notdef" horiz-adv-x="702" 
d="M605 -136c0 -19.333 -10.999 -29 -32.999 -29h-448c-10.667 0 -17.834 2 -21.501 6s-5.5 10.333 -5.5 19v964c0 15.333 6.33301 23 19 23h471c12 0 18 -7 18 -21v-962v0zM553.001 779c0 12 -5 18.001 -15 18.001h-373c-10.667 0 -16 -6.33301 -16 -19v-872
c0 -6.66699 1.66699 -11.834 5 -15.501s9.33301 -5.5 18 -5.5h353c18.667 0 28 8 28 24v870zM118.001 806.001l52 27l415 -965l-60 -5z" />
    <glyph glyph-name="uni0000" horiz-adv-x="0" 
 />
    <glyph glyph-name="uni0000" horiz-adv-x="0" 
 />
    <glyph glyph-name="CR" unicode="&#xd;" horiz-adv-x="214" 
 />
    <glyph glyph-name="space" unicode=" " horiz-adv-x="214" 
 />
    <glyph glyph-name="exclam" unicode="!" horiz-adv-x="244" 
d="M173 16c0 -10.667 -6.33301 -16 -19 -16h-69c-10 0 -15 4.66699 -15 14v85c0 8 3.33301 12 10 12h83c6.66699 0 10 -3.66699 10 -11v-84zM151 194c0 -4.66699 -1.33398 -8.16699 -4.00098 -10.5s-6.66699 -3.5 -12 -3.5h-29c-4.66699 0 -8 1 -10 3s-3 5 -3 9l-21 539
c0 4 0.833008 6.83301 2.5 8.5s3.83398 2.5 6.50098 2.5h82c6.66699 0 9.66699 -3.33301 9 -10z" />
    <glyph glyph-name="quotedbl" unicode="&#x22;" horiz-adv-x="409" 
d="M317 526c-1.33301 -4.66699 -2.99805 -8.16797 -4.99805 -10.501s-6 -3.5 -12 -3.5h-24c-4.66699 0 -7.83398 0.833008 -9.50098 2.5s-3.16699 4.83398 -4.5 9.50098l-24 208c-0.666992 3.33301 0.166016 5.83301 2.49902 7.5s4.5 2.5 6.5 2.5h86
c6.66699 0 9.66699 -3.33301 9 -10zM148.002 525.999c-1.33301 -4.66699 -2.99805 -8.16797 -4.99805 -10.501s-6 -3.5 -12 -3.5h-24c-4.66699 0 -7.83398 0.833008 -9.50098 2.5s-3.16699 4.83398 -4.5 9.50098l-24 208c-0.666992 3.33301 0.166016 5.83301 2.49902 7.5
s4.5 2.5 6.5 2.5h86c6.66699 0 9.66699 -3.33301 9 -10z" />
    <glyph glyph-name="numbersign" unicode="#" horiz-adv-x="603" 
d="M175 14c-0.666992 -5.33301 -1.99902 -9.16406 -3.99902 -11.4971s-5.66699 -3.16602 -11 -2.49902l-28 4c-4.66699 1.33301 -7.83398 2.66602 -9.50098 3.99902s-2.5 3.66602 -2.5 6.99902l109 716c0.666992 3.33301 2 6.16602 4 8.49902s4 3.16602 6 2.49902l34 -5
c8 -0.666992 11.333 -5 10 -13zM384.001 14.002c-1.33301 -5.33301 -3.00195 -9.16406 -5.00195 -11.4971s-5.33301 -3.16602 -10 -2.49902l-28 4c-4.66699 1.33301 -8 2.66602 -10 3.99902s-2.66699 3.66602 -2 6.99902l109 716
c0.666992 3.33301 1.83398 6.16602 3.50098 8.49902s3.83398 3.16602 6.50098 2.49902l34 -5c8 -0.666992 11.333 -5 10 -13zM535.999 256.004c0 -9.33301 -5.33301 -14 -16 -14h-473c-4.66699 0 -8 1 -10 3s-3 5 -3 9v31c0 7.33301 3 11 9 11h483
c6.66699 0 10 -3.33301 10 -10v-30zM568.999 466.004c0 -9.33301 -5.33301 -14 -16 -14h-473c-4.66699 0 -8 1 -10 3s-3 5 -3 9v31c0 7.33301 3 11 9 11h483c6.66699 0 10 -3.33301 10 -10v-30z" />
    <glyph glyph-name="dollar" unicode="$" horiz-adv-x="605" 
d="M567 184c0 -35.333 -8.83887 -67.168 -26.5059 -95.501s-42.167 -51 -73.5 -68s-68 -26.5 -110 -28.5c-4.66699 0 -7.83398 -0.666992 -9.50098 -2s-2.5 -4 -2.5 -8v-56c0 -8.66699 -4.66699 -13 -14 -13h-35c-8.66699 0 -13 3.33301 -13 10v60c0 4 -0.5 6.5 -1.5 7.5
s-3.5 1.5 -7.5 1.5c-55.333 1.33301 -101.166 11.333 -137.499 30s-68.166 45.667 -95.499 81c-8 8.66699 -8.66699 16 -2 22l33 31c3.33301 3.33301 7 5 11 5s7.33301 -1.66699 10 -5c22.667 -28.667 48 -51.167 76 -67.5s63 -25.166 105 -26.499
c6.66699 -0.666992 10 2 10 8v245c0 5.33301 -1.66699 10 -5 14s-8.33301 7.33301 -15 10c-50.667 18.667 -91 37.667 -121 57s-51.5 41.333 -64.5 66s-19.5 53 -19.5 85c0 36 8.83301 68 26.5 96s42.334 51.167 74.001 69.5s68.834 29.833 111.501 34.5
c3.33301 0.666992 6.16602 1.83398 8.49902 3.50098s3.5 4.16699 3.5 7.5v49c0 2.66699 0.833008 4.83398 2.5 6.50098s3.83398 2.5 6.50098 2.5h40c4.66699 0 7.83398 -1 9.50098 -3s2.5 -5.33301 2.5 -10v-48c0 -4.66699 3.33301 -7.33398 10 -8.00098
c38.667 -5.33301 72.834 -15.333 102.501 -30s56.834 -34 81.501 -58c7.33301 -5.33301 7.66602 -11.333 0.999023 -18l-35 -36c-3.33301 -3.33301 -6.16602 -4.83301 -8.49902 -4.5s-5.83301 2.83301 -10.5 7.5c-14 16.667 -32.333 31 -55 43s-48 20.333 -76 25
c-3.33301 0.666992 -5.83301 0.333984 -7.5 -0.999023s-2.5 -3.66602 -2.5 -6.99902v-251c0 -6.66699 4 -11.334 12 -14.001l38 -13c36.667 -14 68 -30.833 94 -50.5s45.667 -42.334 59 -68.001s20 -54.834 20 -87.501v0zM282.994 668.998c0 8 -3.66699 11.001 -11 9.00098
c-40.667 -4.66699 -73 -18.334 -97 -41.001s-36 -50.667 -36 -84c0 -16.667 3.83301 -32.167 11.5 -46.5s20.5 -27.833 38.5 -40.5s42.667 -25.667 74 -39c6 -2 10.833 -2 14.5 0s5.5 6.66699 5.5 14v228zM344.994 67.999c0 -4.66699 3.00098 -6.66699 9.00098 -6
c40.667 1.33301 73 12.833 97 34.5s36 48.834 36 81.501c0 30.667 -10 56.167 -30 76.5s-52.333 39.166 -97 56.499c-4.66699 1.33301 -8.33398 1.5 -11.001 0.5s-4 -4.16699 -4 -9.5v-234v0z" />
    <glyph glyph-name="percent" unicode="%" horiz-adv-x="916" 
d="M229 753c33.333 0 62.833 -8.66699 88.5 -26s46 -41.666 61 -72.999s22.5 -69 22.5 -113s-7.33301 -81.833 -22 -113.5s-35 -56 -61 -73s-55.667 -25.5 -89 -25.5s-63.166 8.5 -89.499 25.5s-47 41.333 -62 73s-22.5 69.5 -22.5 113.5s7.5 81.667 22.5 113
s35.667 55.666 62 72.999s56.166 26 89.499 26v0zM228 378c34.667 0 61.1689 15.001 79.502 45.001s27.5 69 27.5 117c0 49.333 -9.33301 89.166 -28 119.499s-45 45.5 -79 45.5c-22.667 0 -41.834 -7.16699 -57.501 -21.5s-27.834 -33.666 -36.501 -57.999
s-13 -52.833 -13 -85.5c0 -31.333 4.16699 -59.333 12.5 -84s20.5 -43.834 36.5 -57.501s35.333 -20.5 58 -20.5v0zM689.002 414.001c33.333 0 62.833 -8.66699 88.5 -26s46 -41.666 61 -72.999s22.5 -69 22.5 -113s-7.5 -81.833 -22.5 -113.5s-35.333 -56 -61 -73
s-55.167 -25.5 -88.5 -25.5s-63.166 8.5 -89.499 25.5s-47 41.333 -62 73s-22.5 69.5 -22.5 113.5s7.5 81.667 22.5 113s35.667 55.666 62 72.999s56.166 26 89.499 26v0zM688.002 39.001c22 0 41 7 57 21s28.333 33.167 37 57.5s13 52.166 13 83.499
c0 32 -4.33301 60.333 -13 85s-21 44.167 -37 58.5s-35 21.5 -57 21.5c-21.333 0 -40.166 -7.16699 -56.499 -21.5s-28.833 -34 -37.5 -59s-13 -53.167 -13 -84.5s4.33301 -59.166 13 -83.499s21.167 -43.5 37.5 -57.5s35.166 -21 56.499 -21v0zM246.002 5.00098
c-4 -6 -10.332 -9 -18.999 -9h-26c-6.66699 0 -10.334 2 -11.001 6s0.333008 8.33301 3 13l484 728c2 3.33301 4.33301 5.33301 7 6s5.66699 1 9 1h33c3.33301 0 5.83301 -0.833008 7.5 -2.5s1.16699 -4.5 -1.5 -8.5z" />
    <glyph glyph-name="ampersand" unicode="&#x26;" horiz-adv-x="778" 
d="M338 753c35.333 0 67.1709 -5.99707 95.5039 -17.9971s50.833 -29.167 67.5 -51.5s25 -49.166 25 -80.499c0 -24 -6.16699 -47.833 -18.5 -71.5s-31.333 -46.5 -57 -68.5s-59.167 -42 -100.5 -60c-4.66699 -2.66699 -7.33398 -5 -8.00098 -7s1 -5.33301 5 -10l156 -182
c4 -4 6.66699 -5.83301 8 -5.5s4.33301 2.83301 9 7.5c12 11.333 24.5 25 37.5 41s25.5 32.833 37.5 50.5s22.667 34.667 32 51s16 30.166 20 41.499c3.33301 7.33301 9 9.66602 17 6.99902l40 -14c3.33301 -1.33301 6 -3.66602 8 -6.99902s2.33301 -6.66602 1 -9.99902
c-6 -18.667 -16.5 -40.334 -31.5 -65.001s-32.333 -49.834 -52 -75.501s-39.834 -49.834 -60.501 -72.501c-3.33301 -3.33301 -4.83301 -6.16602 -4.5 -8.49902s2.5 -5.16602 6.5 -8.49902c12 -10.667 27.167 -20.667 45.5 -30s38.166 -16.833 59.499 -22.5
s42 -8.83398 62 -9.50098c10 0 15 -4.33301 15 -13v-43c0 -6 -1.33301 -10.5 -4 -13.5s-7.33398 -4.5 -14.001 -4.5c-26 0 -53.333 3.83301 -82 11.5s-56 17.667 -82 30s-48.333 25.5 -67 39.5c-3.33301 2.66699 -6.33301 4 -9 4s-5.66699 -1.66699 -9 -5
c-32 -27.333 -66.5 -48.333 -103.5 -63s-77.167 -22 -120.5 -22c-68.667 0 -122.834 17.5 -162.501 52.5s-59.5 82.167 -59.5 141.5c0 39.333 11.833 75.666 35.5 108.999s62.834 66.333 117.501 99c6.66699 4 10.167 7.5 10.5 10.5s-2.5 7.83301 -8.5 14.5
c-22 23.333 -38.667 47.166 -50 71.499s-17 49.5 -17 75.5c0 35.333 9.16699 66.833 27.5 94.5s43.333 49.5 75 65.5s67.5 24 107.5 24v0zM340.005 693.003c-26 0 -48.165 -5.66699 -66.498 -17s-32.5 -26 -42.5 -44s-15 -37.667 -15 -59c0 -16 3.33301 -31.5 10 -46.5
s17 -30.5 31 -46.5l27 -30c2 -2 4.66699 -3.16699 8 -3.5s6.66602 0.166992 9.99902 1.5c51.333 24.667 88.166 49.167 110.499 73.5s33.5 50.833 33.5 79.5c0 30.667 -10.333 53.667 -31 69s-45.667 23 -75 23v0zM269.007 343.003
c-4.66699 5.33301 -9.00195 8.33105 -13.002 8.99805s-9 -0.666016 -15 -3.99902c-33.333 -16.667 -60 -38.667 -80 -66s-30 -57 -30 -89c0 -25.333 6.5 -47.833 19.5 -67.5s30.5 -35.167 52.5 -46.5s46.667 -17 74 -17c28.667 0 56.834 6 84.501 18s51.5 27 71.5 45
c4.66699 4 7.33398 7.83301 8.00098 11.5s-1 7.83398 -5 12.501l-167 194v0z" />
    <glyph glyph-name="quotesingle" unicode="'" horiz-adv-x="240" 
d="M148 526c-1.33301 -4.66699 -2.99805 -8.16797 -4.99805 -10.501s-6 -3.5 -12 -3.5h-24c-4.66699 0 -7.83398 0.833008 -9.50098 2.5s-3.16699 4.83398 -4.5 9.50098l-24 208c-0.666992 3.33301 0.166016 5.83301 2.49902 7.5s4.5 2.5 6.5 2.5h86
c6.66699 0 9.66699 -3.33301 9 -10z" />
    <glyph glyph-name="parenleft" unicode="(" horiz-adv-x="286" 
d="M259 742c4 0 6.49902 -1.00391 7.49902 -3.00391s0.833008 -4 -0.5 -6c-32.667 -65.333 -60.167 -136.666 -82.5 -213.999s-33.5 -155.666 -33.5 -234.999c0 -75.333 9.33301 -148.5 28 -219.5s45.334 -144.167 80.001 -219.5c1.33301 -2 1.5 -4.16699 0.5 -6.5
s-3.5 -3.5 -7.5 -3.5h-37c-4.66699 0 -8.66699 2.33301 -12 7c-27.333 47.333 -51.166 94 -71.499 140s-35.833 93.833 -46.5 143.5s-16 102.834 -16 159.501c0 83.333 13.167 163.333 39.5 240s60.166 146.334 101.499 209.001c4.66699 5.33301 10 8 16 8h34v0z" />
    <glyph glyph-name="parenright" unicode=")" horiz-adv-x="286" 
d="M26 742l34.001 0.00390625c7.33301 0 13 -2.66699 17 -8c41.333 -62.667 75.166 -132.334 101.499 -209.001s39.5 -156.667 39.5 -240c0 -56.667 -5.5 -109.834 -16.5 -159.501s-26.5 -97.5 -46.5 -143.5s-43.667 -92.667 -71 -140c-3.33301 -4.66699 -7.33301 -7 -12 -7
h-37c-4 0 -6.5 1.16699 -7.5 3.5s-0.833008 4.5 0.5 6.5c35.333 75.333 62 148.5 80 219.5s27 144.167 27 219.5c0 79.333 -10.833 157.666 -32.5 234.999s-49.167 148.666 -82.5 213.999c-1.33301 2 -1.5 4 -0.5 6s3.16699 3 6.5 3z" />
    <glyph glyph-name="asterisk" unicode="*" horiz-adv-x="380" 
d="M197 530c-0.666992 1.33301 -1.50391 2.00391 -2.50391 2.00391s-1.83301 -0.666992 -2.5 -2l-75 -119c-1.33301 -2 -3.33301 -3 -6 -3s-5 0.666992 -7 2l-35 24c-4.66699 3.33301 -5 7.66602 -1 12.999l85 106c0.666992 2 0.833984 3.66699 0.500977 5
s-1.83301 2.33301 -4.5 3l-116 33c-4.66699 1.33301 -6 5.33301 -4 12l13 37c2.66699 5.33301 6.33398 6.66602 11.001 3.99902l110 -44c2 -0.666992 3.83301 -0.666992 5.5 0s2.5 2.33398 2.5 5.00098l-9 126c0 2 0.666992 3.83301 2 5.5s3.66602 2.5 6.99902 2.5h47
c2.66699 0 4.66699 -0.833008 6 -2.5s2 -3.5 2 -5.5l-8 -126c0 -5.33301 2 -7 6 -5l113 48c6 2.66699 9.66699 1 11 -5l11 -35c2 -6.66699 0.333008 -10.667 -5 -12l-114 -38c-1.33301 -0.666992 -2.16602 -1.66699 -2.49902 -3s-0.166016 -3 0.500977 -5l82 -100
c1.33301 -2.66699 1.83301 -5.33398 1.5 -8.00098s-2.16602 -5.33398 -5.49902 -8.00098l-32 -22c-3.33301 -2 -6.33301 -2.83301 -9 -2.5s-4.66699 1.16602 -6 2.49902z" />
    <glyph glyph-name="plus" unicode="+" horiz-adv-x="557" 
d="M496 353c0 -8.66699 -5.33301 -13 -16 -13l-405 -1c-4.66699 0 -8 1 -10 3s-3 5 -3 9v43c0 8 3 12 9 12h415c6.66699 0 10 -3.33301 10 -10v-43zM260 156c-9.33301 0 -14 5.33301 -14 16l-1 405c0 5.33301 1 8.83301 3 10.5s5 2.5 9 2.5h43c8 0 12 -3 12 -9l1 -415
c0 -6.66699 -3.33301 -10 -10 -10h-43z" />
    <glyph glyph-name="comma" unicode="," horiz-adv-x="212" 
d="M52 -143c-3.33301 0 -5.66699 1.33203 -7 3.99902s-1.33301 6.33398 0 11.001l45 112c4.66699 10.667 2 16 -8 16h-13c-8.66699 0 -13 4 -13 12v89c0 7.33301 3 11 9 11h84c6.66699 0 10 -3.33301 10 -10v-82c0 -4 -1 -8 -3 -12l-73 -140
c-2 -3.33301 -4.83301 -6 -8.5 -8s-7.5 -3 -11.5 -3h-11v0z" />
    <glyph glyph-name="hyphen" unicode="-" horiz-adv-x="381" 
d="M319 245c0 -9.33301 -5.66699 -14.001 -17 -14.001h-227c-4.66699 0 -8 0.833008 -10 2.5s-3 4.83398 -3 9.50098v44c0 7.33301 3 11 9 11l238 1c6.66699 0 10 -3.33301 10 -10v-44z" />
    <glyph glyph-name="period" unicode="." horiz-adv-x="209" 
d="M155 16c0 -10.667 -6 -16 -18 -16h-70c-10 0 -15 4.66699 -15 14v86c0 8.66699 3.66699 13 11 13h82c6.66699 0 10 -4 10 -12v-85z" />
    <glyph glyph-name="slash" unicode="/" horiz-adv-x="342" 
d="M21 -43c-8 0 -10.668 2.66797 -8.00098 8.00098l250 768c2 6 6.33301 9 13 9h44c8.66699 0 11.334 -5.33301 8.00098 -16l-246 -757c-1.33301 -4.66699 -3.5 -7.83398 -6.5 -9.50098s-6.83301 -2.5 -11.5 -2.5h-43v0z" />
    <glyph glyph-name="zero" unicode="0" horiz-adv-x="688" 
d="M345 752c39.333 0 75.833 -8.16602 109.5 -24.499s63 -40.833 88 -73.5s44.5 -72.834 58.5 -120.501s21 -102.5 21 -164.5c0 -82.667 -12.167 -152 -36.5 -208s-57.5 -98.333 -99.5 -127s-89.333 -43 -142 -43c-53.333 0 -101 14.333 -143 43s-75 71 -99 127
s-36 125 -36 207c0 62 7 116.833 21 164.5s33.667 88 59 121s55 57.667 89 74s70.667 24.5 110 24.5v0zM345 64.001c36.667 0 68.332 10.3359 94.999 31.0029s47.334 53.5 62.001 98.5s22 103.5 22 175.5c0 73.333 -7.5 132.666 -22.5 177.999s-36 78.666 -63 99.999
s-58.5 32 -94.5 32s-67.5 -10.667 -94.5 -32s-48 -54.833 -63 -100.5s-22.5 -104.834 -22.5 -177.501c0 -72 7.5 -130.5 22.5 -175.5s36.167 -77.833 63.5 -98.5s59 -31 95 -31v0z" />
    <glyph glyph-name="one" unicode="1" horiz-adv-x="465" 
d="M412 76c7.33301 0 11 -3.33496 11 -10.002v-56c0 -2 -0.833008 -4.16699 -2.5 -6.5s-4.5 -3.5 -8.5 -3.5h-351c-7.33301 0 -11 3.33301 -11 10v56c0 6.66699 3.66699 10 11 10h126c5.33301 0 8 1.66699 8 5v550c0 6.66699 -3 9.33398 -9 8.00098l-124 -46
c-8.66699 -2 -13 2 -13 12v40c0 4.66699 0.666992 7.83398 2 9.50098s4 3.5 8 5.5l148 74c6.66699 3.33301 12 5.5 16 6.5s8.66699 1.5 14 1.5h43c7.33301 0 11 -4 11 -12v-647c0 -4.66699 2 -7 6 -7h115v0z" />
    <glyph glyph-name="two" unicode="2" 
d="M289 311c28 26.667 51.665 50.5 70.998 71.5s34.833 40.667 46.5 59s20.334 36 26.001 53s8.5 34.5 8.5 52.5c0 28.667 -7.33301 52.667 -22 72s-33.167 33.833 -55.5 43.5s-45.833 14.5 -70.5 14.5c-19.333 0 -39.333 -3.16699 -60 -9.5s-40.5 -16.833 -59.5 -31.5
s-36.167 -34 -51.5 -58c-1.33301 -2.66699 -3.83301 -4.33398 -7.5 -5.00098s-7.83398 0.333008 -12.501 3l-44 26c-4.66699 3.33301 -7.16699 6.83301 -7.5 10.5s0.833984 7.5 3.50098 11.5c30.667 44.667 67.834 77.167 111.501 97.5s88.834 30.5 135.501 30.5
c42 0 80.667 -7.66699 116 -23s63.666 -38.333 84.999 -69s32 -69.334 32 -116.001c0 -29.333 -5.16699 -57 -15.5 -83s-27.333 -53 -51 -81s-55.167 -60.667 -94.5 -98l-201 -189c-4 -2.66699 -5.5 -5.33398 -4.5 -8.00098s4.5 -4 10.5 -4h351
c8.66699 0 13 -3.66699 13 -11v-58c0 -4 -0.833008 -7 -2.5 -9s-5.16699 -3 -10.5 -3h-464c-6 0 -10.167 1 -12.5 3s-3.5 6.33301 -3.5 13v41c0 4.66699 0.5 8.83398 1.5 12.501s3.5 7.83398 7.5 12.501s10 10.334 18 17.001z" />
    <glyph glyph-name="three" unicode="3" horiz-adv-x="641" 
d="M77 638c-4.66699 4.66699 -4.66895 9.66504 -0.00195312 14.998c20.667 22.667 43.167 41.334 67.5 56.001s50.166 25.5 77.499 32.5s56 10.5 86 10.5c52 0 96.5 -8.16699 133.5 -24.5s65.667 -38.666 86 -66.999s30.5 -60.5 30.5 -96.5s-11.167 -68.5 -33.5 -97.5
s-53.5 -50.5 -93.5 -64.5c-7.33301 -2.66699 -11 -5 -11 -7s3.66699 -4.33301 11 -7c27.333 -7.33301 52.5 -19.5 75.5 -36.5s41.167 -37.833 54.5 -62.5s20 -52.667 20 -84c0 -41.333 -10.667 -78.333 -32 -111s-53.166 -58.167 -95.499 -76.5
s-95.166 -27.5 -158.499 -27.5c-33.333 0 -65 3.83301 -95 11.5s-57.833 19.5 -83.5 35.5s-49.5 35.667 -71.5 59c-2.66699 3.33301 -3.66699 6.33301 -3 9s2.66699 5.33398 6 8.00098l43 34c4.66699 3.33301 8 4.66602 10 3.99902s4 -2 6 -4c20 -20.667 40 -37 60 -49
s41 -20.833 63 -26.5s46 -8.5 72 -8.5c58.667 0 104 13 136 39s48 59.333 48 100c0 32 -9 59 -27 81s-41.333 38.667 -70 50s-59 17 -91 17l-89 1c-8 0 -12 3.33301 -12 10v52c0 6 4 9.33301 12 10l72 1c34.667 0 65.834 6 93.501 18s49.5 28.167 65.5 48.5s24 43.5 24 69.5
c0 22.667 -6.66699 43 -20 61s-31.666 32.333 -54.999 43s-50 16 -80 16c-34.667 0 -66.667 -6.66699 -96 -20s-57 -32.333 -83 -57c-2.66699 -3.33301 -5.33398 -5 -8.00098 -5s-6 1.66699 -10 5l-35 35v0z" />
    <glyph glyph-name="four" unicode="4" horiz-adv-x="649" 
d="M386 731c3.33301 4 6.66699 6.83301 10 8.5s8.33301 2.5 15 2.5h67c8 0 12 -4 12 -12v-450c0 -6 2.66699 -9 8 -9h94c9.33301 0 14 -3.33301 14 -10v-49c0 -8.66699 -4.66699 -13 -14 -13h-93c-6 0 -9 -3.33301 -9 -10v-174c0 -10 -5.33301 -15 -16 -15h-68
c-8.66699 -0 -13 4.33301 -13 13v179c0 4.66699 -3 7 -9 7h-324c-10 0 -15 4.33301 -15 13v51c0 4.66699 1.33301 9.5 4 14.5s6.66699 11.167 12 18.5l325 435v0zM382.001 271c6 0 9.00098 2.33301 9.00098 7v333c0 8 -1 12.333 -3 13s-5.66699 -2.33301 -11 -9l-244 -331
c-6.66699 -8.66699 -4.33398 -13 6.99902 -13h242z" />
    <glyph glyph-name="five" unicode="5" horiz-adv-x="654" 
d="M544 742c6.66699 0 10.999 -1 12.999 -3s2.66699 -6 2 -12l-4 -54c-0.666992 -4.66699 -1.5 -7.66699 -2.5 -9s-4.83301 -2 -11.5 -2h-340c-8 0 -12 -3.66699 -12 -11l-18 -217c-0.666992 -4.66699 0.333008 -8.16699 3 -10.5s5.66699 -2.83301 9 -1.5
c24.667 12.667 49.5 23.834 74.5 33.501s55.5 14.5 91.5 14.5c44 0 85 -8 123 -24s68.5 -40.667 91.5 -74s34.5 -76.333 34.5 -129c0 -53.333 -12.167 -98.833 -36.5 -136.5s-58 -66.5 -101 -86.5s-92.167 -30 -147.5 -30c-50.667 0 -98.5 8.83301 -143.5 26.5
s-83.167 43.5 -114.5 77.5c-2.66699 4 -4.16699 7.5 -4.5 10.5s1.83398 6.16699 6.50098 9.5l43 35c5.33301 4 11 3 17 -3c18 -16.667 35.667 -31.334 53 -44.001s36.5 -22.5 57.5 -29.5s45.5 -10.5 73.5 -10.5c43.333 0 80 7.66699 110 23s53 36.5 69 63.5s24 57.5 24 91.5
c0 36 -7.66699 65.5 -23 88.5s-35.833 40.167 -61.5 51.5s-54.167 17 -85.5 17c-35.333 0 -67 -6.33301 -95 -19s-53.667 -26 -77 -40c-5.33301 -2.66699 -8.66602 -3.66699 -9.99902 -3l-8 4l-49 28c-6 3.33301 -8.83301 5.83301 -8.5 7.5s0.833008 6.5 1.5 14.5l27 339
c0.666992 6 2.16699 9.83301 4.5 11.5s8.16602 2.5 17.499 2.5h407z" />
    <glyph glyph-name="six" unicode="6" horiz-adv-x="661" 
d="M369 751c25.333 0 48.0049 -2.66895 68.0049 -8.00195s38 -12.666 54 -21.999s30.167 -19.666 42.5 -30.999s22.5 -23.333 30.5 -36c1.33301 -2.66699 2.16602 -5.5 2.49902 -8.5s-1.5 -5.5 -5.5 -7.5l-57 -23c-3.33301 -2 -6.33301 -2.16699 -9 -0.5
s-4.66699 3.83398 -6 6.50098c-14.667 17.333 -31.167 31.333 -49.5 42s-41.5 16 -69.5 16c-48 0 -87.5 -11.667 -118.5 -35s-53.833 -55.166 -68.5 -95.499s-22 -85.833 -22 -136.5c0 -10.667 1 -17.667 3 -21s7 -3 15 1c25.333 12.667 52.666 24.334 81.999 35.001
s63.666 16 102.999 16c51.333 0 95.166 -9.5 131.499 -28.5s64 -44.833 83 -77.5s28.5 -69.667 28.5 -111c0 -46.667 -11.5 -87.834 -34.5 -123.501s-54 -63.167 -93 -82.5s-82.5 -29 -130.5 -29c-58.667 0 -109.167 14.5 -151.5 43.5s-74.833 71 -97.5 126
s-34 121.5 -34 199.5c0 81.333 12.167 151.166 36.5 209.499s59.166 103.166 104.499 134.499s99.333 47 162 47v0zM353.005 372.998c-17.333 0 -36.8311 -2.16504 -58.498 -6.49805s-42.167 -9.83301 -61.5 -16.5s-36 -14.334 -50 -23.001
c-8 -5.33301 -13.333 -10.833 -16 -16.5s-4 -14.5 -4 -26.5c0 -24 3.83301 -48.833 11.5 -74.5s19 -49.834 34 -72.501s34.167 -41 57.5 -55s51 -21 83 -21c31.333 0 59.166 7 83.499 21s43.666 33.333 57.999 58s21.5 52 21.5 82c0 28 -6.33301 53.5 -19 76.5
s-31 41.167 -55 54.5s-52.333 20 -85 20v0z" />
    <glyph glyph-name="seven" unicode="7" 
d="M540 742c5.33301 0 9.33398 -1.33105 12.001 -3.99805s3.66699 -5.33398 3 -8.00098l-1 -36c0 -5.33301 -1.33301 -11.166 -4 -17.499s-6 -12.5 -10 -18.5c-26.667 -40 -52.5 -83 -77.5 -129s-48.167 -93.333 -69.5 -142s-40.5 -95.834 -57.5 -141.501
s-31.167 -88 -42.5 -127s-19 -72.167 -23 -99.5c-1.33301 -12.667 -6.33301 -19 -15 -19h-79c-10.667 0 -14.667 5.66699 -12 17c9.33301 37.333 21.833 79.5 37.5 126.5s35 97.667 58 152s50.167 111.166 81.5 170.499s66.666 120 105.999 182
c2.66699 4 3.66699 7.33301 3 10s-4 4 -10 4h-387c-8 0 -12 4 -12 12l7 58c0.666992 6.66699 5.66699 10 15 10h477z" />
    <glyph glyph-name="eight" unicode="8" horiz-adv-x="668" 
d="M333 752c48.667 0 91.332 -8.49805 127.999 -25.498s65.334 -40.833 86.001 -71.5s31 -66.334 31 -107.001c0 -31.333 -8 -59.333 -24 -84s-41.667 -49.334 -77 -74.001c-10 -6.66699 -10.333 -12 -1 -16c30.667 -12 55.834 -26.667 75.501 -44
s34.5 -37.166 44.5 -59.499s15 -46.833 15 -73.5c0 -42 -11.833 -78.667 -35.5 -110s-56.5 -55.333 -98.5 -72s-91 -25 -147 -25c-54.667 0 -102.334 7.66699 -143.001 23s-71.834 37.5 -93.501 66.5s-32.5 63.833 -32.5 104.5c0 35.333 8.83301 67.166 26.5 95.499
s46.834 55.166 87.501 80.499c8 4.66699 12.167 8.5 12.5 11.5s-3.5 6.5 -11.5 10.5c-18.667 10.667 -35.167 23.334 -49.5 38.001s-25.5 31.667 -33.5 51s-12 41.333 -12 66c0 40.667 10.5 77.167 31.5 109.5s50.5 58 88.5 77s82 28.5 132 28.5v0zM333.998 682.002
c-30 0 -57.332 -5.99902 -81.999 -17.999s-44.167 -28.167 -58.5 -48.5s-21.5 -43.833 -21.5 -70.5c0 -60.667 34.333 -98.667 103 -114l103 -24c9.33301 -2.66699 20.5 -0.333984 33.5 6.99902s25.833 18 38.5 32s23 30 31 48s12 36.333 12 55
c0 39.333 -14.333 71.333 -43 96s-67.334 37 -116.001 37v0zM334.999 60.0029c55.333 0 99.335 12 132.002 36s49 56.333 49 97c0 30.667 -8.33301 55.667 -25 75s-43.667 33.333 -81 42l-130 32c-10 2.66699 -22.333 0.833984 -37 -5.49902s-29.334 -16.333 -44.001 -30
s-27.167 -30 -37.5 -49s-15.5 -39.833 -15.5 -62.5c0 -42.667 16.167 -75.834 48.5 -99.501s79.166 -35.5 140.499 -35.5v0z" />
    <glyph glyph-name="nine" unicode="9" horiz-adv-x="658" 
d="M292 -9c-25.333 0 -48.5029 2.6709 -69.5029 8.00391s-39.833 12.666 -56.5 21.999s-31.167 19.833 -43.5 31.5s-22.833 23.5 -31.5 35.5c-1.33301 2.66699 -2.16602 5.5 -2.49902 8.5s1.5 5.5 5.5 7.5l57 23c3.33301 2 6.16602 2.16699 8.49902 0.5
s4.5 -3.83398 6.5 -6.50098c14 -17.333 31 -31.333 51 -42s45 -16 75 -16c47.333 0 86 11.667 116 35s52.167 55.166 66.5 95.499s21.5 85.833 21.5 136.5c0 11.333 -0.833008 18.5 -2.5 21.5s-6.5 2.5 -14.5 -1.5c-25.333 -12.667 -52.166 -24.334 -80.499 -35.001
s-62.5 -16 -102.5 -16c-50 0 -93.167 9.5 -129.5 28.5s-64 44.833 -83 77.5s-28.5 69.667 -28.5 111c0 47.333 11.333 88.666 34 123.999s53.667 62.666 93 81.999s83 29 131 29c57.333 0 106.833 -14.5 148.5 -43.5s73.834 -71 96.501 -126s34 -121.5 34 -199.5
c0 -81.333 -12.167 -151.166 -36.5 -209.499s-58.666 -103.166 -102.999 -134.499s-97.833 -47 -160.5 -47v0zM306.997 369.004c19.333 0 39.335 2.16797 60.002 6.50098s40.667 10.5 60 18.5s35.666 16.667 48.999 26c8 5.33301 13.333 10.833 16 16.5s4 14.5 4 26.5
c0 23.333 -3.66699 47.666 -11 72.999s-18.5 49 -33.5 71s-34 39.833 -57 53.5s-50.167 20.5 -81.5 20.5c-30.667 0 -58.334 -7 -83.001 -21s-44.167 -33.167 -58.5 -57.5s-21.5 -51.833 -21.5 -82.5c0 -28 6.5 -53.5 19.5 -76.5s31.167 -41.167 54.5 -54.5s51 -20 83 -20v0
z" />
    <glyph glyph-name="colon" unicode=":" horiz-adv-x="209" 
d="M155 411c0 -10.667 -6 -16 -18 -16h-70c-10 0 -15 5 -15 15v84c0 8.66699 3.66699 13 11 13h82c6.66699 0 10 -3.66699 10 -11v-85zM155 19c0 -10.667 -6 -16 -18 -16h-70c-10 0 -15 4.66699 -15 14v85c0 8 3.66699 12 11 12h82c6.66699 0 10 -3.66699 10 -11v-84z" />
    <glyph glyph-name="semicolon" unicode=";" horiz-adv-x="229" 
d="M52 -144c-3.33301 0 -5.66699 1.33301 -7 4s-1.33301 6 0 10l45 114c4 10.667 1.33301 16 -8 16h-13c-8.66699 0 -13 4 -13 12v89c0 7.33301 3 11 9 11h84c6.66699 0 10 -3.33301 10 -10v-82c0 -4 -1 -8 -3 -12l-73 -141c-2 -3.33301 -4.83301 -6 -8.5 -8
s-7.5 -3 -11.5 -3h-11v0zM66.999 393c-10 0 -15 5 -15 15v85c0 8.66699 3.66699 13 11 13h82c6.66699 0 10 -3.66699 10 -11v-86c0 -10.667 -6 -16 -18 -16h-70v0z" />
    <glyph glyph-name="less" unicode="&#x3c;" horiz-adv-x="544" 
d="M477 173c0 -7.33301 -1.99902 -12.3291 -5.99902 -14.9961s-9.33301 -2.66699 -16 0l-388 152c-4.66699 2 -8.16699 4.33301 -10.5 7s-3.5 6 -3.5 10v56c0 5.33301 1.16699 9.16602 3.5 11.499s5.83301 4.16602 10.5 5.49902l389 154
c6.66699 3.33301 12 3.66602 16 0.999023s6 -7.33398 6 -14.001v-45c0 -9.33301 -7.33301 -17 -22 -23l-301 -118l301 -118c7.33301 -2.66699 12.666 -5.66699 15.999 -9s5 -8 5 -14v-41z" />
    <glyph glyph-name="equal" unicode="=" horiz-adv-x="557" 
d="M496 452c0 -8.66699 -5.33301 -13 -16 -13l-405 -1c-4.66699 0 -8 1 -10 3s-3 5 -3 9v43c0 7.33301 3 11 9 11l415 1c6.66699 0 10 -3.33301 10 -10v-43zM496 227c0 -9.33301 -5.33301 -14 -16 -14l-405 -1c-4.66699 0 -8 1 -10 3s-3 5 -3 9v43c0 8 3 12 9 12h415
c6.66699 0 10 -3 10 -9v-43z" />
    <glyph glyph-name="greater" unicode="&#x3e;" horiz-adv-x="544" 
d="M67 214c0 6 1.66797 10.6631 5.00098 13.9961s8.66602 6.33301 15.999 9l301 118l-301 118c-14.667 6 -22 13.667 -22 23v45c0 6.66699 2 11.334 6 14.001s9.33301 2.33398 16 -0.999023l389 -154c4.66699 -1.33301 8.16699 -3.16602 10.5 -5.49902
s3.5 -6.16602 3.5 -11.499v-56c0 -4 -1.33301 -7.33301 -4 -10s-6 -5 -10 -7l-388 -152c-6.66699 -2.66699 -12 -2.66699 -16 0s-6 7.66699 -6 15v41v0z" />
    <glyph glyph-name="question" unicode="?" horiz-adv-x="523" 
d="M298 16c0 -10.667 -6.33301 -16 -19 -16h-70c-5.33301 0 -9 1.16699 -11 3.5s-3 5.83301 -3 10.5v85c0 8 3.33301 12 10 12h83c6.66699 0 10 -3.66699 10 -11v-84zM34 604c-3.33301 1.33301 -5.33398 3.33105 -6.00098 5.99805s-0.333984 5.33398 0.999023 8.00098
c21.333 41.333 52.833 74 94.5 98s88.834 36 141.501 36c45.333 0 84.666 -7.66699 117.999 -23s59.333 -36.333 78 -63s28 -57.667 28 -93c0 -34 -7 -63.5 -21 -88.5s-31.167 -48 -51.5 -69l-61 -63c-20.333 -21 -37.5 -44 -51.5 -69s-21 -54.5 -21 -88.5
c0 -3.33301 -1.16699 -6.16602 -3.5 -8.49902s-5.16602 -3.5 -8.49902 -3.5h-48c-8.66699 0 -13 4.66699 -13 14c0 38 6.5 70.833 19.5 98.5s28.833 52.667 47.5 75s37.667 43.5 57 63.5s35.5 40.667 48.5 62s19.5 46 19.5 74c0 35.333 -12.667 63.5 -38 84.5
s-58.666 31.5 -99.999 31.5c-22 0 -44 -4.16699 -66 -12.5s-41.333 -19.5 -58 -33.5s-29 -30 -37 -48c-0.666992 -2.66699 -2 -4.5 -4 -5.5s-4.66699 -0.833008 -8 0.5z" />
    <glyph glyph-name="at" unicode="@" horiz-adv-x="834" 
d="M656 -46c-28 -20 -61.002 -36.166 -99.002 -48.499s-78.667 -18.5 -122 -18.5c-60.667 0 -115 9.66699 -163 29s-88.667 46.166 -122 80.499s-58.833 74.166 -76.5 119.499s-26.5 93.666 -26.5 144.999c0 54 9.5 105 28.5 153s46.333 90.667 82 128
s78.167 66.5 127.5 87.5s104 31.5 164 31.5c43.333 0 86 -6.16699 128 -18.5s80 -31.666 114 -57.999s61.167 -59.666 81.5 -99.999s30.5 -88.833 30.5 -145.5c0 -50 -8.5 -94.5 -25.5 -133.5s-40 -69.5 -69 -91.5s-62.167 -33 -99.5 -33c-26 0 -46.167 4.33301 -60.5 13
s-24.166 22 -29.499 40c-0.666992 4.66699 -1.83398 7 -3.50098 7s-4.16699 -2 -7.5 -6c-14.667 -19.333 -33.334 -35.5 -56.001 -48.5s-50.667 -19.5 -84 -19.5c-25.333 0 -48.666 7.16699 -69.999 21.5s-38.5 34.833 -51.5 61.5s-19.5 57.667 -19.5 93
c0 42.667 8.33301 81.5 25 116.5s39.5 63 68.5 84s62.5 31.5 100.5 31.5c28 0 51.5 -5.83301 70.5 -17.5s34.167 -27.167 45.5 -46.5c0.666992 -0.666992 1.83398 -1 3.50098 -1s2.83398 1.66699 3.50098 5l7 28c0.666992 4 3.33398 6 8.00098 6h45
c6 0 8.33301 -2.33301 7 -7l-37 -222c-5.33301 -29.333 -4.33301 -49.833 3 -61.5s19.666 -17.5 36.999 -17.5c22 0 42.167 7.66699 60.5 23s33.166 37.333 44.499 66s17 63 17 103c0 49.333 -8.33301 91 -25 125s-38.834 61.667 -66.501 83s-58.667 36.833 -93 46.5
s-68.5 14.5 -102.5 14.5c-54 0 -101.667 -9 -143 -27s-76.333 -42.833 -105 -74.5s-50.334 -68 -65.001 -109s-22 -84.833 -22 -131.5c0 -44 7.16699 -85.167 21.5 -123.5s35.5 -71.833 63.5 -100.5s62.833 -51.167 104.5 -67.5s89.834 -24.5 144.501 -24.5
c28.667 0 53.167 2.5 73.5 7.5s38.333 12 54 21l47.5 28.5c8.66699 6 15.334 5.66699 20.001 -1l20 -26c3.33301 -4.66699 3.83301 -8.5 1.5 -11.5s-5.16602 -5.83301 -8.49902 -8.5v0zM299.998 248.001c0 -36 7.16895 -64.832 21.502 -86.499s34.5 -32.5 60.5 -32.5
c22 0 42.5 6.5 61.5 19.5s34.833 30.333 47.5 52s20.667 45.167 24 70.5c4.66699 30.667 3 56.667 -5 78s-19.5 37.333 -34.5 48s-31.833 16 -50.5 16c-24.667 0 -46.334 -7.5 -65.001 -22.5s-33.334 -34.833 -44.001 -59.5s-16 -52.334 -16 -83.001v0z" />
    <glyph glyph-name="A" unicode="A" horiz-adv-x="727" 
d="M55 0c-4 0 -6.83105 1.50098 -8.49805 4.50098s-1.83398 7.16699 -0.500977 12.5l259 711c2 4.66699 4.33301 8.16699 7 10.5s7 3.5 13 3.5h78c12 0 19.667 -5 23 -15l256 -710c1.33301 -4 1.16602 -7.83301 -0.500977 -11.5s-4.83398 -5.5 -9.50098 -5.5h-71
c-8 0 -13.333 3.33301 -16 10l-69 194c-1.33301 2.66699 -2.66602 4.66699 -3.99902 6s-4 2 -8 2h-291c-6 0 -10 -2.66699 -12 -8l-71 -195c-0.666992 -2.66699 -2.16699 -4.83398 -4.5 -6.50098s-5.83301 -2.5 -10.5 -2.5h-60v0zM478.002 288.001c8 0 10.667 4.33301 8 13
l-120 329c-2.66699 6 -5.16699 9 -7.5 9s-4.5 -3 -6.5 -9l-122 -331c-3.33301 -7.33301 -1.33301 -11 6 -11h242z" />
    <glyph glyph-name="B" unicode="B" horiz-adv-x="699" 
d="M109 0c-4 0 -7 1.00195 -9 3.00195s-3 5 -3 9v716c0 4.66699 1.16699 8.16699 3.5 10.5s5.5 3.5 9.5 3.5h231c88.667 0 157.167 -16.333 205.5 -49s72.5 -80.334 72.5 -143.001c0 -40 -10.5 -73.833 -31.5 -101.5s-54.167 -49.5 -99.5 -65.5
c-2.66699 -0.666992 -4 -2 -4 -4s1.33301 -3.33301 4 -4c48 -12 84.833 -32.5 110.5 -61.5s38.5 -67.5 38.5 -115.5c0 -66.667 -25 -116.334 -75 -149.001s-121.333 -49 -214 -49h-239v0zM343 70.002c65.333 0 113.999 10.501 145.999 31.501s48 54.167 48 99.5
c0 32.667 -8 59.167 -24 79.5s-37.667 35.166 -65 44.499s-58.666 14 -93.999 14h-147c-9.33301 0 -14 -4 -14 -12v-243c0 -9.33301 3 -14 9 -14h141zM353.999 411.003c20 0 40 2.00098 60 6.00098s38.167 10.833 54.5 20.5s29.333 22.667 39 39s14.5 37.166 14.5 62.499
c0 45.333 -16.5 78.833 -49.5 100.5s-76.833 32.5 -131.5 32.5h-135c-8.66699 0 -13 -4 -13 -12v-236c0 -8.66699 3 -13 9 -13h152z" />
    <glyph glyph-name="C" unicode="C" horiz-adv-x="707" 
d="M378 752c33.333 0 65.498 -5.5 96.498 -16.5s58.833 -25.833 83.5 -44.5s45 -40.334 61 -65.001s26 -51 30 -79c1.33301 -6 1.5 -10 0.5 -12s-3.5 -3 -7.5 -3l-75 -6c-3.33301 -0.666992 -5.66602 0 -6.99902 2s-2.33301 4.66699 -3 8
c-9.33301 42.667 -29.5 77.167 -60.5 103.5s-69.5 39.5 -115.5 39.5c-69.333 0 -122.666 -25.667 -159.999 -77s-56 -128.666 -56 -231.999c0 -100 18.333 -175.667 55 -227s92 -77 166 -77c47.333 0 86.833 11.333 118.5 34s57.167 59 76.5 109c2 4 6 5.33301 12 4l59 -14
c2 -0.666992 3.66699 -2 5 -4s1.33301 -5.33301 0 -10c-5.33301 -19.333 -13.5 -38.333 -24.5 -57s-24.5 -36.167 -40.5 -52.5s-34.667 -31 -56 -44s-44.833 -23.167 -70.5 -30.5s-53.5 -11 -83.5 -11c-66 0 -122.833 15.333 -170.5 46s-84 74.667 -109 132
s-37.5 125.333 -37.5 204s12.5 146.5 37.5 203.5s61 100.667 108 131s102.833 45.5 167.5 45.5v0z" />
    <glyph glyph-name="D" unicode="D" horiz-adv-x="722" 
d="M112 742h29.001c14.667 0 30.667 -0.166992 48 -0.5s33.333 -0.5 48 -0.5h31c92.667 -1.33301 167.5 -16 224.5 -44s98.667 -68.667 125 -122s39.5 -119.333 39.5 -198c0 -83.333 -14.333 -153 -43 -209s-72.667 -98 -132 -126s-134 -42 -224 -42h-147
c-9.33301 -0 -14 5.33301 -14 16v712c0 4.66699 1.16699 8.16699 3.5 10.5s6.16602 3.5 11.499 3.5v0zM203.001 669c-6.66699 0 -10 -4.66699 -10 -14v-572c0 -7.33301 4 -11 12 -11h38c74 0 134 9.83301 180 29.5s79.833 51.5 101.5 95.5s32.5 102.333 32.5 175
c0 76 -11.167 135.5 -33.5 178.5s-56.333 73.5 -102 91.5s-103.5 27 -173.5 27h-45v0z" />
    <glyph glyph-name="E" unicode="E" horiz-adv-x="628" 
d="M97 728c0 9.33301 4 14.001 12 14.001h449c6.66699 0 10 -3.66699 10 -11v-51c0 -8 -4.33301 -12 -13 -12h-349c-8.66699 0 -13 -4 -13 -12v-234c0 -7.33301 3.66699 -11 11 -11h259c7.33301 0 11 -3.66699 11 -11v-53c0 -2.66699 -0.666992 -4.83398 -2 -6.50098
s-4.33301 -2.5 -9 -2.5h-259c-7.33301 0 -11 -3.66699 -11 -11v-243c0 -6.66699 3.33301 -10 10 -10h367c7.33301 0 11 -3.33301 11 -10v-53c0 -3.33301 -0.833008 -6 -2.5 -8s-4.5 -3 -8.5 -3h-459c-9.33301 0 -14 4.66699 -14 14v714v0z" />
    <glyph glyph-name="F" unicode="F" horiz-adv-x="601" 
d="M97 728c0 9.33301 4 14 12 14h440c6.66699 0 10 -3.66699 10 -11v-51c0 -8 -4.33301 -12 -13 -12h-340c-8.66699 0 -13 -4 -13 -12v-246c0 -7.33301 3.66699 -11 11 -11h267c7.33301 0 11 -3.33301 11 -10v-53c0 -6 -3.66699 -9 -11 -9h-267
c-7.33301 0 -11 -3.66699 -11 -11v-303c0 -8.66699 -4.66699 -13 -14 -13h-68c-5.33301 0 -9 1 -11 3s-3 5.66699 -3 11v714v0z" />
    <glyph glyph-name="G" unicode="G" horiz-adv-x="739" 
d="M375 -10c-64 0 -119.329 15.1699 -165.996 45.5029s-82.334 73.666 -107.001 129.999s-37 123.833 -37 202.5c0 80.667 13 149.667 39 207s62.667 101.166 110 131.499s102.333 45.5 165 45.5c46.667 0 89.5 -9.33301 128.5 -28s71.333 -43.334 97 -74.001
s41.167 -63.334 46.5 -98.001c0.666992 -5.33301 0.5 -9 -0.5 -11s-3.5 -3.66699 -7.5 -5l-72 -11c-3.33301 -0.666992 -5.83301 -0.166992 -7.5 1.5s-2.83398 4.5 -3.50098 8.5c-4.66699 26.667 -15.334 50.834 -32.001 72.501s-37.834 39 -63.501 52
s-54.5 19.5 -86.5 19.5c-45.333 0 -84 -11.5 -116 -34.5s-56.167 -57.333 -72.5 -103s-24.5 -101.5 -24.5 -167.5c0 -69.333 8.16699 -127.166 24.5 -173.499s40.666 -80.833 72.999 -103.5s71.5 -34 117.5 -34c32.667 0 61 5.5 85 16.5s44 25.667 60 44s28.333 38 37 59
s13.334 41.5 14.001 61.5l1 60c1.33301 6.66699 -2 10 -10 10h-163c-4 0 -6.83301 0.833008 -8.5 2.5s-2.5 4.5 -2.5 8.5v43c0 6 3.33301 9 10 9l248 -1c4.66699 0 8.33398 -1 11.001 -3s4 -5 4 -9v-351c0 -4.66699 -1 -8 -3 -10s-5 -3 -9 -3h-23
c-4.66699 0 -8.5 0.666992 -11.5 2s-5.16699 4.66602 -6.5 9.99902l-11 93c-0.666992 2.66699 -1.83398 4 -3.50098 4s-3.5 -1.66699 -5.5 -5c-12.667 -20 -28.667 -38.667 -48 -56s-43 -31.333 -71 -42s-61 -16 -99 -16v0z" />
    <glyph glyph-name="H" unicode="H" horiz-adv-x="735" 
d="M201 347c-5.33301 0 -8 -2.66699 -8 -8v-324c0 -10 -5.66699 -15 -17 -15h-65c-5.33301 0 -9 1.16699 -11 3.5s-3 5.83301 -3 10.5v714c0 9.33301 4 14 12 14h72c8 0 12 -4.33301 12 -13v-294c0 -8 3.66699 -12 11 -12h328c6.66699 0 10 4 10 12v295
c0 8 3.66699 12 11 12h73c8 0 12 -4.66699 12 -14v-714c0 -4.66699 -1 -8.16699 -3 -10.5s-5.66699 -3.5 -11 -3.5h-65c-11.333 0 -17 5 -17 15v323c0 6 -3 9 -9 9h-332z" />
    <glyph glyph-name="I" unicode="I" horiz-adv-x="290" 
d="M181 742c8 0 12.001 -4.33301 12.001 -13v-712c0 -6.66699 -1.33301 -11.167 -4 -13.5s-7.33398 -3.5 -14.001 -3.5h-63c-6 0 -10 1 -12 3s-3 5.66699 -3 11v714c0 9.33301 4 14 12 14h72z" />
    <glyph glyph-name="J" unicode="J" horiz-adv-x="418" 
d="M325 163c0 -57.333 -12.5 -100.501 -37.5 -129.501s-65.833 -43.5 -122.5 -43.5c-26 0 -49 2.83301 -69 8.5s-34.333 9.83398 -43 12.501c-4 2 -7.16699 4.33301 -9.5 7s-3.16602 6.66699 -2.49902 12l9 54c1.33301 8 5.66602 11 12.999 9l32.5 -13
c11.667 -4.66699 28.167 -7 49.5 -7c30 0 51.5 8 64.5 24s19.5 45.333 19.5 88v544c0 8.66699 4 13 12 13h73c7.33301 0 11 -4.33301 11 -13v-566v0z" />
    <glyph glyph-name="K" unicode="K" horiz-adv-x="701" 
d="M657 14c2 -4 2.49902 -7.33203 1.49902 -9.99902s-3.5 -4 -7.5 -4h-82c-9.33301 0 -15.333 3 -18 9l-221 369c-4 6 -9 5.66699 -15 -1l-115 -131c-4.66699 -5.33301 -7 -11.333 -7 -18v-213c0 -10 -5.66699 -15 -17 -15h-64c-5.33301 0 -9.16602 1 -11.499 3
s-3.5 5.33301 -3.5 10v717c0 8 3.66699 12 11 12h74c7.33301 0 11 -4 11 -12v-367c0 -4 0.666992 -6.16699 2 -6.5s3.66602 1.16699 6.99902 4.5l328 372c2.66699 3.33301 5.33398 5.66602 8.00098 6.99902s6.66699 2 12 2h69c6 0 9.66699 -1.5 11 -4.5
s0.333008 -6.16699 -3 -9.5l-233 -260c-2.66699 -4 -2.66699 -8.33301 0 -13l263 -441v0z" />
    <glyph glyph-name="L" unicode="L" horiz-adv-x="602" 
d="M97 728c0 9.33301 4 14 12 14h72c8 0 12 -4.33301 12 -13v-645c0 -6.66699 3.33301 -10 10 -10h346c8 0 12 -3.33301 12 -10v-53c0 -3.33301 -1 -6 -3 -8s-5 -3 -9 -3h-438c-5.33301 0 -9 1.16699 -11 3.5s-3 5.83301 -3 10.5v714v0z" />
    <glyph glyph-name="M" unicode="M" horiz-adv-x="906" 
d="M111 0c-9.33301 0 -14.001 5 -14.001 15v713c0 9.33301 4 14 12 14h96c5.33301 0 9.16602 -0.666992 11.499 -2s4.16602 -4.33301 5.49902 -9l222 -573c2.66699 -6 5.33398 -8.83301 8.00098 -8.5s5.33398 3.5 8.00098 9.5l222 570c2.66699 8.66699 7.66699 13 15 13h101
c7.33301 0 11 -4.33301 11 -13v-714c0 -10 -5 -15 -15 -15h-66c-5.33301 0 -9.16602 1 -11.499 3s-3.5 5.33301 -3.5 10v572c0 3.33301 -0.666992 4.83301 -2 4.5s-2.33301 -1.83301 -3 -4.5l-220 -572c-3.33301 -8.66699 -9.66602 -13 -18.999 -13h-48
c-10.667 0 -17.334 4 -20.001 12l-217 567c-1.33301 3.33301 -2.5 4.83301 -3.5 4.5s-1.5 -1.83301 -1.5 -4.5v-566c0 -4.66699 -1 -8 -3 -10s-5.66699 -3 -11 -3h-54v0z" />
    <glyph glyph-name="N" unicode="N" horiz-adv-x="757" 
d="M649 742c7.33301 0 10.999 -3.99902 10.999 -11.999v-718c0 -4 -1.16699 -7 -3.5 -9s-5.5 -3 -9.5 -3h-49c-4 0 -7.66699 0.333008 -11 1s-6.66602 3 -9.99902 7l-386 561c-3.33301 4.66699 -6 6.66699 -8 6s-3 -3 -3 -7v-555c0 -8.66699 -4.66699 -13 -14 -13h-56
c-8.66699 0 -13 4.33301 -13 13v715c0 9.33301 4.33301 14 13 14h57c5.33301 0 9.33301 -0.5 12 -1.5s5.66699 -3.83301 9 -8.5l375 -549c4 -4.66699 7.5 -6.33398 10.5 -5.00098s4.5 4 4.5 8v544c0 8 4 12 12 12h59z" />
    <glyph glyph-name="O" unicode="O" horiz-adv-x="764" 
d="M382 -10c-65.333 0 -121.832 14.6689 -169.499 44.002s-84.167 72.166 -109.5 128.499s-38 124.833 -38 205.5c0 81.333 13 150.666 39 207.999s62.667 101 110 131s103.666 45 168.999 45s121.5 -15 168.5 -45s83.333 -73.333 109 -130s38.5 -126 38.5 -208
c0 -80.667 -12.667 -149.167 -38 -205.5s-61.833 -99.333 -109.5 -129s-104.167 -44.5 -169.5 -44.5v0zM384.001 63.002c72 0 125.831 24.833 161.498 74.5s53.5 126.5 53.5 230.5c0 106 -18.167 184.333 -54.5 235s-90.166 76 -161.499 76c-72 0 -126.333 -25.5 -163 -76.5
s-55 -129.167 -55 -234.5c0 -103.333 18.333 -180 55 -230s91.334 -75 164.001 -75v0z" />
    <glyph glyph-name="P" unicode="P" horiz-adv-x="690" 
d="M636 526c0 -49.333 -11.333 -90 -34 -122s-53.667 -55.667 -93 -71s-85 -23 -137 -23h-170c-6 0 -9 -3 -9 -9v-286c0 -10 -5 -15 -15 -15h-68c-4.66699 0 -8 1 -10 3s-3 5.33301 -3 10v715c0 9.33301 4 14 12 14h252c52.667 0 99.667 -7.33301 141 -22s74 -38 98 -70
s36 -73.333 36 -124v0zM538 529c0 34 -7.5 61.333 -22.5 82s-36 35.5 -63 44.5s-59.167 13.5 -96.5 13.5h-150c-8.66699 0 -13 -4 -13 -12v-260c0 -9.33301 3 -14 9 -14h161c52.667 0 95 11.667 127 35s48 60.333 48 111v0z" />
    <glyph glyph-name="Q" unicode="Q" horiz-adv-x="765" 
d="M65 369c0 82 12.833 151.498 38.5 208.498s62.167 100.333 109.5 130s103.666 44.5 168.999 44.5s121.833 -14.833 169.5 -44.5s84.167 -73 109.5 -130s38 -126.5 38 -208.5s-12.167 -149.5 -36.5 -202.5s-58.833 -94.5 -103.5 -124.5
c-2.66699 -2.66699 -4 -5.66699 -4 -9c0 -8 6 -18 18 -30s27.833 -23 47.5 -33s40.167 -16.667 61.5 -20c4.66699 -0.666992 7.5 -2 8.5 -4s1.5 -3.66699 1.5 -5v-47c0 -7.33301 -2 -12.166 -6 -14.499s-11 -3.5 -21 -3.5c-29.333 0 -60.333 8.83301 -93 26.5
s-64.667 48.167 -96 91.5c-3.33301 4 -8.33301 5.33301 -15 4c-12.667 -2.66699 -25.667 -4.66699 -39 -6s-26.666 -2 -39.999 -2c-64.667 0 -120.667 14.333 -168 43s-84 71.334 -110 128.001s-39 126 -39 208v0zM165 366.998c0 -104 18.333 -180.666 55 -229.999
s90.667 -74 162 -74c72 0 126.167 24.667 162.5 74s54.5 126.333 54.5 231c0 104 -18 181.833 -54 233.5s-90.333 77.5 -163 77.5c-72 0 -126.167 -25.833 -162.5 -77.5s-54.5 -129.834 -54.5 -234.501v0z" />
    <glyph glyph-name="R" unicode="R" horiz-adv-x="696" 
d="M627 19c2 -4.66699 1.83008 -9.00098 -0.50293 -13.001s-5.83301 -6 -10.5 -6h-73c-7.33301 0 -12.666 4 -15.999 12l-129 315c-3.33301 7.33301 -11.333 11 -24 11h-169c-4.66699 0 -7.83398 -1 -9.50098 -3s-2.5 -4.66699 -2.5 -8v-311c0 -10.667 -5.66699 -16 -17 -16
h-65c-5.33301 0 -9 1.16699 -11 3.5s-3 5.5 -3 9.5v715c0 9.33301 4 14 12 14h279c78.667 0 139.834 -16.167 183.501 -48.5s65.5 -80.166 65.5 -143.499c0 -38 -7.33301 -70.167 -22 -96.5s-33.167 -47.333 -55.5 -63s-45.166 -27.167 -68.499 -34.5
c-5.33301 -0.666992 -6.66602 -4 -3.99902 -10l140 -327v0zM359.997 407.999c58.667 0 102.833 10.667 132.5 32s44.5 55 44.5 101c0 44.667 -13.167 77.667 -39.5 99s-64.5 32 -114.5 32h-176c-9.33301 0 -14 -3.66699 -14 -11v-240c0 -8.66699 3 -13 9 -13h158v0z" />
    <glyph glyph-name="S" unicode="S" horiz-adv-x="641" 
d="M498 604c-17.333 20.667 -39.6738 38.3311 -67.0068 52.998s-61.666 22 -102.999 22c-50 0 -89.333 -11 -118 -33s-43 -52.667 -43 -92c0 -10.667 2.5 -23 7.5 -37s15.167 -27.667 30.5 -41s38.333 -25.333 69 -36l145 -48c60.667 -20 103.667 -46.5 129 -79.5
s38 -71.833 38 -116.5c0 -42.667 -10.667 -79.5 -32 -110.5s-51.666 -54.667 -90.999 -71s-86.666 -24.5 -141.999 -24.5c-40 0 -77 4.83301 -111 14.5s-64.167 23.667 -90.5 42s-48.833 41.166 -67.5 68.499c-3.33301 4.66699 -4.5 8.83398 -3.5 12.501
s4.16699 7.5 9.5 11.5l36 25c6.66699 4 11.834 6 15.501 6s6.83398 -2 9.50098 -6c18 -22.667 35.667 -41.5 53 -56.5s37.5 -26.167 60.5 -33.5s51.167 -11 84.5 -11c52.667 0 95.334 9.5 128.001 28.5s49 50.5 49 94.5c0 16.667 -3.33301 31.834 -10 45.501
s-18 26.334 -34 38.001s-39 23.167 -69 34.5l-152 52c-36.667 12.667 -66.334 29 -89.001 49s-39.167 42 -49.5 66s-15.5 48.667 -15.5 74c0 42 10.667 78.5 32 109.5s50.833 55 88.5 72s81.834 25.5 132.501 25.5c34 0 65.167 -4 93.5 -12s54.333 -19.333 78 -34
s44.5 -32.334 62.5 -53.001c2.66699 -2.66699 4.33398 -5.66699 5.00098 -9s-1 -6.66602 -5 -9.99902l-46 -36c-3.33301 -2 -6 -2.5 -8 -1.5s-5.33301 3.5 -10 7.5v0z" />
    <glyph glyph-name="T" unicode="T" horiz-adv-x="645" 
d="M42 731c0 3.33301 0.832031 6 2.49902 8s4.83398 3 9.50098 3h538c4 0 7 -1 9 -3s3 -4.66699 3 -8v-52c0 -6.66699 -4 -10 -12 -10h-203c-7.33301 0 -11 -3.33301 -11 -10v-646c0 -8.66699 -4 -13 -12 -13h-72c-8 -0 -12 4.33301 -12 13v645
c0 7.33301 -3.33301 11 -10 11h-218c-8 0 -12 3.33301 -12 10v52z" />
    <glyph glyph-name="U" unicode="U" horiz-adv-x="709" 
d="M622 247c0 -59.333 -10.167 -108 -30.5 -146s-50.5 -66 -90.5 -84s-88.667 -27 -146 -27c-62.667 0 -113.667 10 -153 30s-68.333 50.333 -87 91s-28 91.667 -28 153v464c0 9.33301 4 14 12 14h72c8 0 12 -4.33301 12 -13v-486c0 -60.667 15 -105.667 45 -135
s74.333 -44 133 -44c38.667 0 71.5 6.5 98.5 19.5s47.333 32.833 61 59.5s20.5 61 20.5 103v483c0 8.66699 3.66699 13 11 13h59c7.33301 0 11 -4 11 -12v-483v0z" />
    <glyph glyph-name="V" unicode="V" horiz-adv-x="707" 
d="M651 742c4.66699 0 7.99805 -1.49902 9.99805 -4.49902s2 -6.5 0 -10.5l-253 -712c-3.33301 -10 -10.666 -15 -21.999 -15h-68c-13.333 0 -21.333 4.66699 -24 14l-248 713c-1.33301 4 -1 7.5 1 10.5s5.33301 4.5 10 4.5h69c8.66699 0 14.334 -4 17.001 -12l208 -606
c5.33301 -12.667 10.333 -12.334 15 0.999023l211 606c2 7.33301 7 11 15 11h59v0z" />
    <glyph glyph-name="W" unicode="W" horiz-adv-x="1045" 
d="M985 742c6 0 10.168 -1.66406 12.501 -4.99707s2.83301 -7.66602 1.5 -12.999l-206 -709c-3.33301 -10 -10.666 -15 -21.999 -15h-61c-12.667 0 -20.334 4.66699 -23.001 14l-160 567c-0.666992 3.33301 -1.66699 5 -3 5s-2.66602 -2 -3.99902 -6l-162 -565
c-3.33301 -10 -10.666 -15 -21.999 -15h-62c-12.667 0 -20.334 4.66699 -23.001 14l-203 710c-1.33301 5.33301 -0.833008 9.66602 1.5 12.999s6.5 5 12.5 5h64c5.33301 0 9.33301 -0.833008 12 -2.5s4.33398 -4.83398 5.00098 -9.50098l163 -582
c2 -7.33301 4.16699 -10.833 6.5 -10.5s4.16602 3.5 5.49902 9.5l166 584c1.33301 2.66699 3.16602 5.16699 5.49902 7.5s6.5 3.5 12.5 3.5h57c6 0 10.167 -0.833008 12.5 -2.5s4.16602 -4.83398 5.49902 -9.50098l164 -585c2 -6 4 -8.83301 6 -8.5s4 3.16602 6 8.49902
l165 586c0.666992 4 2.5 6.83301 5.5 8.5s6.83301 2.5 11.5 2.5h50v0z" />
    <glyph glyph-name="X" unicode="X" horiz-adv-x="688" 
d="M638 21c6 -8 7.83008 -13.5029 5.49707 -16.5029s-6.5 -4.5 -12.5 -4.5h-76c-7.33301 0 -12.666 2.66699 -15.999 8l-190 286c-4 6.66699 -7.5 10 -10.5 10s-7.16699 -4 -12.5 -12l-187 -284c-1.33301 -2.66699 -3.66602 -4.66699 -6.99902 -6s-6.66602 -2 -9.99902 -2
h-66c-5.33301 0 -9 1.5 -11 4.5s0 8.5 6 16.5l229 345c3.33301 4.66699 4.83301 8.83398 4.5 12.501s-2.16602 7.83398 -5.49902 12.501l-223 336c-2 2.66699 -2.66699 5.83398 -2 9.50098s3.33398 5.5 8.00098 5.5h81c5.33301 0 9.16602 -0.666992 11.499 -2
s4.16602 -3.66602 5.49902 -6.99902l175 -267c3.33301 -4.66699 6.5 -7 9.5 -7s6.16699 2.33301 9.5 7l175 267c2 3.33301 4.16699 5.66602 6.5 6.99902s5.5 2 9.5 2h73c4.66699 0 7.16699 -1.5 7.5 -4.5s-0.5 -5.83301 -2.5 -8.5l-222 -331c-2.66699 -4 -4 -7.5 -4 -10.5
s1.33301 -6.83301 4 -11.5l237 -355v0z" />
    <glyph glyph-name="Y" unicode="Y" horiz-adv-x="675" 
d="M624 742c4.66699 0 7.83105 -1.33398 9.49805 -4.00098s1.16699 -6 -1.5 -10l-238 -398c-2.66699 -4 -4.33398 -8 -5.00098 -12s-1 -11 -1 -21v-280c0 -11.333 -6.33301 -17 -19 -17h-60c-6.66699 0 -11 1.33301 -13 4s-3 6.33398 -3 11.001v278
c0 6.66699 -0.666992 11.667 -2 15s-3.33301 7.33301 -6 12l-241 406c-2.66699 4.66699 -3.16699 8.5 -1.5 11.5s5.83398 4.5 12.501 4.5h72c6 0 10.333 -0.833008 13 -2.5s5.33398 -4.83398 8.00098 -9.50098l186 -320c4 -7.33301 7.66699 -11.166 11 -11.499
s7 2.83398 11 9.50098l185 322c2.66699 5.33301 5.33398 8.66602 8.00098 9.99902s7 2 13 2h62v0z" />
    <glyph glyph-name="Z" unicode="Z" horiz-adv-x="631" 
d="M60 0c-4.66699 0 -8 0.831055 -10 2.49805s-3 4.83398 -3 9.50098v23c0 5.33301 0.666992 9.5 2 12.5s4.33301 7.83301 9 14.5l389 596c4 6.66699 2.33301 10 -5 10h-368c-4 0 -6.83301 0.833008 -8.5 2.5s-2.5 4.5 -2.5 8.5v53c0 6.66699 3.33301 10 10 10h500
c6 0 9 -3.33301 9 -10v-26c0 -4 -0.666992 -7.16699 -2 -9.5l-6 -10.5l-395 -602c-2 -3.33301 -2.5 -5.66602 -1.5 -6.99902s2.83301 -2 5.5 -2h387c7.33301 0 11 -3 11 -9v-55c0 -3.33301 -1 -6 -3 -8s-5 -3 -9 -3h-509v0z" />
    <glyph glyph-name="bracketleft" unicode="[" horiz-adv-x="287" 
d="M89 732c0 6.66699 4.33301 10 13 10h161c6 0 9 -2.33301 9 -7v-41c0 -5.33301 -3 -8 -9 -8h-86c-8 0 -12 -4.33301 -12 -13l-1 -772c0 -4 0.666992 -6.66699 2 -8s4.33301 -2 9 -2h85c7.33301 0 11 -3.33301 11 -10v-35c0 -7.33301 -3.66699 -11 -11 -11h-155
c-10 0 -15 4.33301 -15 13l-1 884v0z" />
    <glyph glyph-name="backslash" unicode="\" horiz-adv-x="342" 
d="M277 -43c-4.66699 0 -8.33301 0.832031 -11 2.49902s-5 4.83398 -7 9.50098l-246 757c-3.33301 10.667 -0.666016 16 8.00098 16h44c7.33301 0 11.666 -3 12.999 -9l251 -768c2 -5.33301 -0.666992 -8 -8 -8h-44v0z" />
    <glyph glyph-name="bracketright" unicode="]" horiz-adv-x="287" 
d="M197 732l-1 -884c0 -8.66699 -4.66699 -13 -14 -13h-156c-6.66699 0 -10 3.66699 -10 11v35c0 6.66699 3.33301 10 10 10h86c4 0 6.66699 0.666992 8 2s2 4 2 8v772c0 8.66699 -4 13 -12 13h-86c-6 0 -9 2.66699 -9 8v41c0 4.66699 3 7 9 7h160
c8.66699 0 13 -3.33301 13 -10z" />
    <glyph glyph-name="asciicircum" unicode="^" horiz-adv-x="476" 
d="M244 423c-2 4 -4.33398 6.00098 -7.00098 6.00098s-5 -2 -7 -6l-112 -282c-1.33301 -3.33301 -3.16602 -5.33301 -5.49902 -6s-5.5 -1 -9.5 -1h-45c-8.66699 0 -11 4.66699 -7 14l146 356c6 15.333 14 25.833 24 31.5s20.167 6 30.5 1s18.833 -15.833 25.5 -32.5
l147 -359c2.66699 -8.66699 -0.333008 -13 -9 -13h-43c-4 0 -7.5 0.666992 -10.5 2s-5.16699 3.66602 -6.5 6.99902z" />
    <glyph glyph-name="underscore" unicode="_" horiz-adv-x="518" 
d="M456 -104c0 -8.66699 -5.33301 -13 -16 -13l-365 -1c-4.66699 0 -8 1 -10 3s-3 5 -3 9v44c0 8 3 12 9 12h375c6.66699 0 10 -3.33301 10 -10v-44z" />
    <glyph glyph-name="grave" unicode="`" horiz-adv-x="285" 
d="M26 746c2.66699 5.33301 6.66699 7 12 5l232 -93c5.33301 -2 6.66602 -6.66699 3.99902 -14l-8 -22c-1.33301 -4 -3.16602 -6.5 -5.49902 -7.5s-5.83301 -1.16699 -10.5 -0.5l-228 69c-10 3.33301 -13.667 9.33301 -11 18l15 45v0z" />
    <glyph glyph-name="a" unicode="a" horiz-adv-x="548" 
d="M382 64c-24.667 -24 -51.498 -42.332 -80.498 -54.999s-61.5 -19 -97.5 -19c-52 0 -92.833 13.333 -122.5 40s-44.5 61.667 -44.5 105c0 35.333 10 65.833 30 91.5s49.667 46 89 61s87.666 24.167 144.999 27.5l78 6c4 0.666992 7.66699 2 11 4s5 5.66699 5 11v27
c0 36 -11.167 64.5 -33.5 85.5s-52.5 31.5 -90.5 31.5c-29.333 0 -55.833 -6.66699 -79.5 -20s-44.834 -33.333 -63.501 -60c-2.66699 -3.33301 -4.83398 -5.5 -6.50098 -6.5s-4.5 -0.833008 -8.5 0.5l-54 18c-2 1.33301 -3.5 3 -4.5 5s-0.166992 5.66699 2.5 11
c20 34.667 48.167 62 84.5 82s80.833 30 133.5 30c44.667 0 81.834 -6.83301 111.501 -20.5s52 -33.334 67 -59.001s22.5 -56.167 22.5 -91.5v-354c0 -6 -1 -10 -3 -12s-5.33301 -3 -10 -3h-51c-4.66699 0 -8 1.5 -10 4.5s-3.33301 6.83301 -4 11.5l-1 46
c-2 9.33301 -7 10 -15 2v0zM395.002 254.001c0 11.333 -4.66602 16.665 -13.999 15.998l-66 -6c-30.667 -1.33301 -58 -5.16602 -82 -11.499s-44.333 -14.5 -61 -24.5s-29.334 -21.833 -38.001 -35.5s-13 -29.5 -13 -47.5c0 -29.333 10.167 -52.166 30.5 -68.499
s47.833 -24.5 82.5 -24.5c21.333 0 41.833 3.83301 61.5 11.5s36.834 17.5 51.501 29.5c15.333 12.667 27.166 25.667 35.499 39s12.5 26.333 12.5 39v83v0z" />
    <glyph glyph-name="b" unicode="b" 
d="M93 0c-6 0 -10.168 1.33203 -12.501 3.99902s-3.5 6.66699 -3.5 12v712c0 9.33301 4 14 12 14h62c6.66699 0 10 -4.66699 10 -14v-245c0 -7.33301 1.33301 -11.166 4 -11.499s6.33398 1.5 11.001 5.5c6 6 15.833 14 29.5 24s31.334 19 53.001 27s47.5 12 77.5 12
c48.667 0 88.667 -12 120 -36s54.833 -56.5 70.5 -97.5s23.5 -87.167 23.5 -138.5c0 -85.333 -20 -153 -60 -203s-96 -75 -168 -75c-30.667 0 -56.834 4.66699 -78.501 14s-39.5 20.333 -53.5 33s-24.333 23.334 -31 32.001c-2.66699 3.33301 -5 4.66602 -7 3.99902
s-3.33301 -3 -4 -7l-5 -50c-1.33301 -10.667 -7.33301 -16 -18 -16h-32zM160.999 178.999c0 -24 6.83301 -45.833 20.5 -65.5s31.5 -35.167 53.5 -46.5s45 -17 69 -17c30 0 57 7.5 81 22.5s43 38.5 57 70.5s21 73 21 123c0 68 -13 120.5 -39 157.5s-63.667 55.5 -113 55.5
c-31.333 0 -59.833 -7.16699 -85.5 -21.5s-47.167 -31.833 -64.5 -52.5v-226z" />
    <glyph glyph-name="c" unicode="c" horiz-adv-x="542" 
d="M297 540c34.667 0 65.165 -5.49902 91.498 -16.499s49 -26 68 -45s34.833 -39.833 47.5 -62.5c4 -8 2.33301 -13 -5 -15l-55 -13c-4.66699 -2 -9 0 -13 6c-13.333 19.333 -26.5 35 -39.5 47s-26.833 21.167 -41.5 27.5s-30.667 9.5 -48 9.5
c-34 0 -63.833 -8.5 -89.5 -25.5s-45.5 -41.5 -59.5 -73.5s-21 -70 -21 -114c0 -44.667 7.16699 -83 21.5 -115s34.333 -56.333 60 -73s55.834 -25 90.501 -25c32 0 59.667 8 83 24s44.666 39.333 63.999 70c2 3.33301 3.83301 5.16602 5.5 5.49902
s4.16699 -0.166992 7.5 -1.5l43 -16c4.66699 -2 6 -6.33301 4 -13c-10 -17.333 -21.667 -34 -35 -50s-28.833 -30 -46.5 -42s-37.5 -21.5 -59.5 -28.5s-46.333 -10.5 -73 -10.5c-49.333 0 -92.833 11.5 -130.5 34.5s-67.167 55 -88.5 96s-32 88.5 -32 142.5
c0 54.667 10.833 102.667 32.5 144s51.334 73.833 89.001 97.5s80.834 35.5 129.501 35.5v0z" />
    <glyph glyph-name="d" unicode="d" 
d="M454 0c-4.66699 0 -8.16602 1.16602 -10.499 3.49902s-3.5 5.83301 -3.5 10.5v42c0 5.33301 -1.16699 8.33301 -3.5 9s-5.5 -1 -9.5 -5c-7.33301 -6.66699 -17.833 -15.667 -31.5 -27s-30.834 -21.333 -51.501 -30s-45.334 -13 -74.001 -13c-42 0 -79.667 10 -113 30
s-59.833 49.833 -79.5 89.5s-29.5 88.834 -29.5 147.501c0 56.667 9.83301 106.167 29.5 148.5s47.334 75.333 83.001 99s76.167 35.5 121.5 35.5c32.667 0 60 -5.33301 82 -16s41.333 -23 58 -37c6 -4.66699 10.167 -6.5 12.5 -5.5s3.5 5.16699 3.5 12.5v235
c0 8.66699 3.66699 13 11 13h61c7.33301 0 11 -4.33301 11 -13v-713c0 -6 -1 -10.167 -3 -12.5s-6.33301 -3.5 -13 -3.5h-51v0zM437.001 412.999c-20.667 20.667 -41.668 36.666 -63.001 47.999s-45.333 17 -72 17c-32 0 -60.833 -8.16699 -86.5 -24.5
s-45.667 -40.833 -60 -73.5s-21.5 -72.667 -21.5 -120c0 -48.667 7.33301 -88.5 22 -119.5s34.334 -53.667 59.001 -68s51.667 -21.5 81 -21.5c27.333 0 51.5 6.33301 72.5 19s37.667 28.334 50 47.001s18.5 37 18.5 55v241v0z" />
    <glyph glyph-name="e" unicode="e" horiz-adv-x="581" 
d="M133 232c0 -32.667 7.83594 -62.501 23.5029 -89.501s36.667 -48.5 63 -64.5s55.833 -24 88.5 -24c33.333 0 63 6.83301 89 20.5s48.333 34.5 67 62.5c2.66699 2.66699 4.83398 4.16699 6.50098 4.5s4.16699 -0.166992 7.5 -1.5l42 -21c6 -3.33301 6.66699 -8 2 -14
c-18 -26.667 -37.833 -48.5 -59.5 -65.5s-45.834 -29.5 -72.501 -37.5s-56.667 -12 -90 -12c-49.333 0 -93 11.333 -131 34s-68 54.334 -90 95.001s-33 87.667 -33 141c0 58 11.167 107.833 33.5 149.5s52.666 73.834 90.999 96.501s81.166 34 128.499 34
c48.667 0 91 -10.667 127 -32s64 -52.333 84 -93s30 -89.667 30 -147c0 -4.66699 -0.5 -9.33398 -1.5 -14.001s-5.5 -7 -13.5 -7h-383c-2.66699 0 -4.83398 -1.5 -6.50098 -4.5s-2.5 -6.5 -2.5 -10.5v0zM439.003 301.999c7.33301 0 12.001 0.833008 14.001 2.5s3 5.5 3 11.5
c0 28.667 -6.16699 55.5 -18.5 80.5s-30 45.167 -53 60.5s-50.833 23 -83.5 23c-36 0 -66.333 -8.5 -91 -25.5s-43.334 -39.167 -56.001 -66.5s-19 -56 -19 -86h304z" />
    <glyph glyph-name="f" unicode="f" horiz-adv-x="379" 
d="M345 530c3.33301 0 5.83301 -1 7.5 -3s2.5 -4.33301 2.5 -7v-43c0 -6.66699 -3.33301 -10 -10 -10h-114c-5.33301 0 -8 -2.66699 -8 -8v-445c0 -9.33301 -4 -14 -12 -14h-61c-7.33301 -0 -11 4.33301 -11 13v447c0 4.66699 -2.33301 7 -7 7h-98
c-6.66699 0 -10 3.33301 -10 10v43c0 2.66699 0.833008 5 2.5 7s4.5 3 8.5 3h95c6 0 9 3.33301 9 10v73c0 42 10.333 74 31 96s52 33 94 33h83c8.66699 0 13 -4 13 -12v-39c0 -3.33301 -0.833008 -5.83301 -2.5 -7.5s-4.5 -2.5 -8.5 -2.5h-70
c-20.667 0 -35.5 -6.5 -44.5 -19.5s-13.5 -30.5 -13.5 -52.5v-70c0 -6 3 -9 9 -9h115v0z" />
    <glyph glyph-name="g" unicode="g" horiz-adv-x="602" 
d="M556 539c6.66699 0 11.498 -1.33691 14.498 -4.00391s4.5 -6.66699 4.5 -12v-35c0 -6 -1.5 -10.667 -4.5 -14s-8.16699 -4.66602 -15.5 -3.99902c-10.667 0 -20 -0.666992 -28 -2s-16 -3.66602 -24 -6.99902c-16 -6 -22.667 -13.667 -20 -23
c3.33301 -7.33301 7 -16.166 11 -26.499s6 -24.166 6 -41.499c0 -29.333 -7.66699 -56.166 -23 -80.499s-39.166 -43.833 -71.499 -58.5s-73.166 -22 -122.499 -22c-34 0 -60.667 -2 -80 -6s-33 -9.33301 -41 -16s-12 -13.667 -12 -21
c0 -10.667 7.16699 -18.334 21.5 -23.001s37.5 -8 69.5 -10l129 -7c58.667 -3.33301 101.667 -17.333 129 -42s41 -57 41 -97c0 -50 -22.167 -89.5 -66.5 -118.5s-107.5 -43.5 -189.5 -43.5c-84.667 0 -149.167 12.167 -193.5 36.5s-66.5 59.166 -66.5 104.499
c0 23.333 8.16699 44.333 24.5 63s39.5 35.334 69.5 50.001c7.33301 3.33301 7.33301 7 0 11c-14.667 6.66699 -26 14.834 -34 24.501s-12 21.167 -12 34.5c0 9.33301 3 18.666 9 27.999s14.833 18 26.5 26s25.834 15 42.501 21c4 1.33301 6 3 6 5s-1.66699 4.33301 -5 7
c-29.333 14.667 -51 33 -65 55s-21 48.333 -21 79c0 52 19.667 93 59 123s95 45 167 45c34.667 0 64.167 -4 88.5 -12s44.833 -19 61.5 -33c4 -3.33301 7.66699 -5 11 -5s6.66602 1.66699 9.99902 5c8 7.33301 17 14.5 27 21.5s20.833 12.833 32.5 17.5s23.167 7 34.5 7v0z
M282.998 261.996c46.667 0 81.334 9.5 104.001 28.5s34 45.833 34 80.5c0 35.333 -11.333 63.166 -34 83.499s-57.334 30.5 -104.001 30.5c-44.667 0 -79.167 -10.167 -103.5 -30.5s-36.5 -48.166 -36.5 -83.499c0 -34.667 12.167 -61.5 36.5 -80.5
s58.833 -28.5 103.5 -28.5v0zM194.998 64.9961c-12 0.666992 -25.333 -2.83301 -40 -10.5s-27.667 -18.167 -39 -31.5s-17 -29 -17 -47c0 -20.667 7.16699 -38.5 21.5 -53.5s36 -26.333 65 -34s64.833 -11.5 107.5 -11.5c55.333 0 97.333 8.16699 126 24.5s43 41.5 43 75.5
c0 22 -7.5 40 -22.5 54s-40.833 22 -77.5 24z" />
    <glyph glyph-name="h" unicode="h" horiz-adv-x="584" 
d="M91 0c-8.66699 0 -12.999 4.33301 -12.999 13v716c0 8.66699 3.66699 13 11 13h59c7.33301 0 11 -4 11 -12v-267c0 -3.33301 0.666992 -5.33301 2 -6s3.66602 0.333008 6.99902 3c23.333 18 44.833 33 64.5 45s39 20.833 58 26.5s39.833 8.5 62.5 8.5
c52 0 91.667 -13.833 119 -41.5s41 -64.5 41 -110.5v-372c0 -10.667 -5 -16 -15 -16h-56c-4.66699 0 -8 1.16699 -10 3.5s-3 5.5 -3 9.5v357c0 32.667 -8.33301 58.167 -25 76.5s-43 27.5 -79 27.5c-19.333 0 -37.5 -3.16699 -54.5 -9.5s-34.167 -15.333 -51.5 -27
s-36.333 -26.5 -57 -44.5v-378c0 -10 -5.33301 -15 -16 -15h-55v0z" />
    <glyph glyph-name="i" unicode="i" horiz-adv-x="239" 
d="M161 17c0 -6.66699 -1.16797 -11.167 -3.50098 -13.5s-7.16602 -3.5 -14.499 -3.5h-51c-6 0 -10 1 -12 3s-3 5.66699 -3 11v502c0 9.33301 4 14 12 14h61c7.33301 0 11 -4.33301 11 -13v-500zM164.999 644c0 -12.667 -6 -19 -18 -19h-58c-6 0 -10 1.5 -12 4.5
s-3 7.16699 -3 12.5v84c0 10.667 4.66699 16 14 16h63c9.33301 0 14 -5 14 -15v-83z" />
    <glyph glyph-name="j" unicode="j" horiz-adv-x="239" 
d="M162 -29c0 -47.333 -10.168 -82.667 -30.501 -106s-56.833 -35 -109.5 -35c-29.333 0 -47.666 0.833008 -54.999 2.5s-11 5.16699 -11 10.5v44c0 2.66699 0.833008 5.16699 2.5 7.5s4.16699 3.5 7.5 3.5l51 3c21.333 0.666992 36.833 6.5 46.5 17.5s14.5 30.5 14.5 58.5
v539c0 9.33301 4 14 12 14h61c7.33301 0 11 -4.33301 11 -13v-546v0zM164.999 643.999c0 -12.667 -5.66699 -19 -17 -19h-59c-10 0 -15 5.66699 -15 17v84c0 10.667 4.66699 16 14 16h64c8.66699 0 13 -5 13 -15v-83z" />
    <glyph glyph-name="k" unicode="k" horiz-adv-x="564" 
d="M535 16c2.66699 -4 3.33301 -7.66699 2 -11s-5 -5 -11 -5h-70c-4 0 -7.5 1 -10.5 3s-5.5 5 -7.5 9l-151 259c-1.33301 2.66699 -2.83301 4.5 -4.5 5.5s-4.16699 -0.166992 -7.5 -3.5l-106 -107c-2.66699 -2.66699 -4.5 -5.5 -5.5 -8.5s-1.5 -6.83301 -1.5 -11.5v-129
c0 -6.66699 -1.16699 -11.167 -3.5 -13.5s-7.16602 -3.5 -14.499 -3.5h-51c-6.66699 0 -10.834 1 -12.501 3s-2.5 5.66699 -2.5 11v714c0 9.33301 3.66699 14 11 14h61c8 0 12 -4.33301 12 -13v-464c0 -5.33301 0.666992 -8.5 2 -9.5s4 0.833008 8 5.5l247 257
c7.33301 8 14.333 12 21 12h61c6.66699 0 10.5 -1.83301 11.5 -5.5s-1.16699 -8.16699 -6.5 -13.5l-158 -161c-2 -2 -3.16699 -4.33301 -3.5 -7s0.5 -6 2.5 -10l188 -317v0z" />
    <glyph glyph-name="l" unicode="l" horiz-adv-x="239" 
d="M162 17c0 -6.66699 -1.33203 -11.167 -3.99902 -13.5s-7.33398 -3.5 -14.001 -3.5h-52c-10 0 -15 4.66699 -15 14l1 714c0 9.33301 4 14 12 14h60c8 0 12 -4.33301 12 -13v-712z" />
    <glyph glyph-name="m" unicode="m" horiz-adv-x="906" 
d="M91 0c-9.33301 0 -14.0029 4.33398 -14.0029 13.001v504c0 8.66699 3.66699 13 11 13h60c6.66699 0 10 -3.66699 10 -11v-58c0 -3.33301 0.833008 -5.33301 2.5 -6s4.16699 0.333008 7.5 3c21.333 17.333 41.166 32.166 59.499 44.499s37 21.666 56 27.999
s39.5 9.5 61.5 9.5c39.333 0 70.833 -9 94.5 -27s39.5 -38.333 47.5 -61c1.33301 -2.66699 3.33301 -3.66699 6 -3s5.33398 2.33398 8.00098 5.00098c21.333 18 41.5 33.333 60.5 46s38.333 22.5 58 29.5s40.5 10.5 62.5 10.5c48.667 0 86.334 -13.833 113.001 -41.5
s40 -64.834 40 -111.501v-371c0 -10.667 -5 -16 -15 -16h-56c-4.66699 0 -8 1.16699 -10 3.5s-3 5.5 -3 9.5v357c0 32.667 -7.83301 58.167 -23.5 76.5s-40.167 27.5 -73.5 27.5c-19.333 0 -37.833 -3.66699 -55.5 -11s-33.667 -16.333 -48 -27s-27.166 -20.667 -38.499 -30
c-5.33301 -4.66699 -9 -9.16699 -11 -13.5s-3 -9.83301 -3 -16.5v-360c0 -10.667 -5 -16 -15 -16h-56c-4 0 -7.16699 1.16699 -9.5 3.5s-3.5 5.5 -3.5 9.5v357c0 32.667 -7.66699 58.167 -23 76.5s-39.666 27.5 -72.999 27.5c-28 0 -53.667 -6.66699 -77 -20
s-50 -33.666 -80 -60.999v-378c0 -10 -5 -15 -15 -15h-55v0z" />
    <glyph glyph-name="n" unicode="n" horiz-adv-x="584" 
d="M91 0c-9.33301 0 -14 4.33496 -14 13.002v504c0 8.66699 3.66699 13 11 13h60c7.33301 0 11 -3.66699 11 -11v-58c0 -3.33301 0.666992 -5.33301 2 -6s3.66602 0.333008 6.99902 3c22 17.333 42.5 32.166 61.5 44.499s38.5 21.666 58.5 27.999s41.333 9.5 64 9.5
c52 0 91.833 -14 119.5 -42s41.5 -64.333 41.5 -109v-373c0 -10.667 -5 -16 -15 -16h-56c-4.66699 0 -8 1.16699 -10 3.5s-3 5.5 -3 9.5v357c0 32.667 -8.33301 58.167 -25 76.5s-43 27.5 -79 27.5c-19.333 0 -37.5 -3.16699 -54.5 -9.5s-34.167 -15.333 -51.5 -27
s-36.666 -26.5 -57.999 -44.5v-378c0 -10 -5 -15 -15 -15h-55v0z" />
    <glyph glyph-name="o" unicode="o" 
d="M299 -10c-50 0 -94.167 11.501 -132.5 34.501s-68 55 -89 96s-31.5 88.167 -31.5 141.5c0 55.333 10.833 103.833 32.5 145.5s51.5 74.167 89.5 97.5s82 35 132 35c50.667 0 94.834 -11.833 132.501 -35.5s67 -56.334 88 -98.001s31.5 -89.5 31.5 -143.5
c0 -53.333 -10.667 -100.5 -32 -141.5s-50.833 -73.167 -88.5 -96.5s-81.834 -35 -132.501 -35v0zM301 53.001c34.667 0 64.334 8.5 89.001 25.5s43.5 41.333 56.5 73s19.5 69.5 19.5 113.5s-6.66699 81.833 -20 113.5s-32.333 56.167 -57 73.5s-54.334 26 -89.001 26
c-34 0 -63.667 -8.66699 -89 -26s-44.833 -41.833 -58.5 -73.5s-20.5 -69.5 -20.5 -113.5c0 -43.333 6.83301 -81 20.5 -113s33.167 -56.5 58.5 -73.5s55.333 -25.5 90 -25.5v0z" />
    <glyph glyph-name="p" unicode="p" horiz-adv-x="597" 
d="M146 530c9.33301 0 14.002 -5.00098 14.002 -15.001v-42c0 -5.33301 1.16699 -8.16602 3.5 -8.49902s5.5 1.16699 9.5 4.5c7.33301 8 17.333 17.5 30 28.5s29.167 20.833 49.5 29.5s46.166 13 77.499 13c40.667 0 77.5 -9.83301 110.5 -29.5s59.333 -49.167 79 -88.5
s29.5 -89 29.5 -149s-9.66699 -111 -29 -153s-46.166 -74.167 -80.499 -96.5s-74.5 -33.5 -120.5 -33.5c-30.667 0 -57.834 4.83301 -81.501 14.5s-43.834 21.5 -60.501 35.5c-6 5.33301 -10.167 7.5 -12.5 6.5s-3.5 -5.16699 -3.5 -12.5v-186
c0 -8.66699 -3.66699 -13 -11 -13h-62c-7.33301 0 -11 4.33301 -11 13v666c0 6 1.16699 10.167 3.5 12.5s6.5 3.5 12.5 3.5h53v0zM161.002 116.999c20.667 -20 41.8301 -36.0029 63.4971 -48.0029s45.834 -18 72.501 -18c32 0 60.5 8.33301 85.5 25s44.667 41.334 59 74.001
s21.5 73.334 21.5 122.001s-7.33301 88.334 -22 119.001s-34.167 53 -58.5 67s-51.166 21 -80.499 21c-27.333 0 -51.666 -6 -72.999 -18s-38 -26.833 -50 -44.5s-18 -35.167 -18 -52.5v-247v0z" />
    <glyph glyph-name="q" unicode="q" 
d="M507 530c5.33301 0 9.16699 -1.16699 11.5 -3.5s3.5 -6.83301 3.5 -13.5v-665c0 -8.66699 -4 -13 -12 -13h-61c-7.33301 0 -11 4.33301 -11 13v184c0 8 -1 12.667 -3 14s-6 -0.666992 -12 -6c-17.333 -13.333 -38.666 -25 -63.999 -35s-53.333 -15 -84 -15
c-46.667 0 -87 11.333 -121 34s-60.167 54.667 -78.5 96s-27.5 90.333 -27.5 147c0 54.667 9 102.5 27 143.5s44.167 72.833 78.5 95.5s75.5 34 123.5 34c34 0 61.667 -4.33301 83 -13s38.5 -18.5 51.5 -29.5s23.167 -20.5 30.5 -28.5c6 -6.66699 9.66699 -5.66699 11 3
l7 42c1.33301 6 3.16602 10.167 5.49902 12.5s6.5 3.5 12.5 3.5h29zM438.001 351c0 22.667 -6.16602 43.833 -18.499 63.5s-29 35.667 -50 48s-45.167 18.5 -72.5 18.5c-30 0 -57.333 -7.66699 -82 -23s-44.334 -38.833 -59.001 -70.5s-22 -71.5 -22 -119.5
c0 -46.667 7 -86.167 21 -118.5s33.333 -56.833 58 -73.5s53 -25 85 -25c26.667 0 52.167 5.66699 76.5 17s45.5 27 63.5 47v236z" />
    <glyph glyph-name="r" unicode="r" horiz-adv-x="383" 
d="M91 0c-4.66699 0 -8.16504 1.16699 -10.498 3.5s-3.5 5.5 -3.5 9.5v504c0 8.66699 3.66699 13 11 13h58c7.33301 0 11 -3.66699 11 -11v-65c0 -4 1 -6.33301 3 -7s4.66699 0.666016 8 3.99902c17.333 20.667 34.5 37.5 51.5 50.5s34.167 22.667 51.5 29
s34.666 9.5 51.999 9.5c23.333 0 35 -4.33301 35 -13v-60c0 -6.66699 -3 -9.33398 -9 -8.00098c-6 0.666992 -12.833 1.33398 -20.5 2.00098s-15.834 1 -24.501 1c-14.667 0 -30.334 -3.16699 -47.001 -9.5s-32.167 -15.166 -46.5 -26.499s-26.166 -24 -35.499 -38
s-14 -28 -14 -42v-331c0 -10 -5 -15 -15 -15h-55v0z" />
    <glyph glyph-name="s" unicode="s" horiz-adv-x="512" 
d="M395 413c-13.333 20 -32 36.3301 -56 48.9971s-52.667 19 -86 19c-36 0 -65.833 -7.66699 -89.5 -23s-35.5 -36 -35.5 -62c0 -14 5.33301 -27.167 16 -39.5s32.334 -23.833 65.001 -34.5l127 -38c46 -12.667 79.167 -31 99.5 -55s30.5 -51.667 30.5 -83
s-9.33301 -58.666 -28 -81.999s-44.334 -41.5 -77.001 -54.5s-69.667 -19.5 -111 -19.5c-52.667 0 -98.667 10.5 -138 31.5s-67.333 47.167 -84 78.5c-2 3.33301 -3 6.33301 -3 9s1.66699 5 5 7l39 22c3.33301 2 6.33301 2.83301 9 2.5s4.66699 -1.5 6 -3.5
c11.333 -17.333 24.5 -32.333 39.5 -45s33 -22.667 54 -30s45.5 -11 73.5 -11c25.333 0.666992 48.333 4.33398 69 11.001s37 16.5 49 29.5s18 28.167 18 45.5c0 18 -7.33301 33.5 -22 46.5s-40 24.5 -76 34.5l-103 29c-50 13.333 -85.167 31.333 -105.5 54
s-30.833 49.334 -31.5 80.001c0 32 8.66699 59.833 26 83.5s41.5 42.167 72.5 55.5s66.5 20 106.5 20c44.667 0 84.5 -8.5 119.5 -25.5s61.5 -39.5 79.5 -67.5c2 -2.66699 3 -5.16699 3 -7.5s-1.33301 -4.5 -4 -6.5l-42 -23c-2.66699 -1.33301 -5.16699 -1.83301 -7.5 -1.5
s-4.83301 1.83301 -7.5 4.5v0z" />
    <glyph glyph-name="t" unicode="t" horiz-adv-x="387" 
d="M217 467c-5.33301 0 -8.00098 -2.66797 -8.00098 -8.00098v-317c0 -31.333 5.33301 -52.333 16 -63s26.667 -16 48 -16h69c3.33301 0 6 -0.833008 8 -2.5s3 -4.5 3 -8.5l-1 -34c0 -6.66699 -4 -11 -12 -13c-6.66699 -1.33301 -16.167 -2.33301 -28.5 -3
s-24.333 -1.16699 -36 -1.5s-21.5 -0.5 -29.5 -0.5c-42 0 -72.667 9.83301 -92 29.5s-29 50.834 -29 93.501v334c0 6.66699 -3.33301 10 -10 10h-80c-7.33301 0 -11 3.66699 -11 11v42c0 6.66699 3.33301 10 10 10h85c4.66699 0 7 2.66699 7 8l11 159
c0.666992 8.66699 4.33398 13 11.001 13h50c8 0 12 -4.66699 12 -14v-158c0 -5.33301 2.66699 -8 8 -8h126c7.33301 0 11 -3 11 -9v-43c0 -7.33301 -3.66699 -11 -11 -11h-127z" />
    <glyph glyph-name="u" unicode="u" horiz-adv-x="579" 
d="M257 56c28.667 0 56.166 7.83203 82.499 23.499s52.5 36.834 78.5 63.501v372c0 10 5.33301 15 16 15h55c9.33301 0 14 -4.66699 14 -14l-2 -503c0 -8.66699 -3.66699 -13 -11 -13h-58c-7.33301 0 -11 3.66699 -11 11v59c0 3.33301 -0.666992 5.33301 -2 6
s-3.66602 -0.333008 -6.99902 -3c-36.667 -31.333 -69.167 -53 -97.5 -65s-56.5 -18 -84.5 -18c-30.667 0 -58 6.33301 -82 19s-43 30.5 -57 53.5s-21 49.833 -21 80.5v371c0 10.667 5 16 15 16h56c8.66699 0 13 -4.66699 13 -14v-351c0 -32.667 9.16699 -59 27.5 -79
s43.5 -30 75.5 -30v0z" />
    <glyph glyph-name="v" unicode="v" horiz-adv-x="547" 
d="M508 530c4.66699 0 8.00098 -1.49902 10.001 -4.49902s2 -6.5 0 -10.5l-203 -500c-3.33301 -10 -11 -15 -23 -15h-36c-12.667 0 -21 4.66699 -25 14l-202 501c-1.33301 4 -1 7.5 1 10.5s5.33301 4.5 10 4.5h62c4 0 7.33301 -0.833008 10 -2.5s4.66699 -4.5 6 -8.5
l157 -393c4.66699 -12.667 10 -12.334 16 0.999023l156 392c1.33301 4 3.16602 6.83301 5.49902 8.5s5.5 2.5 9.5 2.5h46v0z" />
    <glyph glyph-name="w" unicode="w" horiz-adv-x="796" 
d="M755 530c4 0 7 -1.49805 9 -4.49805s2.33301 -6.5 1 -10.5l-153 -502c-1.33301 -4.66699 -3.5 -8 -6.5 -10s-7.16699 -3 -12.5 -3h-48c-11.333 0 -18.333 4.33301 -21 13l-119 374c-2.66699 6 -5 9 -7 9s-3.66699 -3 -5 -9l-113 -374c-1.33301 -4.66699 -3.5 -8 -6.5 -10
s-7.16699 -3 -12.5 -3h-51c-10.667 0 -17.667 4.33301 -21 13l-158 502c-0.666992 4 0 7.5 2 10.5s5.33301 4.5 10 4.5h59c4 0 7.33301 -0.833008 10 -2.5s4.66699 -4.5 6 -8.5l119 -389c2 -6.66699 4.33301 -9.83398 7 -9.50098s5.33398 3.83301 8.00098 10.5l118 389
c1.33301 3.33301 3.16602 5.83301 5.49902 7.5s5.16602 2.5 8.49902 2.5h47c4 0 7.33301 -0.833008 10 -2.5s4.33398 -4.5 5.00098 -8.5l123 -389c2 -6.66699 4.33301 -9.83398 7 -9.50098s5 3.83301 7 10.5l115 388c2 4 4.33301 6.83301 7 8.5s6 2.5 10 2.5h40v0z" />
    <glyph glyph-name="x" unicode="x" horiz-adv-x="544" 
d="M510 21c5.33301 -8 7.66797 -13.501 7.00098 -16.501s-4.33398 -4.5 -11.001 -4.5h-70c-10 0 -17 3 -21 9l-141 194c-3.33301 4.66699 -6.16602 7.16699 -8.49902 7.5s-5.16602 -2.16699 -8.49902 -7.5l-147 -194c-4 -6 -11 -9 -21 -9h-47
c-6.66699 0 -11.334 1.83301 -14.001 5.5s-0.333984 9.83398 6.99902 18.501l182 232c3.33301 4.66699 4.83301 8.5 4.5 11.5s-1.83301 6.5 -4.5 10.5l-175 236c-2 3.33301 -2.16699 6.83301 -0.5 10.5s4.83398 5.5 9.50098 5.5h67c5.33301 0 9.16602 -0.666992 11.499 -2
s4.83301 -3.66602 7.5 -6.99902l135 -183c5.33301 -7.33301 10.333 -7.33301 15 0l131 183c2.66699 3.33301 5.33398 5.66602 8.00098 6.99902s6.66699 2 12 2h52c6 0 9.16699 -1.5 9.5 -4.5s-0.833984 -6.16699 -3.50098 -9.5l-169 -226
c-3.33301 -4 -4.83301 -7.66699 -4.5 -11s1.83301 -7 4.5 -11l183 -247v0z" />
    <glyph glyph-name="y" unicode="y" horiz-adv-x="530" 
d="M106 -165c-19.333 0 -34.3369 0.665039 -45.0039 1.99805s-16 5 -16 11v39c0 4.66699 1.83301 8 5.5 10s11.167 3 22.5 3h63c14.667 0 28 4.83301 40 14.5s22 21.834 30 36.501s13.333 29.5 16 44.5s1.66699 28.167 -3 39.5l-191 478
c-1.33301 4.66699 -1.16602 8.66699 0.500977 12s5.16699 5 10.5 5h62c4 0 7.33301 -0.833008 10 -2.5s4.66699 -4.5 6 -8.5l149 -388c2.66699 -6 5.66699 -9 9 -9s6.33301 4 9 12l147 385c2 4 4 6.83301 6 8.5s4.66699 2.5 8 2.5h47c4.66699 0 8 -1.5 10 -4.5
s2 -6.5 0 -10.5l-220 -562c-9.33301 -24 -19.666 -43.667 -30.999 -59s-24.166 -27.166 -38.499 -35.499s-30.166 -14.333 -47.499 -18s-37 -5.5 -59 -5.5v0z" />
    <glyph glyph-name="z" unicode="z" horiz-adv-x="482" 
d="M43 0c-4.66699 0 -7.83301 0.831055 -9.5 2.49805s-2.5 4.83398 -2.5 9.50098v29c0 5.33301 0.833008 9.83301 2.5 13.5s4.83398 8.83398 9.50098 15.501l291 391c5.33301 6.66699 3.66602 10 -5.00098 10h-265c-4 0 -6.83301 0.833008 -8.5 2.5s-2.5 4.5 -2.5 8.5v37
c0 7.33301 3.33301 11 10 11h370c6 0 9 -3.33301 9 -10v-32c0 -4.66699 -0.666992 -9 -2 -13s-4 -8.66699 -8 -14l-292 -391c-5.33301 -7.33301 -4.33301 -11 3 -11h294c7.33301 0 11 -3 11 -9v-38c0 -4 -1 -7 -3 -9s-5.33301 -3 -10 -3h-392v0z" />
    <glyph glyph-name="braceleft" unicode="{" horiz-adv-x="305" 
d="M116 639c0 21.333 5.33008 39.6641 15.9971 54.9971s25.667 27.166 45 35.499s41.666 12.5 66.999 12.5h37c6 0 9 -2.33301 9 -7v-41c0 -5.33301 -3 -8 -9 -8h-25c-17.333 0 -30.666 -2.16699 -39.999 -6.5s-15.666 -10.333 -18.999 -18s-5 -17.167 -5 -28.5v-221
c-0.666992 -26 -5.66699 -47.333 -15 -64s-21.5 -29.5 -36.5 -38.5s-31.167 -14.5 -48.5 -16.5c-4 -0.666992 -6.16699 -1.66699 -6.5 -3s1.83398 -2.33301 6.50098 -3c16.667 -1.33301 32.5 -6.16602 47.5 -14.499s27.333 -20.666 37 -36.999s14.834 -38.5 15.501 -66.5
v-223c0 -18.667 4.5 -32.5 13.5 -41.5s25.833 -13.5 50.5 -13.5h23c7.33301 0 11 -3.33301 11 -10v-35c0 -7.33301 -3.66699 -11 -11 -11h-34c-26 0 -48.667 4.33301 -68 13s-34.333 20.834 -45 36.501s-16 33.834 -16 54.501v225c0 16 -4 31.667 -12 47
s-20.167 27.833 -36.5 37.5s-36.833 14.5 -61.5 14.5c-4 0 -6 3.33301 -6 10v34c0 6.66699 2 10 6 10c37.333 0.666992 65 10.667 83 30s27 44 27 74v218v0z" />
    <glyph glyph-name="bar" unicode="|" horiz-adv-x="261" 
d="M110 -165c-8 0 -12 4.33301 -12 13l-1 987c0 4 0.833008 7 2.5 9s4.5 3 8.5 3h44c8 0 12 -4 12 -12v-989c0 -7.33301 -3.66699 -11 -11 -11h-43z" />
    <glyph glyph-name="braceright" unicode="}" horiz-adv-x="305" 
d="M189 639l-0.00195312 -217.998c0 -30 9 -54.667 27 -74s45.667 -29.333 83 -30c4 0 6 -3.33301 6 -10v-34c0 -6.66699 -2 -10 -6 -10c-24.667 0 -45.167 -4.83301 -61.5 -14.5s-28.5 -22.167 -36.5 -37.5s-12 -31 -12 -47v-225c0 -20.667 -5.16699 -38.834 -15.5 -54.501
s-25.166 -27.834 -44.499 -36.501s-42.333 -13 -69 -13h-34c-7.33301 0 -11 3.66699 -11 11v35c0 6.66699 3.66699 10 11 10h23c25.333 0 42.5 4.5 51.5 13.5s13.5 22.833 13.5 41.5v223c0 28 4.83301 50.167 14.5 66.5s22.167 28.666 37.5 36.999s31 13.166 47 14.499
c4.66699 0.666992 6.83398 1.66699 6.50098 3s-2.5 2.33301 -6.5 3c-16.667 2 -32.667 7.5 -48 16.5s-27.666 21.833 -36.999 38.5s-14 38 -14 64v221c0 11.333 -1.83301 20.833 -5.5 28.5s-10.167 13.667 -19.5 18s-22.333 6.5 -39 6.5h-26c-6 0 -9 2.66699 -9 8v41
c0 4.66699 3 7 9 7h37c25.333 0 47.666 -4.16699 66.999 -12.5s34.333 -20.166 45 -35.499s16 -33.666 16 -54.999z" />
    <glyph glyph-name="asciitilde" unicode="~" horiz-adv-x="568" 
d="M502 372c-10 -14 -25.168 -26.3311 -45.501 -36.998s-45.166 -16 -74.499 -16c-20 0 -37.833 2.5 -53.5 7.5s-30.5 11 -44.5 18s-28.167 13 -42.5 18s-30.166 7.5 -47.499 7.5c-24 0 -44.167 -5 -60.5 -15s-30.5 -20.667 -42.5 -32c-2.66699 -2.66699 -5 -4 -7 -4
s-3.66699 2 -5 6l-17 32c-2.66699 5.33301 -1.66699 10 3 14c17.333 16 35.833 29.833 55.5 41.5s43.5 17.5 71.5 17.5c19.333 0 36.833 -2.66699 52.5 -8s30.667 -11.333 45 -18s29 -12.667 44 -18s31.167 -8 48.5 -8c24 0 43 4.5 57 13.5s25.667 18.833 35 29.5
c6 7.33301 11.333 6.66602 16 -2.00098l15 -30c2 -2.66699 2.66699 -5.33398 2 -8.00098s-2.33398 -5.66699 -5.00098 -9v0z" />
    <glyph glyph-name="uni00A0" unicode="&#xa0;" horiz-adv-x="214" 
 />
    <glyph glyph-name="exclamdown" unicode="&#xa1;" horiz-adv-x="244" 
d="M174 430c0 -7.33301 -3.33301 -11 -10 -11h-83c-6.66699 0 -10 4 -10 12v85c0 9.33301 5 14 15 14h69c12.667 0 19 -5.33301 19 -16v-84v0zM173 -155c0.666992 -2.66699 0 -5 -2 -7s-4.33301 -3 -7 -3h-82c-2.66699 0 -5 0.833008 -7 2.5s-2.66699 4.5 -2 8.5l21 492
c0 4 1 7 3 9s5.33301 3 10 3h29c5.33301 0 9.33301 -1 12 -3s4 -5.66699 4 -11l21 -491v0z" />
    <glyph glyph-name="cent" unicode="&#xa2;" horiz-adv-x="558" 
d="M323 17c0 -11.333 -6 -17 -18 -17h-30c-11.333 -0 -17 5.33301 -17 16v111c0 10 5.33301 15 16 15h35c9.33301 0 14 -4.33301 14 -13v-112v0zM323 618c0 -12 -6 -18 -18 -18h-30c-11.333 0 -17 5.33301 -17 16v111c0 10 5.33301 15 16 15h35
c9.33301 0 14 -4.33301 14 -13v-111v0zM297 651c34.667 0 65.165 -5.49902 91.498 -16.499s49 -26 68 -45s34.833 -39.833 47.5 -62.5c4 -8 2.33301 -13 -5 -15l-55 -13c-4.66699 -2 -9 0 -13 6c-13.333 19.333 -26.5 35 -39.5 47s-26.833 21.167 -41.5 27.5
s-30.667 9.5 -48 9.5c-34 0 -63.833 -8.5 -89.5 -25.5s-45.5 -41.5 -59.5 -73.5s-21 -70 -21 -114c0 -44.667 7.16699 -83 21.5 -115s34.333 -56.333 60 -73s55.834 -25 90.501 -25c32 0 59.667 8 83 24s44.666 39.333 63.999 70c2 3.33301 3.83301 5.16602 5.5 5.49902
s4.16699 -0.166992 7.5 -1.5l43 -16c4.66699 -2 6 -6.33301 4 -13c-10 -17.333 -21.667 -34 -35 -50s-28.833 -30 -46.5 -42s-37.5 -21.5 -59.5 -28.5s-46.333 -10.5 -73 -10.5c-49.333 0 -92.833 11.5 -130.5 34.5s-67.167 55 -88.5 96s-32 88.5 -32 142.5
c0 54.667 10.833 102.667 32.5 144s51.334 73.833 89.001 97.5s80.834 35.5 129.501 35.5v0z" />
    <glyph glyph-name="sterling" unicode="&#xa3;" horiz-adv-x="615" 
d="M23 0c-7.33301 0 -11 3.66797 -11 11.001v53c0 6 3 9 9 9h30c26.667 -0.666992 49 10.833 67 34.5s27 61.167 27 112.5c0 15.333 -1 33.333 -3 54s-4.66699 45 -8 73c-0.666992 4.66699 -3 7 -7 7h-90c-5.33301 0 -8 2.66699 -8 8v40c0 5.33301 2.66699 8 8 8h77
c6 0 8.33301 2.66699 7 8l-14 75c-8.66699 40.667 -9 77 -1 109s22 59.167 42 81.5s44.333 39.333 73 51s59.334 17.5 92.001 17.5c29.333 0 57.333 -4.66699 84 -14s50.5 -22.333 71.5 -39s35.833 -36 44.5 -58c1.33301 -2.66699 1.16602 -4.66699 -0.500977 -6
s-4.16699 -2.66602 -7.5 -3.99902l-54 -19c-7.33301 -2.66699 -12 -1.33398 -14 3.99902c-10 18.667 -24 33.667 -42 45s-42 17 -72 17c-24 0 -45.833 -4.66699 -65.5 -14s-35.167 -22.833 -46.5 -40.5s-17 -39.5 -17 -65.5c0 -22.667 2.5 -47.334 7.5 -74.001
s10.167 -48.667 15.5 -66c1.33301 -5.33301 4 -8 8 -8h155c4.66699 0 7 -2 7 -6v-42c0 -4.66699 -2.33301 -7 -7 -7h-144c-6 0 -8.66699 -3 -8 -9c2.66699 -18.667 4.66699 -37 6 -55s1.33301 -36.667 0 -56c-0.666992 -29.333 -4.16699 -54.333 -10.5 -75
s-13.166 -37.167 -20.499 -49.5s-14 -21.5 -20 -27.5c-2.66699 -3.33301 -3.66699 -5.66602 -3 -6.99902s2.66699 -2 6 -2h175c33.333 0 60.833 5.5 82.5 16.5s38.167 30.167 49.5 57.5c2.66699 6 7.33398 8 14.001 6l50 -13c7.33301 -2.66699 10 -6.66699 8 -12
c-14.667 -42.667 -39.334 -74.834 -74.001 -96.501s-76.334 -32.5 -125.001 -32.5h-343v0z" />
    <glyph glyph-name="currency" unicode="&#xa4;" horiz-adv-x="537" 
d="M268 183c-38.667 0 -73.668 10.335 -105.001 31.002c-5.33301 3.33301 -10 3 -14 -1l-44 -45c-6 -6 -12.667 -6 -20 0l-23 25c-6 6 -6 11.667 0 17l44 45c4 4.66699 4 10.334 0 17.001c-8.66699 14.667 -15.5 30.334 -20.5 47.001s-7.5 34.667 -7.5 54
s2.66699 37.833 8 55.5s13 33.834 23 48.501c2.66699 5.33301 2 9.66602 -2 12.999l-44 45c-5.33301 6.66699 -5.33301 13 0 19l24 24c6 6.66699 12 7 18 1l45 -46c4 -3.33301 8.66699 -3.66602 14 -0.999023c14.667 9.33301 30.834 16.833 48.501 22.5
s35.834 8.5 54.501 8.5c38.667 0 73.667 -10.667 105 -32c4.66699 -2.66699 8.66699 -2.33398 12 0.999023l48 48c4.66699 4.66699 8.66699 4.66699 12 0l31 -31c3.33301 -4 3.33301 -8 0 -12l-49 -49c-2.66699 -2.66699 -3 -6.33398 -1 -11.001
c10 -14.667 17.833 -30.834 23.5 -48.501s8.5 -36.167 8.5 -55.5s-2.66699 -37.833 -8 -55.5s-13.333 -33.834 -24 -48.501c-2.66699 -4 -2.33398 -7.66699 0.999023 -11l49 -48c4 -4.66699 4 -9 0 -13l-30 -31c-4 -4 -8 -4 -12 0l-47 48c-4.66699 4 -8.66699 4.66699 -12 2
c-15.333 -10.667 -31.833 -18.834 -49.5 -24.501s-36.5 -8.5 -56.5 -8.5v0zM268.999 249.002c24 0 45.333 5.66699 64 17s33.334 26.5 44.001 45.5s16 39.5 16 61.5s-5.33301 42.5 -16 61.5s-25.334 34.167 -44.001 45.5s-40 17 -64 17c-23.333 0 -44.5 -5.66699 -63.5 -17
s-34 -26.5 -45 -45.5s-16.5 -39.5 -16.5 -61.5s5.5 -42.5 16.5 -61.5s26 -34.167 45 -45.5s40.167 -17 63.5 -17v0z" />
    <glyph glyph-name="yen" unicode="&#xa5;" horiz-adv-x="609" 
d="M590 742c4.66699 0 7.83496 -1.33203 9.50195 -3.99902s1.16699 -6 -1.5 -10l-236 -392c-2.66699 -4 -4.16699 -8 -4.5 -12s-0.5 -11 -0.5 -21v-286c0 -11.333 -6.66699 -17 -20 -17h-60c-6.66699 0 -11 1.33301 -13 4s-3 6.33398 -3 11.001v281
c0 6.66699 -0.666992 11.667 -2 15s-3.33301 7.33301 -6 12l-240 403c-2.66699 4.66699 -3 8.5 -1 11.5s6 4.5 12 4.5h75c6 0 10.333 -0.833008 13 -2.5s5.33398 -4.83398 8.00098 -9.50098l185 -321c3.33301 -6 6.16602 -9.16699 8.49902 -9.5s5.16602 2.5 8.49902 8.5
l188 322c3.33301 5.33301 6.16602 8.66602 8.49902 9.99902s6.5 2 12.5 2h59v0zM514.001 303.001c0 -8.66699 -5.66699 -13.001 -17 -13.001l-381 -1c-4.66699 0 -8 0.833008 -10 2.5s-3 4.83398 -3 9.50098v32c0 7.33301 3 11 9 11l392 1c6.66699 0 10 -3.33301 10 -10v-32
zM514.001 155c0 -9.33301 -5.66699 -14.001 -17 -14.001h-381c-4.66699 0 -8 0.833008 -10 2.5s-3 4.83398 -3 9.50098v32c0 7.33301 3 11 9 11l392 1c6.66699 0 10 -3.33301 10 -10v-32z" />
    <glyph glyph-name="brokenbar" unicode="&#xa6;" horiz-adv-x="261" 
d="M110 437c-8 0 -12 4.33301 -12 13l-1 385c0 4 0.833008 7 2.5 9s4.5 3 8.5 3h44c8 0 12 -4 12 -12v-387c0 -7.33301 -3.66699 -11 -11 -11h-43zM110 -165c-8 0 -12 4.33301 -12 13l-1 384c0 4.66699 0.833008 8 2.5 10s4.5 3 8.5 3h44c8 0 12 -4.33301 12 -13v-386
c0 -7.33301 -3.66699 -11 -11 -11h-43z" />
    <glyph glyph-name="section" unicode="&#xa7;" horiz-adv-x="488" 
d="M355 204c31.333 -17.333 55.1699 -36.5 71.5029 -57.5s24.5 -45.5 24.5 -73.5c0 -27.333 -8 -52.166 -24 -74.499s-38.833 -39.833 -68.5 -52.5s-64.834 -19 -105.501 -19c-47.333 0 -90.166 10 -128.499 30s-66.5 46 -84.5 78c-2 4 -2.66699 7.16699 -2 9.5
s1.33398 3.83301 2.00098 4.5l43 23c3.33301 2 6.16602 2.5 8.49902 1.5s4.5 -2.83301 6.5 -5.5c15.333 -22.667 36.166 -41.667 62.499 -57s57.5 -23 93.5 -23c33.333 0 61.166 6.66699 83.499 20s33.5 32.666 33.5 57.999c0 17.333 -7 34 -21 50s-41.333 31.667 -82 47
l-90 35c-46 17.333 -79.167 38 -99.5 62s-30.5 52.333 -30.5 85c0 31.333 9.66699 58.5 29 81.5s43.666 40.167 72.999 51.5c-26.667 14 -47.334 28.167 -62.001 42.5s-24.667 29 -30 44s-8 30.5 -8 46.5c0 26.667 7.83301 50.667 23.5 72s37.667 38.166 66 50.499
s61.833 18.5 100.5 18.5c43.333 0 81.5 -9.33301 114.5 -28s57.5 -40.334 73.5 -65.001c2.66699 -4 3.66699 -7 3 -9s-2 -3.66699 -4 -5l-39 -22c-4 -1.33301 -7.16699 -1.83301 -9.5 -1.5s-4.83301 1.83301 -7.5 4.5c-15.333 18 -33.333 33.333 -54 46s-44.667 19 -72 19
c-36 0 -64.167 -6.66699 -84.5 -20s-30.5 -31 -30.5 -53c0 -14 5.5 -28.333 16.5 -43s33.833 -29 68.5 -43l85 -34c53.333 -21.333 91.333 -45.166 114 -71.499s34 -57.166 34 -92.499c0 -34 -9.16699 -61.167 -27.5 -81.5s-40.166 -36.5 -65.499 -48.5v0zM277.004 239
c17.333 -1.33301 33.167 1.49902 47.5 8.49902s25.833 17 34.5 30s13 27.167 13 42.5c0 20.667 -5.33301 39.167 -16 55.5s-35 32.5 -73 48.5l-57 22c-19.333 -1.33301 -36.833 -6.5 -52.5 -15.5s-28 -20 -37 -33s-13.5 -26.833 -13.5 -41.5
c0 -18.667 5.83301 -34.667 17.5 -48s36.167 -27.666 73.5 -42.999l63 -26v0z" />
    <glyph glyph-name="dieresis" unicode="&#xa8;" horiz-adv-x="250" 
d="M94 647c0 -6 -1.16699 -10 -3.5 -12s-6.83301 -3 -13.5 -3h-53c-5.33301 0 -9 1 -11 3s-3 5.33301 -3 10v84c0 8.66699 3.66699 13 11 13h62c7.33301 0 11 -4 11 -12v-83zM240 647c0 -6 -1.16699 -10 -3.5 -12s-6.83301 -3 -13.5 -3h-52c-6 0 -9.83301 1 -11.5 3
s-2.5 5.33301 -2.5 10v84c0 8.66699 3.66699 13 11 13h61c7.33301 0 11 -4 11 -12v-83z" />
    <glyph glyph-name="copyright" unicode="&#xa9;" horiz-adv-x="830" 
d="M415 -10c-52.667 0 -102 9.83301 -148 29.5s-86.5 46.834 -121.5 81.501s-62.333 75.167 -82 121.5s-29.5 95.833 -29.5 148.5s9.83301 102 29.5 148s47 86.5 82 121.5s75.5 62.333 121.5 82s95.333 29.5 148 29.5s102 -9.83301 148 -29.5s86.5 -47 121.5 -82
s62.333 -75.5 82 -121.5s29.5 -95.333 29.5 -148s-9.83301 -102.167 -29.5 -148.5s-47 -86.833 -82 -121.5s-75.5 -61.834 -121.5 -81.501s-95.333 -29.5 -148 -29.5v0zM415 50c43.333 0 84.166 7.33301 122.499 22s72.166 36.167 101.499 64.5s52.333 62.333 69 102
s25 83.834 25 132.501c0 48 -8.33301 91.833 -25 131.5s-39.667 73.834 -69 102.501s-63.166 50.5 -101.499 65.5s-79.166 22.5 -122.499 22.5c-44 0 -85.333 -7.5 -124 -22.5s-72.5 -36.833 -101.5 -65.5s-51.667 -62.834 -68 -102.501s-24.5 -83.5 -24.5 -131.5
c0 -48.667 8.16699 -92.834 24.5 -132.501s39 -73.667 68 -102s62.833 -49.833 101.5 -64.5s80 -22 124 -22v0zM417 588c27.333 0 51.3311 -4.66895 71.998 -14.002s38.5 -21.833 53.5 -37.5s27.833 -32.5 38.5 -50.5c1.33301 -3.33301 1.5 -5.66602 0.5 -6.99902
s-2.5 -2.33301 -4.5 -3l-49 -14c-4 -1.33301 -7.33301 0.666992 -10 6c-12 20 -25.833 35.833 -41.5 47.5s-34.167 17.5 -55.5 17.5c-36.667 0 -66.5 -14.167 -89.5 -42.5s-34.5 -67.166 -34.5 -116.499s11.833 -88.333 35.5 -117s53.834 -43 90.501 -43
c26 0 48.333 7 67 21s33.667 31.667 45 53c2 4 6 4.66699 12 2l34 -13c4 -1.33301 5 -4.66602 3 -9.99902c-7.33301 -14 -16.166 -27.333 -26.499 -40s-22.5 -24.167 -36.5 -34.5s-29.667 -18.333 -47 -24s-36.333 -8.5 -57 -8.5c-38 0 -71.667 8.83301 -101 26.5
s-52.166 42.5 -68.499 74.5s-24.5 69 -24.5 111c0 42.667 8.33301 80.167 25 112.5s39.667 57.666 69 75.999s62.666 27.5 99.999 27.5v0z" />
    <glyph glyph-name="ordfeminine" unicode="&#xaa;" horiz-adv-x="400" 
d="M188 750c44.667 0 77.8281 -9.99902 99.4951 -29.999s32.5 -47.333 32.5 -82v-165c0 -10 0.333008 -18.167 1 -24.5s3 -14.833 7 -25.5c2 -4 1.5 -6.83301 -1.5 -8.5s-6.5 -2.5 -10.5 -2.5h-39c-3.33301 0 -5.66602 0.666992 -6.99902 2
s-2.66602 3.66602 -3.99902 6.99902l-4 28c-1.33301 5.33301 -5 5.66602 -11 0.999023c-16.667 -14.667 -32.834 -25.667 -48.501 -33s-34.167 -11 -55.5 -11c-34.667 0 -61.667 8.16699 -81 24.5s-29 38.833 -29 67.5c0 32.667 13.833 58.334 41.5 77.001
s68.834 30 123.501 34l48 5c7.33301 0.666992 11 4 11 10v15c0 44 -25.667 66 -77 66c-17.333 0 -32.666 -3.16699 -45.999 -9.5s-25.666 -18.166 -36.999 -35.499c-2 -3.33301 -5.33301 -4.33301 -10 -3l-40 12c-1.33301 0.666992 -2.16602 2.16699 -2.49902 4.5
s0.166992 4.16602 1.5 5.49902c11.333 22.667 28.333 40.167 51 52.5s51.667 18.5 87 18.5v0zM98.9941 501.001c0 -15.333 6.16895 -27.8311 18.502 -37.498s29.166 -14.5 50.499 -14.5c26 0 49 9 69 27c7.33301 6.66699 13.166 13.667 17.499 21s6.5 14.666 6.5 21.999v45
c0 7.33301 -3.33301 10.666 -10 9.99902l-41 -3c-36 -2.66699 -63.5 -10 -82.5 -22s-28.5 -28 -28.5 -48v0z" />
    <glyph glyph-name="guillemotleft" unicode="&#xab;" horiz-adv-x="446" 
d="M395 80c2.66699 -4.66699 -0.334961 -7.00098 -9.00195 -7.00098h-29c-4.66699 0 -8 2 -10 6l-125 167c-5.33301 7.33301 -5.66602 14.333 -0.999023 21l127 177c1.33301 2.66699 2.66602 4.33398 3.99902 5.00098s3 1 5 1h31c2.66699 0 4.83398 -0.833008 6.50098 -2.5
s1.83398 -4.16699 0.500977 -7.5l-98 -175c-2.66699 -6 -2.66699 -11.333 0 -16zM216.998 79.999c2.66699 -4.66699 -0.336914 -7.00098 -9.00391 -7.00098h-29c-5.33301 0 -8.66602 2 -9.99902 6l-126 167c-5.33301 7.33301 -5.66602 14.333 -0.999023 21l127 177
c2 2.66699 3.66699 4.33398 5 5.00098s3 1 5 1h31c2.66699 0 4.83398 -0.833008 6.50098 -2.5s1.83398 -4.16699 0.500977 -7.5l-99 -175c-2.66699 -6 -2.66699 -11.333 0 -16z" />
    <glyph glyph-name="logicalnot" unicode="&#xac;" horiz-adv-x="557" 
d="M496 353c0 -8.66699 -5.33301 -13 -16 -13l-405 -1c-4.66699 0 -8 1 -10 3s-3 5 -3 9v43c0 8 3 12 9 12h415c6.66699 0 10 -3.33301 10 -10v-43zM496 207c0 -8.66699 -4.33301 -13 -13 -13h-46c-8 0 -12 3.33301 -12 10l-1 173c0 6.66699 3 10 9 10h53
c6.66699 0 10 -4 10 -12v-168z" />
    <glyph glyph-name="uni00AD" unicode="&#xad;" horiz-adv-x="381" 
d="M319 245c0 -9.33301 -5.66699 -14.001 -17 -14.001h-227c-4.66699 0 -8 0.833008 -10 2.5s-3 4.83398 -3 9.50098v44c0 7.33301 3 11 9 11l238 1c6.66699 0 10 -3.33301 10 -10v-44z" />
    <glyph glyph-name="registered" unicode="&#xae;" horiz-adv-x="545" 
d="M273 275c-44 0 -84.167 10.667 -120.5 32s-65.166 50 -86.499 86s-32 76 -32 120s10.667 84 32 120s50.166 64.833 86.499 86.5s76.5 32.5 120.5 32.5s84 -10.833 120 -32.5s64.667 -50.5 86 -86.5s32 -76 32 -120s-10.667 -84 -32 -120s-50 -64.667 -86 -86
s-76 -32 -120 -32v0zM273 320c37.333 0 70.333 7.83301 99 23.5s51 38 67 67s24 63.167 24 102.5s-8 73.5 -24 102.5s-38.333 51.5 -67 67.5s-61.667 24 -99 24c-38 0 -71.333 -8 -100 -24s-51 -38.5 -67 -67.5s-24 -63.167 -24 -102.5s8 -73.5 24 -102.5
s38.333 -51.333 67 -67s62 -23.5 100 -23.5v0zM362 400c0.666992 -2 0.499023 -3.66699 -0.500977 -5s-2.16699 -2 -3.5 -2h-35c-2 0 -3.66699 1.33301 -5 4l-38 102c-0.666992 1.33301 -1 2.33301 -1 3s-2 1 -6 1h-46c-2.66699 0 -4 -1.33301 -4 -4v-100
c0 -4 -1.66699 -6 -5 -6h-31c-3.33301 0 -5 1.66699 -5 5v227c0 3.33301 1 5 3 5h103c25.333 0 45 -5 59 -15s21 -25 21 -45c0 -18.667 -4.83301 -32.667 -14.5 -42s-20.5 -16 -32.5 -20c-1.33301 0 -1.66602 -1 -0.999023 -3l42 -105v0zM281.999 536
c12 0 22.167 2.33203 30.5 6.99902s12.5 12.334 12.5 23.001c0 8.66699 -3.16699 16 -9.5 22s-18.5 9 -36.5 9h-51c-2 0 -3.33301 0.166992 -4 0.5s-1 -1.16699 -1 -4.5v-53c0 -2.66699 1.33301 -4 4 -4h55v0z" />
    <glyph glyph-name="macron" unicode="&#xaf;" horiz-adv-x="316" 
d="M306 679c0 -8.66699 -5 -13 -15 -13h-270c-4 0 -6.83301 1 -8.5 3s-2.5 5 -2.5 9v39c0 7.33301 2.66699 11 8 11h280c5.33301 0 8 -3.33301 8 -10v-39z" />
    <glyph glyph-name="degree" unicode="&#xb0;" horiz-adv-x="464" 
d="M391 699c0 -31.333 -7 -59 -21 -83s-33 -42.667 -57 -56s-51 -20 -81 -20s-57 6.66699 -81 20s-43 32 -57 56s-21 51.667 -21 83c0 30.667 6.83301 58 20.5 82s32.5 42.833 56.5 56.5s51.333 20.5 82 20.5c30 0 57 -6.83301 81 -20.5s43 -32.5 57 -56.5
s21 -51.333 21 -82v0zM329 698c0 30 -9.00293 54.333 -27.0029 73s-42 28 -72 28c-29.333 0 -53.166 -9.33301 -71.499 -28s-27.166 -43 -26.499 -73s9.83398 -54.667 27.501 -74s41.5 -29 71.5 -29s53.833 9.66699 71.5 29s26.5 44 26.5 74v0z" />
    <glyph glyph-name="plusminus" unicode="&#xb1;" horiz-adv-x="557" 
d="M496 79c0 -9.33301 -5.33301 -14 -16 -14l-405 -1c-4.66699 0 -8 1 -10 3s-3 5 -3 9v43c0 8 3 12 9 12h415c6.66699 0 10 -3 10 -9v-43zM496 430c0 -8.66699 -5.33301 -13 -16 -13l-405 -1c-4.66699 0 -8 1 -10 3s-3 5 -3 9v43c0 7.33301 3 11 9 11l415 1
c6.66699 0 10 -3.33301 10 -10v-43zM260 233c-9.33301 0 -14 5.33301 -14 16l-1 405c0 5.33301 1 8.83301 3 10.5s5 2.5 9 2.5h43c8 0 12 -3 12 -9v-415c0 -6.66699 -3.33301 -10 -10 -10h-42z" />
    <glyph glyph-name="uni00B2" unicode="&#xb2;" horiz-adv-x="452" 
d="M200 579c23.333 22.667 41.999 42.1689 55.999 58.502s24 31.666 30 45.999s9 29.166 9 44.499c0 18 -4.5 33.167 -13.5 45.5s-20.5 21.5 -34.5 27.5s-29 9 -45 9c-18 0 -36.667 -4.66699 -56 -14s-36.333 -25.333 -51 -48c-2.66699 -5.33301 -7 -6 -13 -2l-27 16
c-3.33301 2.66699 -5.16602 5 -5.49902 7s0.5 4.33301 2.5 7c18.667 28 41.834 48.5 69.501 61.5s56.5 19.5 86.5 19.5c26 0 50.167 -4.66699 72.5 -14s40.166 -23.833 53.499 -43.5s20 -44.167 20 -73.5c0 -18 -3.33301 -35.167 -10 -51.5s-17.5 -33.5 -32.5 -51.5
s-34.5 -38.333 -58.5 -61l-127 -119c-2 -2 -2.66699 -3.83301 -2 -5.5s2.66699 -2.5 6 -2.5h221c5.33301 0 8 -2.33301 8 -7v-37c0 -4.66699 -2.66699 -7 -8 -7h-292c-4 0 -6.66699 0.833008 -8 2.5s-2 4.16699 -2 7.5v26c0 4.66699 1 8.66699 3 12s6.66699 8 14 14z" />
    <glyph glyph-name="uni00B3" unicode="&#xb3;" horiz-adv-x="467" 
d="M76 785c-2.66699 2.66699 -2.66309 5.99609 0.00390625 9.99609c20 20.667 42.167 36.167 66.5 46.5s50.833 15.5 79.5 15.5c48.667 0 87 -11.333 115 -34s42 -50.667 42 -84c0 -22.667 -7 -43 -21 -61s-33.667 -31.667 -59 -41c-4.66699 -2 -7 -3.5 -7 -4.5
s2.33301 -2.5 7 -4.5c26 -6.66699 48.167 -20.167 66.5 -40.5s27.5 -45.166 27.5 -74.499c0 -39.333 -14.833 -71.666 -44.5 -96.999s-74.5 -38 -134.5 -38c-32 0 -61.167 5.5 -87.5 16.5s-49.5 27.5 -69.5 49.5c-2 2 -2.83301 3.83301 -2.5 5.5s1.5 3.83398 3.5 6.50098
l28 20c4 4 7 4.33301 9 1c19.333 -19.333 38.666 -33 57.999 -41s41 -12 65 -12c36.667 0 65.167 8 85.5 24s30.5 37 30.5 63c0 20.667 -5.83301 37.834 -17.5 51.501s-26.334 24.167 -44.001 31.5s-36.834 11 -57.501 11h-56c-4.66699 0 -7 2 -7 6v32
c0 4 2.33301 6.33301 7 7l45 1c32.667 0 60.167 8 82.5 24s33.5 36.333 33.5 61c0 21.333 -9.16699 39.333 -27.5 54s-41.833 22 -70.5 22c-21.333 0 -41.333 -4.16699 -60 -12.5s-36 -20.5 -52 -36.5c-2 -2 -3.83301 -3 -5.5 -3s-3.83398 1 -6.50098 3l-22 22v0z" />
    <glyph glyph-name="acute" unicode="&#xb4;" horiz-adv-x="285" 
d="M277 703c2.66699 -8.66699 -1 -14.667 -11 -18l-228 -69c-4.66699 -0.666992 -8.16699 -0.5 -10.5 0.5s-4.16602 3.5 -5.49902 7.5l-8 22c-2.66699 7.33301 -1.33398 12 3.99902 14l232 93c6 2 10 0.333008 12 -5z" />
    <glyph glyph-name="uni00B5" unicode="&#xb5;" horiz-adv-x="579" 
d="M257 56c28 0 55.3301 7.83105 81.9971 23.498s53 36.834 79 63.501v372c0 10 5.33301 15 16 15h55c9.33301 0 14 -4.66699 14 -14l-2 -503c0 -8.66699 -3.66699 -13 -11 -13h-58c-7.33301 0 -11 3.66699 -11 11v60c0 3.33301 -0.666992 5.33301 -2 6
s-3.66602 -0.333008 -6.99902 -3c-33.333 -28 -62 -48.167 -86 -60.5s-49.333 -19.166 -76 -20.499c-19.333 -0.666992 -37 1 -53 5s-30.333 11.667 -43 23v-169c0 -6.66699 -1.16699 -11.167 -3.5 -13.5s-7.16602 -3.5 -14.499 -3.5h-51c-10 0 -15 4.66699 -15 14v665
c0 10.667 5 16 15 16h56c8.66699 0 13 -4.66699 13 -14v-367c0 -17.333 4.66699 -33 14 -47s21.833 -25.167 37.5 -33.5s32.834 -12.5 51.501 -12.5v0z" />
    <glyph glyph-name="paragraph" unicode="&#xb6;" horiz-adv-x="561" 
d="M435 689c-4.66699 0 -7.00098 -2.66699 -7.00098 -8v-757c0 -2 -0.333008 -4 -1 -6s-2.66699 -3 -6 -3h-41c-6 0 -9 3 -9 9v759c0 4 -2.33301 6 -7 6h-36c-4.66699 0 -7 -2.66699 -7 -8v-758c0 -5.33301 -2.66699 -8 -8 -8h-42c-5.33301 0 -8 2.66699 -8 8v377
c0 3.33301 -1.66699 5 -5 5c-43.333 1.33301 -81 11.5 -113 30.5s-56.5 44.333 -73.5 76s-25.5 66.834 -25.5 105.501s8.83301 75.167 26.5 109.5s43.834 62.166 78.501 83.499s78 32 130 32h202c4.66699 0 7 -2 7 -6v-41c0 -4 -2.33301 -6 -7 -6h-48z" />
    <glyph glyph-name="periodcentered" unicode="&#xb7;" horiz-adv-x="201" 
d="M155 335c0 -10 -5.66699 -15 -17 -15h-79c-9.33301 0 -14 4.66699 -14 14v81c0 8 3 12 9 12h92c6 0 9 -3.66699 9 -11v-81z" />
    <glyph glyph-name="cedilla" unicode="&#xb8;" horiz-adv-x="221" 
d="M211 -131c0 -17.333 -4.99609 -31.666 -14.9961 -42.999s-23.167 -20.166 -39.5 -26.499s-34.5 -9.5 -54.5 -9.5c-16.667 0 -32.334 1.83301 -47.001 5.5s-28.334 9.16699 -41.001 16.5c-4 2.66699 -5.33301 5.66699 -4 9l11 26c2 3.33301 5 4 9 2
c8 -5.33301 16.833 -9.83301 26.5 -13.5s21.5 -5.5 35.5 -5.5c19.333 0 33.666 3.16699 42.999 9.5s14 15.833 14 28.5c0 15.333 -6.5 26.666 -19.5 33.999s-33.5 11.333 -61.5 12c-3.33301 0 -5.5 0.5 -6.5 1.5s-0.833008 2.5 0.5 4.5l37 85h47l-23 -57
c-1.33301 -3.33301 0 -5 4 -5c21.333 -1.33301 38.166 -5.83301 50.499 -13.5s21 -16.834 26 -27.501s7.5 -21.667 7.5 -33v0z" />
    <glyph glyph-name="uni00B9" unicode="&#xb9;" horiz-adv-x="367" 
d="M266 427c4 0 5.99902 -1.66699 5.99902 -5v-35c0 -4.66699 -2.33301 -7 -7 -7h-221c-4.66699 0 -7 2 -7 6v36c0 3.33301 2.33301 5 7 5h80c2.66699 0 4 1.33301 4 4v346c0 4 -1.66699 5.66699 -5 5l-78 -29c-5.33301 -1.33301 -8 1 -8 7v26c0 2.66699 0.333008 4.5 1 5.5
s2.33398 2.16699 5.00098 3.5l94 47l8.5 3.5c2.33301 1 5.5 1.5 9.5 1.5h27c4.66699 0 7 -2.66699 7 -8v-407c0 -3.33301 1.33301 -5 4 -5h73v0z" />
    <glyph glyph-name="ordmasculine" unicode="&#xba;" horiz-adv-x="411" 
d="M205 751c33.333 0 61.834 -7.33301 85.501 -22s42 -35 55 -61s19.5 -56.333 19.5 -91c0 -32.667 -6.33301 -61.834 -19 -87.501s-30.834 -45.834 -54.501 -60.501s-52.5 -22 -86.5 -22c-32.667 0 -61 7.33301 -85 22s-42.333 34.834 -55 60.501s-19 54.834 -19 87.501
c0 34.667 6.66699 65 20 91s32 46.333 56 61s51.667 22 83 22v0zM205.001 704c-31.333 0 -54.833 -11.167 -70.5 -33.5s-23.5 -52.5 -23.5 -90.5c0 -40 7.83301 -71.167 23.5 -93.5s39.167 -33.5 70.5 -33.5c32 0 56 11.167 72 33.5s24 53.5 24 93.5
c0 38 -8 68.167 -24 90.5s-40 33.5 -72 33.5v0z" />
    <glyph glyph-name="guillemotright" unicode="&#xbb;" horiz-adv-x="446" 
d="M149 249c3.33301 5.33301 3.33105 10.668 -0.00195312 16.001l-98 175c-2 3.33301 -2.16699 5.83301 -0.5 7.5s3.83398 2.5 6.50098 2.5h31c2 0 3.66699 -0.333008 5 -1s3 -2.33398 5 -5.00098l127 -177c4.66699 -6.66699 4.33398 -13.667 -0.999023 -21l-125 -167
c-2 -4 -5.33301 -6 -10 -6h-29c-8 0 -11.333 2.33301 -10 7l99 169v0zM326.998 249.002c3.33301 5.33301 3.33203 10.668 -0.000976562 16.001l-98 175c-1.33301 3.33301 -1.16602 5.83301 0.500977 7.5s3.83398 2.5 6.50098 2.5h31c2 0 3.66699 -0.333008 5 -1
s2.66602 -2.33398 3.99902 -5.00098l127 -177c5.33301 -6.66699 5 -13.667 -1 -21l-125 -167c-2 -4 -5.33301 -6 -10 -6h-29c-8 0 -11 2.33301 -9 7l98 169v0z" />
    <glyph glyph-name="onequarter" unicode="&#xbc;" horiz-adv-x="891" 
d="M269 323c4 0 5.99902 -1.66699 5.99902 -5v-35c0 -4.66699 -2.33301 -7 -7 -7h-221c-4.66699 0 -7 2 -7 6v36c0 3.33301 2.33301 5 7 5h80c2.66699 0 4 1.33301 4 4v346c0 4 -1.66699 5.66699 -5 5l-78 -29c-5.33301 -1.33301 -8 1 -8 7v26c0 2.66699 0.333008 4.5 1 5.5
s2.33398 2.16699 5.00098 3.5l94 47l8.5 3.5c2.33301 1 5.5 1.5 9.5 1.5h27c4.66699 0 7 -2.66699 7 -8v-407c0 -3.33301 1.33301 -5 4 -5h73v0zM243.999 5c-4 -6 -10.332 -9 -18.999 -9h-26c-6.66699 0 -10.334 2 -11.001 6s0.333008 8.33301 3 13l484 728
c2 3.33301 4.33301 5.33301 7 6s5.66699 1 9 1h33c3.33301 0 5.83301 -0.833008 7.5 -2.5s1.16699 -4.5 -1.5 -8.5zM707 460c2 2.66699 4.00098 4.5 6.00098 5.5s5 1.5 9 1.5h43c4.66699 0 7 -2.66699 7 -8v-283c0 -4 2 -6 6 -6h59c5.33301 0 8 -2 8 -6v-30
c0 -6 -3 -9 -9 -9h-58c-4 0 -6 -2 -6 -6v-110c0 -6 -3.33301 -9 -10 -9h-43c-5.33301 0 -8 3 -8 9v112c0 2.66699 -2 4 -6 4h-203c-6 0 -9 3 -9 9v31c0 3.33301 0.666992 6.5 2 9.5s3.66602 6.83301 6.99902 11.5l205 274v0zM704.001 170c4 0 5.99902 1.33301 5.99902 4v211
c0 4.66699 -0.666992 7.16699 -2 7.5s-3.66602 -1.5 -6.99902 -5.5l-153 -209c-4 -5.33301 -2.66699 -8 4 -8h152z" />
    <glyph glyph-name="onehalf" unicode="&#xbd;" horiz-adv-x="950" 
d="M265 323c4 0 5.99902 -1.66699 5.99902 -5v-35c0 -4.66699 -2.33301 -7 -7 -7h-221c-4.66699 0 -7 2 -7 6v36c0 3.33301 2.33301 5 7 5h80c2.66699 0 4 1.33301 4 4v346c0 4 -1.66699 5.66699 -5 5l-78 -29c-5.33301 -1.33301 -8 1 -8 7v26c0 2.66699 0.333008 4.5 1 5.5
s2.33398 2.16699 5.00098 3.5l94 47l8.5 3.5c2.33301 1 5.5 1.5 9.5 1.5h27c4.66699 0 7 -2.66699 7 -8v-407c0 -3.33301 1.33301 -5 4 -5h73v0zM232.999 5c-4 -6 -10.332 -9 -18.999 -9h-26c-6.66699 0 -10.334 2 -11.001 6s0.333008 8.33301 3 13l484 728
c2 3.33301 4.33301 5.33301 7 6s5.66699 1 9 1h33c3.33301 0 5.83301 -0.833008 7.5 -2.5s1.16699 -4.5 -1.5 -8.5zM726 195c23.333 22.667 41.999 42.1689 55.999 58.502s24 31.666 30 45.999s9 29.166 9 44.499c0 18 -4.5 33.167 -13.5 45.5s-20.5 21.5 -34.5 27.5
s-29 9 -45 9c-18 0 -36.667 -4.66699 -56 -14s-36.333 -25.333 -51 -48c-2.66699 -5.33301 -7 -6 -13 -2l-27 16c-3.33301 2.66699 -5.16602 5 -5.49902 7s0.5 4.33301 2.5 7c18.667 28 41.834 48.5 69.501 61.5s56.5 19.5 86.5 19.5c26 0 50.167 -4.66699 72.5 -14
s40.166 -23.833 53.499 -43.5s20 -44.167 20 -73.5c0 -18 -3.33301 -35.167 -10 -51.5s-17.5 -33.5 -32.5 -51.5s-34.5 -38.333 -58.5 -61l-127 -119c-2 -2 -2.66699 -3.83301 -2 -5.5s2.66699 -2.5 6 -2.5h221c5.33301 0 8 -2.33301 8 -7v-37c0 -4.66699 -2.66699 -7 -8 -7
h-292c-4 -0 -6.66699 0.833008 -8 2.5s-2 4.16699 -2 7.5v26c0 4.66699 1 8.66699 3 12s6.66699 8 14 14z" />
    <glyph glyph-name="threequarters" unicode="&#xbe;" horiz-adv-x="932" 
d="M62 680c-2.66699 2.66699 -2.66309 5.99609 0.00390625 9.99609c20 20.667 42.167 36.167 66.5 46.5s50.833 15.5 79.5 15.5c48.667 0 87 -11.333 115 -34s42 -50.667 42 -84c0 -22.667 -7 -43 -21 -61s-33.667 -31.667 -59 -41c-4.66699 -2 -7 -3.5 -7 -4.5
s2.33301 -2.5 7 -4.5c26 -6.66699 48.167 -20.167 66.5 -40.5s27.5 -45.166 27.5 -74.499c0 -39.333 -14.833 -71.666 -44.5 -96.999s-74.5 -38 -134.5 -38c-32 0 -61.167 5.5 -87.5 16.5s-49.5 27.5 -69.5 49.5c-2 2 -2.83301 3.83301 -2.5 5.5s1.5 3.83398 3.5 6.50098
l28 20c4 4 7 4.33301 9 1c19.333 -19.333 38.666 -33 57.999 -41s41 -12 65 -12c36.667 0 65.167 8 85.5 24s30.5 37 30.5 63c0 20.667 -5.83301 37.834 -17.5 51.501s-26.334 24.167 -44.001 31.5s-36.834 11 -57.501 11h-56c-4.66699 0 -7 2 -7 6v32
c0 4 2.33301 6.33301 7 7l45 1c32.667 0 60.167 8 82.5 24s33.5 36.333 33.5 61c0 21.333 -9.16699 39.333 -27.5 54s-41.833 22 -70.5 22c-21.333 0 -41.333 -4.16699 -60 -12.5s-36 -20.5 -52 -36.5c-2 -2 -3.83301 -3 -5.5 -3s-3.83398 1 -6.50098 3l-22 22v0z
M303.004 4.99609c-4 -6 -10.332 -9 -18.999 -9h-26c-6.66699 0 -10.334 2 -11.001 6s0.333008 8.33301 3 13l484 728c2 3.33301 4.33301 5.33301 7 6s5.66699 1 9 1h33c3.33301 0 5.83301 -0.833008 7.5 -2.5s1.16699 -4.5 -1.5 -8.5zM759.005 459.996
c2 2.66699 4.00098 4.5 6.00098 5.5s5 1.5 9 1.5h43c4.66699 0 7 -2.66699 7 -8v-283c0 -4 2 -6 6 -6h59c5.33301 0 8 -2 8 -6v-30c0 -6 -3 -9 -9 -9h-58c-4 0 -6 -2 -6 -6v-110c0 -6 -3.33301 -9 -10 -9h-43c-5.33301 0 -8 3 -8 9v112c0 2.66699 -2 4 -6 4h-203
c-6 0 -9 3 -9 9v31c0 3.33301 0.666992 6.5 2 9.5s3.66602 6.83301 6.99902 11.5l205 274v0zM756.006 169.996c4 0 5.99902 1.33301 5.99902 4v211c0 4.66699 -0.666992 7.16699 -2 7.5s-3.66602 -1.5 -6.99902 -5.5l-153 -209c-4 -5.33301 -2.66699 -8 4 -8h152z" />
    <glyph glyph-name="questiondown" unicode="&#xbf;" horiz-adv-x="516" 
d="M219 514c0 10.667 6.00098 16 18.001 16h70c5.33301 0 9.16602 -1.16699 11.499 -3.5s3.5 -5.83301 3.5 -10.5v-85c0 -8 -3.66699 -12 -11 -12h-82c-6.66699 0 -10 3.66699 -10 11v84zM483.001 -27c3.33301 -1.33301 5.33008 -3.3291 5.99707 -5.99609
s0.333984 -5.33398 -0.999023 -8.00098c-20.667 -41.333 -52 -74 -94 -98s-89.333 -36 -142 -36c-47.333 0 -87.666 7.66699 -120.999 23s-58.833 36.5 -76.5 63.5s-26.5 57.833 -26.5 92.5c0 27.333 4.83301 50.666 14.5 69.999s22.5 36.5 38.5 51.5s32.5 29.5 49.5 43.5
s33.5 28.667 49.5 44s28.833 33 38.5 53s14.5 44 14.5 72c0 3.33301 1.16699 6.16602 3.5 8.49902s5.16602 3.5 8.49902 3.5h49c8.66699 0 13 -4.66699 13 -14c0 -31.333 -4.66699 -58.333 -14 -81s-21.333 -42.334 -36 -59.001s-30.167 -32 -46.5 -46l-46 -41
c-14.333 -13.333 -26.166 -28.166 -35.499 -44.499s-14 -35.5 -14 -57.5c0 -34.667 12.667 -62.334 38 -83.001s58.333 -31 99 -31c22.667 0 44.834 4.16699 66.501 12.5s41 19.333 58 33s29.167 29.167 36.5 46.5c2 2.66699 3.66699 4.5 5 5.5s4 0.833008 8 -0.5z" />
    <glyph glyph-name="Agrave" unicode="&#xc0;" horiz-adv-x="727" 
d="M55 0c-4 0 -6.83105 1.50098 -8.49805 4.50098s-1.83398 7.16699 -0.500977 12.5l259 711c2 4.66699 4.33301 8.16699 7 10.5s7 3.5 13 3.5h78c12 0 19.667 -5 23 -15l256 -710c1.33301 -4 1.16602 -7.83301 -0.500977 -11.5s-4.83398 -5.5 -9.50098 -5.5h-71
c-8 0 -13.333 3.33301 -16 10l-69 194c-1.33301 2.66699 -2.66602 4.66699 -3.99902 6s-4 2 -8 2h-291c-6 0 -10 -2.66699 -12 -8l-71 -195c-0.666992 -2.66699 -2.16699 -4.83398 -4.5 -6.50098s-5.83301 -2.5 -10.5 -2.5h-60v0zM478.002 288.001c8 0 10.667 4.33301 8 13
l-120 329c-2.66699 6 -5.16699 9 -7.5 9s-4.5 -3 -6.5 -9l-122 -331c-3.33301 -7.33301 -1.33301 -11 6 -11h242zM251.002 958.001c2.66699 5.33301 6.66699 7 12 5l232 -93c5.33301 -2 6.66602 -6.66699 3.99902 -14l-8 -22c-1.33301 -4 -3.16602 -6.5 -5.49902 -7.5
s-5.83301 -1.16699 -10.5 -0.5l-228 69c-10 3.33301 -13.667 9.33301 -11 18l15 45v0z" />
    <glyph glyph-name="Aacute" unicode="&#xc1;" horiz-adv-x="727" 
d="M55 0c-4 0 -6.83105 1.50098 -8.49805 4.50098s-1.83398 7.16699 -0.500977 12.5l259 711c2 4.66699 4.33301 8.16699 7 10.5s7 3.5 13 3.5h78c12 0 19.667 -5 23 -15l256 -710c1.33301 -4 1.16602 -7.83301 -0.500977 -11.5s-4.83398 -5.5 -9.50098 -5.5h-71
c-8 0 -13.333 3.33301 -16 10l-69 194c-1.33301 2.66699 -2.66602 4.66699 -3.99902 6s-4 2 -8 2h-291c-6 0 -10 -2.66699 -12 -8l-71 -195c-0.666992 -2.66699 -2.16699 -4.83398 -4.5 -6.50098s-5.83301 -2.5 -10.5 -2.5h-60v0zM478.002 288.001c8 0 10.667 4.33301 8 13
l-120 329c-2.66699 6 -5.16699 9 -7.5 9s-4.5 -3 -6.5 -9l-122 -331c-3.33301 -7.33301 -1.33301 -11 6 -11h242zM497.002 915.001c2.66699 -8.66699 -1 -14.667 -11 -18l-228 -69c-4.66699 -0.666992 -8.16699 -0.5 -10.5 0.5s-4.16602 3.5 -5.49902 7.5l-8 22
c-2.66699 7.33301 -1.33398 12 3.99902 14l232 93c6 2 10 0.333008 12 -5z" />
    <glyph glyph-name="Acircumflex" unicode="&#xc2;" horiz-adv-x="727" 
d="M55 0c-4 0 -6.83105 1.50098 -8.49805 4.50098s-1.83398 7.16699 -0.500977 12.5l259 711c2 4.66699 4.33301 8.16699 7 10.5s7 3.5 13 3.5h78c12 0 19.667 -5 23 -15l256 -710c1.33301 -4 1.16602 -7.83301 -0.500977 -11.5s-4.83398 -5.5 -9.50098 -5.5h-71
c-8 0 -13.333 3.33301 -16 10l-69 194c-1.33301 2.66699 -2.66602 4.66699 -3.99902 6s-4 2 -8 2h-291c-6 0 -10 -2.66699 -12 -8l-71 -195c-0.666992 -2.66699 -2.16699 -4.83398 -4.5 -6.50098s-5.83301 -2.5 -10.5 -2.5h-60v0zM478.002 288.001c8 0 10.667 4.33301 8 13
l-120 329c-2.66699 6 -5.16699 9 -7.5 9s-4.5 -3 -6.5 -9l-122 -331c-3.33301 -7.33301 -1.33301 -11 6 -11h242zM373.002 899.001c-4.66699 5.33301 -8.00195 8.00098 -10.002 8.00098s-6.33301 -2.66699 -13 -8l-57 -50c-4 -2.66699 -7 -4.33398 -9 -5.00098s-5 -1 -9 -1
h-54c-4.66699 0 -7.16699 1.16699 -7.5 3.5s1.16699 5.16602 4.5 8.49902l103 91c3.33301 3.33301 6.83301 6 10.5 8s8.5 3 14.5 3h39c4.66699 0 8.33398 -1.16699 11.001 -3.5s5.33398 -4.5 8.00098 -6.5l102 -92c8.66699 -8 8 -12 -2 -12h-58
c-4 0 -7.33301 0.333008 -10 1s-5.66699 2.33398 -9 5.00098z" />
    <glyph glyph-name="Atilde" unicode="&#xc3;" horiz-adv-x="727" 
d="M55 0c-4 0 -6.83105 1.50098 -8.49805 4.50098s-1.83398 7.16699 -0.500977 12.5l259 711c2 4.66699 4.33301 8.16699 7 10.5s7 3.5 13 3.5h78c12 0 19.667 -5 23 -15l256 -710c1.33301 -4 1.16602 -7.83301 -0.500977 -11.5s-4.83398 -5.5 -9.50098 -5.5h-71
c-8 0 -13.333 3.33301 -16 10l-69 194c-1.33301 2.66699 -2.66602 4.66699 -3.99902 6s-4 2 -8 2h-291c-6 0 -10 -2.66699 -12 -8l-71 -195c-0.666992 -2.66699 -2.16699 -4.83398 -4.5 -6.50098s-5.83301 -2.5 -10.5 -2.5h-60v0zM478.002 288.001c8 0 10.667 4.33301 8 13
l-120 329c-2.66699 6 -5.16699 9 -7.5 9s-4.5 -3 -6.5 -9l-122 -331c-3.33301 -7.33301 -1.33301 -11 6 -11h242zM503.002 889.001c-7.33301 -4.66699 -17.168 -9.5 -29.501 -14.5s-27.833 -7.5 -46.5 -7.5c-17.333 0 -32.833 2.16699 -46.5 6.5s-26.667 8.66602 -39 12.999
s-26.166 6.5 -41.499 6.5c-14.667 0 -26.167 -2.33301 -34.5 -7l-25.5 -14c-3.33301 -2 -6.16602 -2.83301 -8.49902 -2.5s-4.16602 2.83301 -5.49902 7.5l-10 26c-0.666992 4 -1 6.83301 -1 8.5s1.66699 3.83398 5 6.50098c10.667 8 21.667 15 33 21s25.666 9 42.999 9
c16.667 0 32.167 -2.16699 46.5 -6.5s28.5 -9 42.5 -14s28.333 -7.5 43 -7.5c12.667 0 23.167 2 31.5 6s16.833 8.66699 25.5 14c4 2 7.33301 2.83301 10 2.5s4.66699 -2.83301 6 -7.5l10 -31c1.33301 -4.66699 -1.33398 -9.66699 -8.00098 -15v0z" />
    <glyph glyph-name="Adieresis" unicode="&#xc4;" horiz-adv-x="727" 
d="M55 0c-4 0 -6.83105 1.50098 -8.49805 4.50098s-1.83398 7.16699 -0.500977 12.5l259 711c2 4.66699 4.33301 8.16699 7 10.5s7 3.5 13 3.5h78c12 0 19.667 -5 23 -15l256 -710c1.33301 -4 1.16602 -7.83301 -0.500977 -11.5s-4.83398 -5.5 -9.50098 -5.5h-71
c-8 0 -13.333 3.33301 -16 10l-69 194c-1.33301 2.66699 -2.66602 4.66699 -3.99902 6s-4 2 -8 2h-291c-6 0 -10 -2.66699 -12 -8l-71 -195c-0.666992 -2.66699 -2.16699 -4.83398 -4.5 -6.50098s-5.83301 -2.5 -10.5 -2.5h-60v0zM478.002 288.001c8 0 10.667 4.33301 8 13
l-120 329c-2.66699 6 -5.16699 9 -7.5 9s-4.5 -3 -6.5 -9l-122 -331c-3.33301 -7.33301 -1.33301 -11 6 -11h242zM331.002 859.001c0 -6 -1.16699 -10 -3.5 -12s-6.83301 -3 -13.5 -3h-53c-5.33301 0 -9 1 -11 3s-3 5.33301 -3 10v84c0 8.66699 3.66699 13 11 13h62
c7.33301 0 11 -4 11 -12v-83zM477.002 859.001c0 -6 -1.16699 -10 -3.5 -12s-6.83301 -3 -13.5 -3h-52c-6 0 -9.83301 1 -11.5 3s-2.5 5.33301 -2.5 10v84c0 8.66699 3.66699 13 11 13h61c7.33301 0 11 -4 11 -12v-83z" />
    <glyph glyph-name="Aring" unicode="&#xc5;" horiz-adv-x="727" 
d="M55 0c-4 0 -6.83105 1.50098 -8.49805 4.50098s-1.83398 7.16699 -0.500977 12.5l259 711c2 4.66699 4.33301 8.16699 7 10.5s7 3.5 13 3.5h78c12 0 19.667 -5 23 -15l256 -710c1.33301 -4 1.16602 -7.83301 -0.500977 -11.5s-4.83398 -5.5 -9.50098 -5.5h-71
c-8 0 -13.333 3.33301 -16 10l-69 194c-1.33301 2.66699 -2.66602 4.66699 -3.99902 6s-4 2 -8 2h-291c-6 0 -10 -2.66699 -12 -8l-71 -195c-0.666992 -2.66699 -2.16699 -4.83398 -4.5 -6.50098s-5.83301 -2.5 -10.5 -2.5h-60v0zM478.002 288.001c8 0 10.667 4.33301 8 13
l-120 329c-2.66699 6 -5.16699 9 -7.5 9s-4.5 -3 -6.5 -9l-122 -331c-3.33301 -7.33301 -1.33301 -11 6 -11h242zM467.002 860.001c0 -30 -10.168 -55.002 -30.501 -75.002s-45.166 -30 -74.499 -30s-54 10.333 -74 31s-30 46 -30 76c0 18.667 4.66699 35.667 14 51
s22 27.5 38 36.5s33.333 13.5 52 13.5c20 0 37.833 -4.66699 53.5 -14s28.167 -21.666 37.5 -36.999s14 -32.666 14 -51.999v0zM417.001 858.999c0 16 -5.33301 29.333 -16 40s-24 16 -40 16c-14.667 0 -27.667 -5.33301 -39 -16s-17 -24 -17 -40
c0 -14.667 5.66699 -27.667 17 -39s24.333 -17 39 -17c16 0 29.333 5.66699 40 17s16 24.333 16 39v0z" />
    <glyph glyph-name="AE" unicode="&#xc6;" horiz-adv-x="1008" 
d="M949 74c8 0 11.998 -3.33105 11.998 -9.99805v-53c0 -3.33301 -0.833008 -6 -2.5 -8s-4.5 -3 -8.5 -3h-437c-9.33301 0 -14 4.66699 -14 14v191c0 4.66699 -2.66699 7 -8 7h-239c-6 0 -10.333 -2.66699 -13 -8l-110 -195
c-1.33301 -2.66699 -3.16602 -4.83398 -5.49902 -6.50098s-5.83301 -2.5 -10.5 -2.5h-60c-4 0 -6.66699 1.5 -8 4.5s-0.666016 7.16699 2.00098 12.5l397 711c2.66699 4.66699 5.5 8.16699 8.5 10.5s7.5 3.5 13.5 3.5h472c6.66699 0 10 -3.66699 10 -11v-51
c0 -8 -4.33301 -12 -13 -12h-328c-8.66699 0 -13 -4 -13 -12v-234c0 -7.33301 4 -11 12 -11h244c7.33301 0 11 -3.66699 11 -11v-53c0 -2.66699 -0.666992 -4.83398 -2 -6.50098s-4.33301 -2.5 -9 -2.5h-245c-7.33301 0 -11 -3.66699 -11 -11v-243
c0 -6.66699 3.33301 -10 10 -10h345v0zM487.998 288.002c7.33301 0 11.0029 4 11.0029 12v339c-0.666992 8.66699 -3.33398 13.167 -8.00098 13.5s-9.33398 -4.5 -14.001 -14.5l-194 -339c-4.66699 -7.33301 -3.33398 -11 3.99902 -11h201v0z" />
    <glyph glyph-name="Ccedilla" unicode="&#xc7;" horiz-adv-x="707" 
d="M378 752c33.333 0 65.498 -5.5 96.498 -16.5s58.833 -25.833 83.5 -44.5s45 -40.334 61 -65.001s26 -51 30 -79c1.33301 -6 1.5 -10 0.5 -12s-3.5 -3 -7.5 -3l-75 -6c-3.33301 -0.666992 -5.66602 0 -6.99902 2s-2.33301 4.66699 -3 8
c-9.33301 42.667 -29.5 77.167 -60.5 103.5s-69.5 39.5 -115.5 39.5c-69.333 0 -122.666 -25.667 -159.999 -77s-56 -128.666 -56 -231.999c0 -100 18.333 -175.667 55 -227s92 -77 166 -77c47.333 0 86.833 11.333 118.5 34s57.167 59 76.5 109c2 4 6 5.33301 12 4l59 -14
c2 -0.666992 3.66699 -2 5 -4s1.33301 -5.33301 0 -10c-5.33301 -19.333 -13.5 -38.333 -24.5 -57s-24.5 -36.167 -40.5 -52.5s-34.667 -31 -56 -44s-44.833 -23.167 -70.5 -30.5s-53.5 -11 -83.5 -11c-66 0 -122.833 15.333 -170.5 46s-84 74.667 -109 132
s-37.5 125.333 -37.5 204s12.5 146.5 37.5 203.5s61 100.667 108 131s102.833 45.5 167.5 45.5v0zM471.998 -131c0 -17.333 -4.99609 -31.666 -14.9961 -42.999s-23.167 -20.166 -39.5 -26.499s-34.5 -9.5 -54.5 -9.5c-16.667 0 -32.334 1.83301 -47.001 5.5
s-28.334 9.16699 -41.001 16.5c-4 2.66699 -5.33301 5.66699 -4 9l11 26c2 3.33301 5 4 9 2c8 -5.33301 16.833 -9.83301 26.5 -13.5s21.5 -5.5 35.5 -5.5c19.333 0 33.666 3.16699 42.999 9.5s14 15.833 14 28.5c0 15.333 -6.5 26.666 -19.5 33.999s-33.5 11.333 -61.5 12
c-3.33301 0 -5.5 0.5 -6.5 1.5s-0.833008 2.5 0.5 4.5l37 85h47l-23 -57c-1.33301 -3.33301 0 -5 4 -5c21.333 -1.33301 38.166 -5.83301 50.499 -13.5s21 -16.834 26 -27.501s7.5 -21.667 7.5 -33v0z" />
    <glyph glyph-name="Egrave" unicode="&#xc8;" horiz-adv-x="628" 
d="M97 728c0 9.33301 4 14.001 12 14.001h449c6.66699 0 10 -3.66699 10 -11v-51c0 -8 -4.33301 -12 -13 -12h-349c-8.66699 0 -13 -4 -13 -12v-234c0 -7.33301 3.66699 -11 11 -11h259c7.33301 0 11 -3.66699 11 -11v-53c0 -2.66699 -0.666992 -4.83398 -2 -6.50098
s-4.33301 -2.5 -9 -2.5h-259c-7.33301 0 -11 -3.66699 -11 -11v-243c0 -6.66699 3.33301 -10 10 -10h367c7.33301 0 11 -3.33301 11 -10v-53c0 -3.33301 -0.833008 -6 -2.5 -8s-4.5 -3 -8.5 -3h-459c-9.33301 0 -14 4.66699 -14 14v714v0zM231 958.001
c2.66699 5.33301 6.66699 7 12 5l232 -93c5.33301 -2 6.66602 -6.66699 3.99902 -14l-8 -22c-1.33301 -4 -3.16602 -6.5 -5.49902 -7.5s-5.83301 -1.16699 -10.5 -0.5l-228 69c-10 3.33301 -13.667 9.33301 -11 18l15 45v0z" />
    <glyph glyph-name="Eacute" unicode="&#xc9;" horiz-adv-x="628" 
d="M97 728c0 9.33301 4 14.001 12 14.001h449c6.66699 0 10 -3.66699 10 -11v-51c0 -8 -4.33301 -12 -13 -12h-349c-8.66699 0 -13 -4 -13 -12v-234c0 -7.33301 3.66699 -11 11 -11h259c7.33301 0 11 -3.66699 11 -11v-53c0 -2.66699 -0.666992 -4.83398 -2 -6.50098
s-4.33301 -2.5 -9 -2.5h-259c-7.33301 0 -11 -3.66699 -11 -11v-243c0 -6.66699 3.33301 -10 10 -10h367c7.33301 0 11 -3.33301 11 -10v-53c0 -3.33301 -0.833008 -6 -2.5 -8s-4.5 -3 -8.5 -3h-459c-9.33301 0 -14 4.66699 -14 14v714v0zM477 915.001
c2.66699 -8.66699 -1 -14.667 -11 -18l-228 -69c-4.66699 -0.666992 -8.16699 -0.5 -10.5 0.5s-4.16602 3.5 -5.49902 7.5l-8 22c-2.66699 7.33301 -1.33398 12 3.99902 14l232 93c6 2 10 0.333008 12 -5z" />
    <glyph glyph-name="Ecircumflex" unicode="&#xca;" horiz-adv-x="628" 
d="M97 728c0 9.33301 4 14.001 12 14.001h449c6.66699 0 10 -3.66699 10 -11v-51c0 -8 -4.33301 -12 -13 -12h-349c-8.66699 0 -13 -4 -13 -12v-234c0 -7.33301 3.66699 -11 11 -11h259c7.33301 0 11 -3.66699 11 -11v-53c0 -2.66699 -0.666992 -4.83398 -2 -6.50098
s-4.33301 -2.5 -9 -2.5h-259c-7.33301 0 -11 -3.66699 -11 -11v-243c0 -6.66699 3.33301 -10 10 -10h367c7.33301 0 11 -3.33301 11 -10v-53c0 -3.33301 -0.833008 -6 -2.5 -8s-4.5 -3 -8.5 -3h-459c-9.33301 0 -14 4.66699 -14 14v714v0zM353 899.001
c-4.66699 5.33301 -8.00195 8.00098 -10.002 8.00098s-6.33301 -2.66699 -13 -8l-57 -50c-4 -2.66699 -7 -4.33398 -9 -5.00098s-5 -1 -9 -1h-54c-4.66699 0 -7.16699 1.16699 -7.5 3.5s1.16699 5.16602 4.5 8.49902l103 91c3.33301 3.33301 6.83301 6 10.5 8s8.5 3 14.5 3
h39c4.66699 0 8.33398 -1.16699 11.001 -3.5s5.33398 -4.5 8.00098 -6.5l102 -92c8.66699 -8 8 -12 -2 -12h-58c-4 0 -7.33301 0.333008 -10 1s-5.66699 2.33398 -9 5.00098z" />
    <glyph glyph-name="Edieresis" unicode="&#xcb;" horiz-adv-x="628" 
d="M97 728c0 9.33301 4 14.001 12 14.001h449c6.66699 0 10 -3.66699 10 -11v-51c0 -8 -4.33301 -12 -13 -12h-349c-8.66699 0 -13 -4 -13 -12v-234c0 -7.33301 3.66699 -11 11 -11h259c7.33301 0 11 -3.66699 11 -11v-53c0 -2.66699 -0.666992 -4.83398 -2 -6.50098
s-4.33301 -2.5 -9 -2.5h-259c-7.33301 0 -11 -3.66699 -11 -11v-243c0 -6.66699 3.33301 -10 10 -10h367c7.33301 0 11 -3.33301 11 -10v-53c0 -3.33301 -0.833008 -6 -2.5 -8s-4.5 -3 -8.5 -3h-459c-9.33301 0 -14 4.66699 -14 14v714v0zM311 859.001
c0 -6 -1.16699 -10 -3.5 -12s-6.83301 -3 -13.5 -3h-53c-5.33301 0 -9 1 -11 3s-3 5.33301 -3 10v84c0 8.66699 3.66699 13 11 13h62c7.33301 0 11 -4 11 -12v-83zM457 859.001c0 -6 -1.16699 -10 -3.5 -12s-6.83301 -3 -13.5 -3h-52c-6 0 -9.83301 1 -11.5 3
s-2.5 5.33301 -2.5 10v84c0 8.66699 3.66699 13 11 13h61c7.33301 0 11 -4 11 -12v-83z" />
    <glyph glyph-name="Igrave" unicode="&#xcc;" horiz-adv-x="290" 
d="M181 742c8 0 12.001 -4.33301 12.001 -13v-712c0 -6.66699 -1.33301 -11.167 -4 -13.5s-7.33398 -3.5 -14.001 -3.5h-63c-6 0 -10 1 -12 3s-3 5.66699 -3 11v714c0 9.33301 4 14 12 14h72zM36.001 958c2.66699 5.33301 6.66699 7 12 5l232 -93
c5.33301 -2 6.66602 -6.66699 3.99902 -14l-8 -22c-1.33301 -4 -3.16602 -6.5 -5.49902 -7.5s-5.83301 -1.16699 -10.5 -0.5l-228 69c-10 3.33301 -13.667 9.33301 -11 18l15 45v0z" />
    <glyph glyph-name="Iacute" unicode="&#xcd;" horiz-adv-x="290" 
d="M181 742c8 0 12.001 -4.33301 12.001 -13v-712c0 -6.66699 -1.33301 -11.167 -4 -13.5s-7.33398 -3.5 -14.001 -3.5h-63c-6 0 -10 1 -12 3s-3 5.66699 -3 11v714c0 9.33301 4 14 12 14h72zM282.001 915c2.66699 -8.66699 -1 -14.667 -11 -18l-228 -69
c-4.66699 -0.666992 -8.16699 -0.5 -10.5 0.5s-4.16602 3.5 -5.49902 7.5l-8 22c-2.66699 7.33301 -1.33398 12 3.99902 14l232 93c6 2 10 0.333008 12 -5z" />
    <glyph glyph-name="Icircumflex" unicode="&#xce;" horiz-adv-x="290" 
d="M181 742c8 0 12.001 -4.33301 12.001 -13v-712c0 -6.66699 -1.33301 -11.167 -4 -13.5s-7.33398 -3.5 -14.001 -3.5h-63c-6 0 -10 1 -12 3s-3 5.66699 -3 11v714c0 9.33301 4 14 12 14h72zM157.001 899c-4.66699 5.33301 -8.00195 8.00098 -10.002 8.00098
s-6.33301 -2.66699 -13 -8l-57 -50c-4 -2.66699 -7 -4.33398 -9 -5.00098s-5 -1 -9 -1h-54c-4.66699 0 -7.16699 1.16699 -7.5 3.5s1.16699 5.16602 4.5 8.49902l103 91c3.33301 3.33301 6.83301 6 10.5 8s8.5 3 14.5 3h39c4.66699 0 8.33398 -1.16699 11.001 -3.5
s5.33398 -4.5 8.00098 -6.5l102 -92c8.66699 -8 8 -12 -2 -12h-58c-4 0 -7.33301 0.333008 -10 1s-5.66699 2.33398 -9 5.00098z" />
    <glyph glyph-name="Idieresis" unicode="&#xcf;" horiz-adv-x="290" 
d="M181 742c8 0 12.001 -4.33301 12.001 -13v-712c0 -6.66699 -1.33301 -11.167 -4 -13.5s-7.33398 -3.5 -14.001 -3.5h-63c-6 0 -10 1 -12 3s-3 5.66699 -3 11v714c0 9.33301 4 14 12 14h72zM116.001 859c0 -6 -1.16699 -10 -3.5 -12s-6.83301 -3 -13.5 -3h-53
c-5.33301 0 -9 1 -11 3s-3 5.33301 -3 10v84c0 8.66699 3.66699 13 11 13h62c7.33301 0 11 -4 11 -12v-83zM262.001 859c0 -6 -1.16699 -10 -3.5 -12s-6.83301 -3 -13.5 -3h-52c-6 0 -9.83301 1 -11.5 3s-2.5 5.33301 -2.5 10v84c0 8.66699 3.66699 13 11 13h61
c7.33301 0 11 -4 11 -12v-83z" />
    <glyph glyph-name="Eth" unicode="&#xd0;" horiz-adv-x="727" 
d="M367 352c0 -10.667 -6.33301 -15.999 -19 -15.999h-302c-5.33301 0 -9 1.16699 -11 3.5s-3 6.16602 -3 11.499v42c0 8.66699 3.33301 13 10 13h315c6.66699 0 10 -4 10 -12v-42zM117 742.001h29.502c14.333 0 30.166 -0.166992 47.499 -0.5s33.5 -0.5 48.5 -0.5h31.5
c92 -1.33301 166.5 -16 223.5 -44s98.833 -68.667 125.5 -122s40 -119.333 40 -198c0 -83.333 -14.5 -153 -43.5 -209s-73 -98 -132 -126s-133.833 -42 -224.5 -42h-146c-10 0 -15 5.33301 -15 16v712c0 4.66699 1.16699 8.16699 3.5 10.5s6.16602 3.5 11.499 3.5v0z
M208.002 669.001c-6.66699 0 -9.99902 -4.66699 -9.99902 -14v-572c0 -7.33301 4 -11 12 -11h38c74 0 134.167 9.83301 180.5 29.5s80.333 51.5 102 95.5s32.5 102.333 32.5 175c0 76 -11.167 135.5 -33.5 178.5s-56.333 73.5 -102 91.5s-103.834 27 -174.501 27h-45v0z" />
    <glyph glyph-name="Ntilde" unicode="&#xd1;" horiz-adv-x="757" 
d="M649 742c7.33301 0 10.999 -3.99902 10.999 -11.999v-718c0 -4 -1.16699 -7 -3.5 -9s-5.5 -3 -9.5 -3h-49c-4 0 -7.66699 0.333008 -11 1s-6.66602 3 -9.99902 7l-386 561c-3.33301 4.66699 -6 6.66699 -8 6s-3 -3 -3 -7v-555c0 -8.66699 -4.66699 -13 -14 -13h-56
c-8.66699 0 -13 4.33301 -13 13v715c0 9.33301 4.33301 14 13 14h57c5.33301 0 9.33301 -0.5 12 -1.5s5.66699 -3.83301 9 -8.5l375 -549c4 -4.66699 7.5 -6.33398 10.5 -5.00098s4.5 4 4.5 8v544c0 8 4 12 12 12h59zM530.999 889.001
c-7.33301 -4.66699 -17.168 -9.5 -29.501 -14.5s-27.833 -7.5 -46.5 -7.5c-17.333 0 -32.833 2.16699 -46.5 6.5s-26.667 8.66602 -39 12.999s-26.166 6.5 -41.499 6.5c-14.667 0 -26.167 -2.33301 -34.5 -7l-25.5 -14c-3.33301 -2 -6.16602 -2.83301 -8.49902 -2.5
s-4.16602 2.83301 -5.49902 7.5l-10 26c-0.666992 4 -1 6.83301 -1 8.5s1.66699 3.83398 5 6.50098c10.667 8 21.667 15 33 21s25.666 9 42.999 9c16.667 0 32.167 -2.16699 46.5 -6.5s28.5 -9 42.5 -14s28.333 -7.5 43 -7.5c12.667 0 23.167 2 31.5 6
s16.833 8.66699 25.5 14c4 2 7.33301 2.83301 10 2.5s4.66699 -2.83301 6 -7.5l10 -31c1.33301 -4.66699 -1.33398 -9.66699 -8.00098 -15v0z" />
    <glyph glyph-name="Ograve" unicode="&#xd2;" horiz-adv-x="764" 
d="M382 -10c-65.333 0 -121.832 14.6689 -169.499 44.002s-84.167 72.166 -109.5 128.499s-38 124.833 -38 205.5c0 81.333 13 150.666 39 207.999s62.667 101 110 131s103.666 45 168.999 45s121.5 -15 168.5 -45s83.333 -73.333 109 -130s38.5 -126 38.5 -208
c0 -80.667 -12.667 -149.167 -38 -205.5s-61.833 -99.333 -109.5 -129s-104.167 -44.5 -169.5 -44.5v0zM384.001 63.002c72 0 125.831 24.833 161.498 74.5s53.5 126.5 53.5 230.5c0 106 -18.167 184.333 -54.5 235s-90.166 76 -161.499 76c-72 0 -126.333 -25.5 -163 -76.5
s-55 -129.167 -55 -234.5c0 -103.333 18.333 -180 55 -230s91.334 -75 164.001 -75v0zM271.999 958.002c2.66699 5.33301 6.66699 7 12 5l232 -93c5.33301 -2 6.66602 -6.66699 3.99902 -14l-8 -22c-1.33301 -4 -3.16602 -6.5 -5.49902 -7.5s-5.83301 -1.16699 -10.5 -0.5
l-228 69c-10 3.33301 -13.667 9.33301 -11 18l15 45v0z" />
    <glyph glyph-name="Oacute" unicode="&#xd3;" horiz-adv-x="764" 
d="M382 -10c-65.333 0 -121.832 14.6689 -169.499 44.002s-84.167 72.166 -109.5 128.499s-38 124.833 -38 205.5c0 81.333 13 150.666 39 207.999s62.667 101 110 131s103.666 45 168.999 45s121.5 -15 168.5 -45s83.333 -73.333 109 -130s38.5 -126 38.5 -208
c0 -80.667 -12.667 -149.167 -38 -205.5s-61.833 -99.333 -109.5 -129s-104.167 -44.5 -169.5 -44.5v0zM384.001 63.002c72 0 125.831 24.833 161.498 74.5s53.5 126.5 53.5 230.5c0 106 -18.167 184.333 -54.5 235s-90.166 76 -161.499 76c-72 0 -126.333 -25.5 -163 -76.5
s-55 -129.167 -55 -234.5c0 -103.333 18.333 -180 55 -230s91.334 -75 164.001 -75v0zM517.999 915.002c2.66699 -8.66699 -1 -14.667 -11 -18l-228 -69c-4.66699 -0.666992 -8.16699 -0.5 -10.5 0.5s-4.16602 3.5 -5.49902 7.5l-8 22
c-2.66699 7.33301 -1.33398 12 3.99902 14l232 93c6 2 10 0.333008 12 -5z" />
    <glyph glyph-name="Ocircumflex" unicode="&#xd4;" horiz-adv-x="764" 
d="M382 -10c-65.333 0 -121.832 14.6689 -169.499 44.002s-84.167 72.166 -109.5 128.499s-38 124.833 -38 205.5c0 81.333 13 150.666 39 207.999s62.667 101 110 131s103.666 45 168.999 45s121.5 -15 168.5 -45s83.333 -73.333 109 -130s38.5 -126 38.5 -208
c0 -80.667 -12.667 -149.167 -38 -205.5s-61.833 -99.333 -109.5 -129s-104.167 -44.5 -169.5 -44.5v0zM384.001 63.002c72 0 125.831 24.833 161.498 74.5s53.5 126.5 53.5 230.5c0 106 -18.167 184.333 -54.5 235s-90.166 76 -161.499 76c-72 0 -126.333 -25.5 -163 -76.5
s-55 -129.167 -55 -234.5c0 -103.333 18.333 -180 55 -230s91.334 -75 164.001 -75v0zM393.999 899.002c-4.66699 5.33301 -8.00195 8.00098 -10.002 8.00098s-6.33301 -2.66699 -13 -8l-57 -50c-4 -2.66699 -7 -4.33398 -9 -5.00098s-5 -1 -9 -1h-54
c-4.66699 0 -7.16699 1.16699 -7.5 3.5s1.16699 5.16602 4.5 8.49902l103 91c3.33301 3.33301 6.83301 6 10.5 8s8.5 3 14.5 3h39c4.66699 0 8.33398 -1.16699 11.001 -3.5s5.33398 -4.5 8.00098 -6.5l102 -92c8.66699 -8 8 -12 -2 -12h-58c-4 0 -7.33301 0.333008 -10 1
s-5.66699 2.33398 -9 5.00098z" />
    <glyph glyph-name="Otilde" unicode="&#xd5;" horiz-adv-x="764" 
d="M382 -10c-65.333 0 -121.832 14.6689 -169.499 44.002s-84.167 72.166 -109.5 128.499s-38 124.833 -38 205.5c0 81.333 13 150.666 39 207.999s62.667 101 110 131s103.666 45 168.999 45s121.5 -15 168.5 -45s83.333 -73.333 109 -130s38.5 -126 38.5 -208
c0 -80.667 -12.667 -149.167 -38 -205.5s-61.833 -99.333 -109.5 -129s-104.167 -44.5 -169.5 -44.5v0zM384.001 63.002c72 0 125.831 24.833 161.498 74.5s53.5 126.5 53.5 230.5c0 106 -18.167 184.333 -54.5 235s-90.166 76 -161.499 76c-72 0 -126.333 -25.5 -163 -76.5
s-55 -129.167 -55 -234.5c0 -103.333 18.333 -180 55 -230s91.334 -75 164.001 -75v0zM523.999 889.002c-7.33301 -4.66699 -17.168 -9.5 -29.501 -14.5s-27.833 -7.5 -46.5 -7.5c-17.333 0 -32.833 2.16699 -46.5 6.5s-26.667 8.66602 -39 12.999s-26.166 6.5 -41.499 6.5
c-14.667 0 -26.167 -2.33301 -34.5 -7l-25.5 -14c-3.33301 -2 -6.16602 -2.83301 -8.49902 -2.5s-4.16602 2.83301 -5.49902 7.5l-10 26c-0.666992 4 -1 6.83301 -1 8.5s1.66699 3.83398 5 6.50098c10.667 8 21.667 15 33 21s25.666 9 42.999 9
c16.667 0 32.167 -2.16699 46.5 -6.5s28.5 -9 42.5 -14s28.333 -7.5 43 -7.5c12.667 0 23.167 2 31.5 6s16.833 8.66699 25.5 14c4 2 7.33301 2.83301 10 2.5s4.66699 -2.83301 6 -7.5l10 -31c1.33301 -4.66699 -1.33398 -9.66699 -8.00098 -15v0z" />
    <glyph glyph-name="Odieresis" unicode="&#xd6;" horiz-adv-x="764" 
d="M382 -10c-65.333 0 -121.832 14.6689 -169.499 44.002s-84.167 72.166 -109.5 128.499s-38 124.833 -38 205.5c0 81.333 13 150.666 39 207.999s62.667 101 110 131s103.666 45 168.999 45s121.5 -15 168.5 -45s83.333 -73.333 109 -130s38.5 -126 38.5 -208
c0 -80.667 -12.667 -149.167 -38 -205.5s-61.833 -99.333 -109.5 -129s-104.167 -44.5 -169.5 -44.5v0zM384.001 63.002c72 0 125.831 24.833 161.498 74.5s53.5 126.5 53.5 230.5c0 106 -18.167 184.333 -54.5 235s-90.166 76 -161.499 76c-72 0 -126.333 -25.5 -163 -76.5
s-55 -129.167 -55 -234.5c0 -103.333 18.333 -180 55 -230s91.334 -75 164.001 -75v0zM351.999 859.002c0 -6 -1.16699 -10 -3.5 -12s-6.83301 -3 -13.5 -3h-53c-5.33301 0 -9 1 -11 3s-3 5.33301 -3 10v84c0 8.66699 3.66699 13 11 13h62c7.33301 0 11 -4 11 -12v-83z
M497.999 859.002c0 -6 -1.16699 -10 -3.5 -12s-6.83301 -3 -13.5 -3h-52c-6 0 -9.83301 1 -11.5 3s-2.5 5.33301 -2.5 10v84c0 8.66699 3.66699 13 11 13h61c7.33301 0 11 -4 11 -12v-83z" />
    <glyph glyph-name="multiply" unicode="&#xd7;" horiz-adv-x="540" 
d="M441 174c-6.66699 -6.66699 -13.666 -6 -20.999 2l-350 349c-3.33301 3.33301 -4.83301 6.33301 -4.5 9s1.83301 5.66699 4.5 9l30 30c6 5.33301 11 6 15 2l357 -357c1.33301 -1.33301 2.16602 -3.33301 2.49902 -6s-0.5 -5 -2.5 -7zM72.001 202
c-6.66699 6 -6.33301 13.001 1 21.001l349 350c4 3.33301 7.33301 5 10 5s5.33398 -1.66699 8.00098 -5l31 -31c4.66699 -4.66699 5 -9.33398 1 -14.001l-356 -356c-4.66699 -4.66699 -9.33398 -5 -14.001 -1z" />
    <glyph glyph-name="Oslash" unicode="&#xd8;" horiz-adv-x="729" 
d="M709 716c5.33301 -5.33301 5.66406 -10.668 0.99707 -16.001l-83 -92c18 -30 31.667 -65.167 41 -105.5s14 -84.833 14 -133.5c0 -80.667 -12.833 -149.167 -38.5 -205.5s-62.167 -99.333 -109.5 -129s-103.666 -44.5 -168.999 -44.5c-46 0 -87.667 7.33301 -125 22
s-69.333 36 -96 64l-68 -76c-4 -5.33301 -8 -8 -12 -8s-8.66699 2 -14 6l-23 23c-8 8 -9.33301 15 -4 21l79 88c-17.333 30.667 -30.666 65.834 -39.999 105.501s-14 83.834 -14 132.501c0 81.333 12.833 150.666 38.5 207.999s62.334 101 110.001 131s104.167 45 169.5 45
c45.333 0 86.5 -7.5 123.5 -22.5s69.167 -37.167 96.5 -66.5l72 81c6.66699 6.66699 12.667 7.66699 18 3l33 -31v0zM149.998 367.998c0 -32.667 2.16699 -62.333 6.5 -89s11.166 -50.667 20.499 -72l349 394c-35.333 51.333 -88.666 77 -159.999 77
c-72 0 -126 -25.333 -162 -76s-54 -128.667 -54 -234v0zM578.998 367.999c0 33.333 -2.16797 63.668 -6.50098 91.001s-11.166 51.666 -20.499 72.999l-348 -394c36 -49.333 90 -74 162 -74s125.5 24.667 160.5 74s52.5 126 52.5 230v0z" />
    <glyph glyph-name="Ugrave" unicode="&#xd9;" horiz-adv-x="709" 
d="M622 247c0 -59.333 -10.167 -108 -30.5 -146s-50.5 -66 -90.5 -84s-88.667 -27 -146 -27c-62.667 0 -113.667 10 -153 30s-68.333 50.333 -87 91s-28 91.667 -28 153v464c0 9.33301 4 14 12 14h72c8 0 12 -4.33301 12 -13v-486c0 -60.667 15 -105.667 45 -135
s74.333 -44 133 -44c38.667 0 71.5 6.5 98.5 19.5s47.333 32.833 61 59.5s20.5 61 20.5 103v483c0 8.66699 3.66699 13 11 13h59c7.33301 0 11 -4 11 -12v-483v0zM251 958c2.66699 5.33301 6.66699 7 12 5l232 -93c5.33301 -2 6.66602 -6.66699 3.99902 -14l-8 -22
c-1.33301 -4 -3.16602 -6.5 -5.49902 -7.5s-5.83301 -1.16699 -10.5 -0.5l-228 69c-10 3.33301 -13.667 9.33301 -11 18l15 45v0z" />
    <glyph glyph-name="Uacute" unicode="&#xda;" horiz-adv-x="709" 
d="M622 247c0 -59.333 -10.167 -108 -30.5 -146s-50.5 -66 -90.5 -84s-88.667 -27 -146 -27c-62.667 0 -113.667 10 -153 30s-68.333 50.333 -87 91s-28 91.667 -28 153v464c0 9.33301 4 14 12 14h72c8 0 12 -4.33301 12 -13v-486c0 -60.667 15 -105.667 45 -135
s74.333 -44 133 -44c38.667 0 71.5 6.5 98.5 19.5s47.333 32.833 61 59.5s20.5 61 20.5 103v483c0 8.66699 3.66699 13 11 13h59c7.33301 0 11 -4 11 -12v-483v0zM497 915c2.66699 -8.66699 -1 -14.667 -11 -18l-228 -69c-4.66699 -0.666992 -8.16699 -0.5 -10.5 0.5
s-4.16602 3.5 -5.49902 7.5l-8 22c-2.66699 7.33301 -1.33398 12 3.99902 14l232 93c6 2 10 0.333008 12 -5z" />
    <glyph glyph-name="Ucircumflex" unicode="&#xdb;" horiz-adv-x="709" 
d="M622 247c0 -59.333 -10.167 -108 -30.5 -146s-50.5 -66 -90.5 -84s-88.667 -27 -146 -27c-62.667 0 -113.667 10 -153 30s-68.333 50.333 -87 91s-28 91.667 -28 153v464c0 9.33301 4 14 12 14h72c8 0 12 -4.33301 12 -13v-486c0 -60.667 15 -105.667 45 -135
s74.333 -44 133 -44c38.667 0 71.5 6.5 98.5 19.5s47.333 32.833 61 59.5s20.5 61 20.5 103v483c0 8.66699 3.66699 13 11 13h59c7.33301 0 11 -4 11 -12v-483v0zM372 899c-4.66699 5.33301 -8.00195 8.00098 -10.002 8.00098s-6.33301 -2.66699 -13 -8l-57 -50
c-4 -2.66699 -7 -4.33398 -9 -5.00098s-5 -1 -9 -1h-54c-4.66699 0 -7.16699 1.16699 -7.5 3.5s1.16699 5.16602 4.5 8.49902l103 91c3.33301 3.33301 6.83301 6 10.5 8s8.5 3 14.5 3h39c4.66699 0 8.33398 -1.16699 11.001 -3.5s5.33398 -4.5 8.00098 -6.5l102 -92
c8.66699 -8 8 -12 -2 -12h-58c-4 0 -7.33301 0.333008 -10 1s-5.66699 2.33398 -9 5.00098z" />
    <glyph glyph-name="Udieresis" unicode="&#xdc;" horiz-adv-x="709" 
d="M622 247c0 -59.333 -10.167 -108 -30.5 -146s-50.5 -66 -90.5 -84s-88.667 -27 -146 -27c-62.667 0 -113.667 10 -153 30s-68.333 50.333 -87 91s-28 91.667 -28 153v464c0 9.33301 4 14 12 14h72c8 0 12 -4.33301 12 -13v-486c0 -60.667 15 -105.667 45 -135
s74.333 -44 133 -44c38.667 0 71.5 6.5 98.5 19.5s47.333 32.833 61 59.5s20.5 61 20.5 103v483c0 8.66699 3.66699 13 11 13h59c7.33301 0 11 -4 11 -12v-483v0zM331 859c0 -6 -1.16699 -10 -3.5 -12s-6.83301 -3 -13.5 -3h-53c-5.33301 0 -9 1 -11 3s-3 5.33301 -3 10v84
c0 8.66699 3.66699 13 11 13h62c7.33301 0 11 -4 11 -12v-83zM477 859c0 -6 -1.16699 -10 -3.5 -12s-6.83301 -3 -13.5 -3h-52c-6 0 -9.83301 1 -11.5 3s-2.5 5.33301 -2.5 10v84c0 8.66699 3.66699 13 11 13h61c7.33301 0 11 -4 11 -12v-83z" />
    <glyph glyph-name="Yacute" unicode="&#xdd;" horiz-adv-x="675" 
d="M624 742c4.66699 0 7.83105 -1.33398 9.49805 -4.00098s1.16699 -6 -1.5 -10l-238 -398c-2.66699 -4 -4.33398 -8 -5.00098 -12s-1 -11 -1 -21v-280c0 -11.333 -6.33301 -17 -19 -17h-60c-6.66699 0 -11 1.33301 -13 4s-3 6.33398 -3 11.001v278
c0 6.66699 -0.666992 11.667 -2 15s-3.33301 7.33301 -6 12l-241 406c-2.66699 4.66699 -3.16699 8.5 -1.5 11.5s5.83398 4.5 12.501 4.5h72c6 0 10.333 -0.833008 13 -2.5s5.33398 -4.83398 8.00098 -9.50098l186 -320c4 -7.33301 7.66699 -11.166 11 -11.499
s7 2.83398 11 9.50098l185 322c2.66699 5.33301 5.33398 8.66602 8.00098 9.99902s7 2 13 2h62v0zM472.997 914.999c2.66699 -8.66699 -1 -14.667 -11 -18l-228 -69c-4.66699 -0.666992 -8.16699 -0.5 -10.5 0.5s-4.16602 3.5 -5.49902 7.5l-8 22
c-2.66699 7.33301 -1.33398 12 3.99902 14l232 93c6 2 10 0.333008 12 -5z" />
    <glyph glyph-name="Thorn" unicode="&#xde;" horiz-adv-x="693" 
d="M640 385c0 -49.333 -11.502 -89.832 -34.502 -121.499s-54.167 -55 -93.5 -70s-84.666 -22.5 -135.999 -22.5h-174c-6 0 -9 -3.33301 -9 -10v-146c0 -10 -5 -15 -15 -15h-68c-4.66699 0 -8 1 -10 3s-3 5.33301 -3 10v715c0 9.33301 4 14 12 14h72c8 0 12 -4.33301 12 -13
v-135c0 -4.66699 2.33301 -7 7 -7h164c52.667 0 99.834 -7.16699 141.501 -21.5s74.5 -36.333 98.5 -66s36 -67.834 36 -114.501v0zM540.998 386.001c0 46 -16.333 78.833 -49 98.5s-76.667 29.5 -132 29.5h-154c-8.66699 0 -13 -4 -13 -12v-245c0 -8.66699 3 -13 9 -13h164
c53.333 0 95.833 11.333 127.5 34s47.5 58.667 47.5 108v0z" />
    <glyph glyph-name="germandbls" unicode="&#xdf;" horiz-adv-x="608" 
d="M320 742c42 0 75.834 -6.66406 101.501 -19.9971s44.334 -30.666 56.001 -51.999s17.5 -44.333 17.5 -69c0 -25.333 -5.33301 -46.333 -16 -63s-25.167 -30.667 -43.5 -42s-38.833 -22.333 -61.5 -33c-22.667 -12.667 -38.5 -22.5 -47.5 -29.5s-13.5 -16.833 -13.5 -29.5
s4.16699 -21.834 12.5 -27.501s23.833 -12.167 46.5 -19.5c19.333 -6.66699 40 -14.667 62 -24s42.667 -20.833 62 -34.5s35.166 -31.5 47.499 -53.5s18.5 -49 18.5 -81c0 -38 -8.83301 -70 -26.5 -96s-41.5 -45.5 -71.5 -58.5s-63.667 -19.5 -101 -19.5
c-23.333 0 -46.833 2.66699 -70.5 8s-43.834 12.666 -60.501 21.999c-6 3.33301 -7.66699 8 -5 14l23 42c2.66699 4 7 4.33301 13 1c13.333 -7.33301 27.166 -13.5 41.499 -18.5s31.5 -7.5 51.5 -7.5c38.667 0 69.5 9.16699 92.5 27.5s34.5 44.166 34.5 77.499
c0 24.667 -6 44.5 -18 59.5s-27.833 27 -47.5 36s-41.167 17.167 -64.5 24.5c-17.333 6.66699 -34.5 14.167 -51.5 22.5s-30.833 19.666 -41.5 33.999s-16 33.166 -16 56.499c0 26 7.33301 47.167 22 63.5s36.667 32.833 66 49.5l39 24.5
c12.667 8.33301 23.167 18.333 31.5 30s12.5 26.167 12.5 43.5c0 24.667 -8.83301 44.167 -26.5 58.5s-43.167 21.5 -76.5 21.5c-40 0 -72.333 -12.167 -97 -36.5s-37 -60.5 -37 -108.5v-522c1.33301 -8.66699 -2 -13 -10 -13h-63c-6.66699 0 -10 3.66699 -10 11v437
c0 6.66699 -2.66699 10 -8 10h-52c-7.33301 0 -11 3.33301 -11 10v42c0 2.66699 0.833008 5.16699 2.5 7.5s4.5 3.5 8.5 3.5h51c4 0 6.33301 1 7 3s1 4.33301 1 7c0.666992 31.333 5.83398 59.833 15.501 85.5s24 47.834 43 66.501s42.667 33.167 71 43.5
s60.5 15.5 96.5 15.5v0z" />
    <glyph glyph-name="agrave" unicode="&#xe0;" horiz-adv-x="548" 
d="M382 64c-24.667 -24 -51.498 -42.332 -80.498 -54.999s-61.5 -19 -97.5 -19c-52 0 -92.833 13.333 -122.5 40s-44.5 61.667 -44.5 105c0 35.333 10 65.833 30 91.5s49.667 46 89 61s87.666 24.167 144.999 27.5l78 6c4 0.666992 7.66699 2 11 4s5 5.66699 5 11v27
c0 36 -11.167 64.5 -33.5 85.5s-52.5 31.5 -90.5 31.5c-29.333 0 -55.833 -6.66699 -79.5 -20s-44.834 -33.333 -63.501 -60c-2.66699 -3.33301 -4.83398 -5.5 -6.50098 -6.5s-4.5 -0.833008 -8.5 0.5l-54 18c-2 1.33301 -3.5 3 -4.5 5s-0.166992 5.66699 2.5 11
c20 34.667 48.167 62 84.5 82s80.833 30 133.5 30c44.667 0 81.834 -6.83301 111.501 -20.5s52 -33.334 67 -59.001s22.5 -56.167 22.5 -91.5v-354c0 -6 -1 -10 -3 -12s-5.33301 -3 -10 -3h-51c-4.66699 0 -8 1.5 -10 4.5s-3.33301 6.83301 -4 11.5l-1 46
c-2 9.33301 -7 10 -15 2v0zM395.002 254.001c0 11.333 -4.66602 16.665 -13.999 15.998l-66 -6c-30.667 -1.33301 -58 -5.16602 -82 -11.499s-44.333 -14.5 -61 -24.5s-29.334 -21.833 -38.001 -35.5s-13 -29.5 -13 -47.5c0 -29.333 10.167 -52.166 30.5 -68.499
s47.833 -24.5 82.5 -24.5c21.333 0 41.833 3.83301 61.5 11.5s36.834 17.5 51.501 29.5c15.333 12.667 27.166 25.667 35.499 39s12.5 26.333 12.5 39v83v0zM160.003 746c2.66699 5.33301 6.66699 7 12 5l232 -93c5.33301 -2 6.66602 -6.66699 3.99902 -14l-8 -22
c-1.33301 -4 -3.16602 -6.5 -5.49902 -7.5s-5.83301 -1.16699 -10.5 -0.5l-228 69c-10 3.33301 -13.667 9.33301 -11 18l15 45v0z" />
    <glyph glyph-name="aacute" unicode="&#xe1;" horiz-adv-x="548" 
d="M382 64c-24.667 -24 -51.498 -42.332 -80.498 -54.999s-61.5 -19 -97.5 -19c-52 0 -92.833 13.333 -122.5 40s-44.5 61.667 -44.5 105c0 35.333 10 65.833 30 91.5s49.667 46 89 61s87.666 24.167 144.999 27.5l78 6c4 0.666992 7.66699 2 11 4s5 5.66699 5 11v27
c0 36 -11.167 64.5 -33.5 85.5s-52.5 31.5 -90.5 31.5c-29.333 0 -55.833 -6.66699 -79.5 -20s-44.834 -33.333 -63.501 -60c-2.66699 -3.33301 -4.83398 -5.5 -6.50098 -6.5s-4.5 -0.833008 -8.5 0.5l-54 18c-2 1.33301 -3.5 3 -4.5 5s-0.166992 5.66699 2.5 11
c20 34.667 48.167 62 84.5 82s80.833 30 133.5 30c44.667 0 81.834 -6.83301 111.501 -20.5s52 -33.334 67 -59.001s22.5 -56.167 22.5 -91.5v-354c0 -6 -1 -10 -3 -12s-5.33301 -3 -10 -3h-51c-4.66699 0 -8 1.5 -10 4.5s-3.33301 6.83301 -4 11.5l-1 46
c-2 9.33301 -7 10 -15 2v0zM395.002 254.001c0 11.333 -4.66602 16.665 -13.999 15.998l-66 -6c-30.667 -1.33301 -58 -5.16602 -82 -11.499s-44.333 -14.5 -61 -24.5s-29.334 -21.833 -38.001 -35.5s-13 -29.5 -13 -47.5c0 -29.333 10.167 -52.166 30.5 -68.499
s47.833 -24.5 82.5 -24.5c21.333 0 41.833 3.83301 61.5 11.5s36.834 17.5 51.501 29.5c15.333 12.667 27.166 25.667 35.499 39s12.5 26.333 12.5 39v83v0zM406.003 703c2.66699 -8.66699 -1 -14.667 -11 -18l-228 -69c-4.66699 -0.666992 -8.16699 -0.5 -10.5 0.5
s-4.16602 3.5 -5.49902 7.5l-8 22c-2.66699 7.33301 -1.33398 12 3.99902 14l232 93c6 2 10 0.333008 12 -5z" />
    <glyph glyph-name="acircumflex" unicode="&#xe2;" horiz-adv-x="548" 
d="M382 64c-24.667 -24 -51.498 -42.332 -80.498 -54.999s-61.5 -19 -97.5 -19c-52 0 -92.833 13.333 -122.5 40s-44.5 61.667 -44.5 105c0 35.333 10 65.833 30 91.5s49.667 46 89 61s87.666 24.167 144.999 27.5l78 6c4 0.666992 7.66699 2 11 4s5 5.66699 5 11v27
c0 36 -11.167 64.5 -33.5 85.5s-52.5 31.5 -90.5 31.5c-29.333 0 -55.833 -6.66699 -79.5 -20s-44.834 -33.333 -63.501 -60c-2.66699 -3.33301 -4.83398 -5.5 -6.50098 -6.5s-4.5 -0.833008 -8.5 0.5l-54 18c-2 1.33301 -3.5 3 -4.5 5s-0.166992 5.66699 2.5 11
c20 34.667 48.167 62 84.5 82s80.833 30 133.5 30c44.667 0 81.834 -6.83301 111.501 -20.5s52 -33.334 67 -59.001s22.5 -56.167 22.5 -91.5v-354c0 -6 -1 -10 -3 -12s-5.33301 -3 -10 -3h-51c-4.66699 0 -8 1.5 -10 4.5s-3.33301 6.83301 -4 11.5l-1 46
c-2 9.33301 -7 10 -15 2v0zM395.002 254.001c0 11.333 -4.66602 16.665 -13.999 15.998l-66 -6c-30.667 -1.33301 -58 -5.16602 -82 -11.499s-44.333 -14.5 -61 -24.5s-29.334 -21.833 -38.001 -35.5s-13 -29.5 -13 -47.5c0 -29.333 10.167 -52.166 30.5 -68.499
s47.833 -24.5 82.5 -24.5c21.333 0 41.833 3.83301 61.5 11.5s36.834 17.5 51.501 29.5c15.333 12.667 27.166 25.667 35.499 39s12.5 26.333 12.5 39v83v0zM282.003 687c-4.66699 5.33301 -8.00195 8.00098 -10.002 8.00098s-6.33301 -2.66699 -13 -8l-57 -50
c-4 -2.66699 -7 -4.33398 -9 -5.00098s-5 -1 -9 -1h-54c-4.66699 0 -7.16699 1.16699 -7.5 3.5s1.16699 5.16602 4.5 8.49902l103 91c3.33301 3.33301 6.83301 6 10.5 8s8.5 3 14.5 3h39c4.66699 0 8.33398 -1.16699 11.001 -3.5s5.33398 -4.5 8.00098 -6.5l102 -92
c8.66699 -8 8 -12 -2 -12h-58c-4 0 -7.33301 0.333008 -10 1s-5.66699 2.33398 -9 5.00098z" />
    <glyph glyph-name="atilde" unicode="&#xe3;" horiz-adv-x="548" 
d="M382 64c-24.667 -24 -51.498 -42.332 -80.498 -54.999s-61.5 -19 -97.5 -19c-52 0 -92.833 13.333 -122.5 40s-44.5 61.667 -44.5 105c0 35.333 10 65.833 30 91.5s49.667 46 89 61s87.666 24.167 144.999 27.5l78 6c4 0.666992 7.66699 2 11 4s5 5.66699 5 11v27
c0 36 -11.167 64.5 -33.5 85.5s-52.5 31.5 -90.5 31.5c-29.333 0 -55.833 -6.66699 -79.5 -20s-44.834 -33.333 -63.501 -60c-2.66699 -3.33301 -4.83398 -5.5 -6.50098 -6.5s-4.5 -0.833008 -8.5 0.5l-54 18c-2 1.33301 -3.5 3 -4.5 5s-0.166992 5.66699 2.5 11
c20 34.667 48.167 62 84.5 82s80.833 30 133.5 30c44.667 0 81.834 -6.83301 111.501 -20.5s52 -33.334 67 -59.001s22.5 -56.167 22.5 -91.5v-354c0 -6 -1 -10 -3 -12s-5.33301 -3 -10 -3h-51c-4.66699 0 -8 1.5 -10 4.5s-3.33301 6.83301 -4 11.5l-1 46
c-2 9.33301 -7 10 -15 2v0zM395.002 254.001c0 11.333 -4.66602 16.665 -13.999 15.998l-66 -6c-30.667 -1.33301 -58 -5.16602 -82 -11.499s-44.333 -14.5 -61 -24.5s-29.334 -21.833 -38.001 -35.5s-13 -29.5 -13 -47.5c0 -29.333 10.167 -52.166 30.5 -68.499
s47.833 -24.5 82.5 -24.5c21.333 0 41.833 3.83301 61.5 11.5s36.834 17.5 51.501 29.5c15.333 12.667 27.166 25.667 35.499 39s12.5 26.333 12.5 39v83v0zM413.003 677c-7.33301 -4.66699 -17.168 -9.5 -29.501 -14.5s-27.833 -7.5 -46.5 -7.5
c-17.333 0 -32.833 2.16699 -46.5 6.5s-26.667 8.66602 -39 12.999s-26.166 6.5 -41.499 6.5c-14.667 0 -26.167 -2.33301 -34.5 -7l-25.5 -14c-3.33301 -2 -6.16602 -2.83301 -8.49902 -2.5s-4.16602 2.83301 -5.49902 7.5l-10 26c-0.666992 4 -1 6.83301 -1 8.5
s1.66699 3.83398 5 6.50098c10.667 8 21.667 15 33 21s25.666 9 42.999 9c16.667 0 32.167 -2.16699 46.5 -6.5s28.5 -9 42.5 -14s28.333 -7.5 43 -7.5c12.667 0 23.167 2 31.5 6s16.833 8.66699 25.5 14c4 2 7.33301 2.83301 10 2.5s4.66699 -2.83301 6 -7.5l10 -31
c1.33301 -4.66699 -1.33398 -9.66699 -8.00098 -15v0z" />
    <glyph glyph-name="adieresis" unicode="&#xe4;" horiz-adv-x="548" 
d="M382 64c-24.667 -24 -51.498 -42.332 -80.498 -54.999s-61.5 -19 -97.5 -19c-52 0 -92.833 13.333 -122.5 40s-44.5 61.667 -44.5 105c0 35.333 10 65.833 30 91.5s49.667 46 89 61s87.666 24.167 144.999 27.5l78 6c4 0.666992 7.66699 2 11 4s5 5.66699 5 11v27
c0 36 -11.167 64.5 -33.5 85.5s-52.5 31.5 -90.5 31.5c-29.333 0 -55.833 -6.66699 -79.5 -20s-44.834 -33.333 -63.501 -60c-2.66699 -3.33301 -4.83398 -5.5 -6.50098 -6.5s-4.5 -0.833008 -8.5 0.5l-54 18c-2 1.33301 -3.5 3 -4.5 5s-0.166992 5.66699 2.5 11
c20 34.667 48.167 62 84.5 82s80.833 30 133.5 30c44.667 0 81.834 -6.83301 111.501 -20.5s52 -33.334 67 -59.001s22.5 -56.167 22.5 -91.5v-354c0 -6 -1 -10 -3 -12s-5.33301 -3 -10 -3h-51c-4.66699 0 -8 1.5 -10 4.5s-3.33301 6.83301 -4 11.5l-1 46
c-2 9.33301 -7 10 -15 2v0zM395.002 254.001c0 11.333 -4.66602 16.665 -13.999 15.998l-66 -6c-30.667 -1.33301 -58 -5.16602 -82 -11.499s-44.333 -14.5 -61 -24.5s-29.334 -21.833 -38.001 -35.5s-13 -29.5 -13 -47.5c0 -29.333 10.167 -52.166 30.5 -68.499
s47.833 -24.5 82.5 -24.5c21.333 0 41.833 3.83301 61.5 11.5s36.834 17.5 51.501 29.5c15.333 12.667 27.166 25.667 35.499 39s12.5 26.333 12.5 39v83v0zM240.003 647c0 -6 -1.16699 -10 -3.5 -12s-6.83301 -3 -13.5 -3h-53c-5.33301 0 -9 1 -11 3s-3 5.33301 -3 10v84
c0 8.66699 3.66699 13 11 13h62c7.33301 0 11 -4 11 -12v-83zM386.003 647c0 -6 -1.16699 -10 -3.5 -12s-6.83301 -3 -13.5 -3h-52c-6 0 -9.83301 1 -11.5 3s-2.5 5.33301 -2.5 10v84c0 8.66699 3.66699 13 11 13h61c7.33301 0 11 -4 11 -12v-83z" />
    <glyph glyph-name="aring" unicode="&#xe5;" horiz-adv-x="548" 
d="M382 64c-24.667 -24 -51.498 -42.332 -80.498 -54.999s-61.5 -19 -97.5 -19c-52 0 -92.833 13.333 -122.5 40s-44.5 61.667 -44.5 105c0 35.333 10 65.833 30 91.5s49.667 46 89 61s87.666 24.167 144.999 27.5l78 6c4 0.666992 7.66699 2 11 4s5 5.66699 5 11v27
c0 36 -11.167 64.5 -33.5 85.5s-52.5 31.5 -90.5 31.5c-29.333 0 -55.833 -6.66699 -79.5 -20s-44.834 -33.333 -63.501 -60c-2.66699 -3.33301 -4.83398 -5.5 -6.50098 -6.5s-4.5 -0.833008 -8.5 0.5l-54 18c-2 1.33301 -3.5 3 -4.5 5s-0.166992 5.66699 2.5 11
c20 34.667 48.167 62 84.5 82s80.833 30 133.5 30c44.667 0 81.834 -6.83301 111.501 -20.5s52 -33.334 67 -59.001s22.5 -56.167 22.5 -91.5v-354c0 -6 -1 -10 -3 -12s-5.33301 -3 -10 -3h-51c-4.66699 0 -8 1.5 -10 4.5s-3.33301 6.83301 -4 11.5l-1 46
c-2 9.33301 -7 10 -15 2v0zM395.002 254.001c0 11.333 -4.66602 16.665 -13.999 15.998l-66 -6c-30.667 -1.33301 -58 -5.16602 -82 -11.499s-44.333 -14.5 -61 -24.5s-29.334 -21.833 -38.001 -35.5s-13 -29.5 -13 -47.5c0 -29.333 10.167 -52.166 30.5 -68.499
s47.833 -24.5 82.5 -24.5c21.333 0 41.833 3.83301 61.5 11.5s36.834 17.5 51.501 29.5c15.333 12.667 27.166 25.667 35.499 39s12.5 26.333 12.5 39v83v0zM376.003 698c0 -30 -10.168 -55.002 -30.501 -75.002s-45.166 -30 -74.499 -30s-54 10.333 -74 31s-30 46 -30 76
c0 18.667 4.66699 35.667 14 51s22 27.5 38 36.5s33.333 13.5 52 13.5c20 0 37.833 -4.66699 53.5 -14s28.167 -21.666 37.5 -36.999s14 -32.666 14 -51.999v0zM326.002 696.998c0 16 -5.33301 29.333 -16 40s-24 16 -40 16c-14.667 0 -27.667 -5.33301 -39 -16
s-17 -24 -17 -40c0 -14.667 5.66699 -27.667 17 -39s24.333 -17 39 -17c16 0 29.333 5.66699 40 17s16 24.333 16 39v0z" />
    <glyph glyph-name="ae" unicode="&#xe6;" horiz-adv-x="923" 
d="M495 246c-8 0 -13.1621 -1.33398 -15.4951 -4.00098s-3.5 -8.66699 -3.5 -18c0 -21.333 4.5 -42.166 13.5 -62.499s21.333 -38.666 37 -54.999s34 -29.166 55 -38.499s43.5 -14 67.5 -14c28.667 0 52.5 4 71.5 12s35.5 18.333 49.5 31s26.333 26 37 40
c2.66699 2.66699 4.66699 4.16699 6 4.5s4 -0.166992 8 -1.5l41 -21c5.33301 -2.66699 5.66602 -7.33398 0.999023 -14.001c-14.667 -24 -33 -44.667 -55 -62s-47 -30.5 -75 -39.5s-59 -13.5 -93 -13.5c-36.667 0 -68.167 5.83301 -94.5 17.5s-48.5 26 -66.5 43
s-32.667 32.833 -44 47.5c-2 2.66699 -4.33301 2.66699 -7 0c-14 -16.667 -30.667 -33.334 -50 -50.001s-43 -30.5 -71 -41.5s-62 -16.5 -102 -16.5c-53.333 0 -94.666 13.333 -123.999 40s-44 62.667 -44 108c0 50.667 20.667 91.167 62 121.5s104.666 48.5 189.999 54.5
l88 7c5.33301 0.666992 9.66602 2 12.999 4s5 5.66699 5 11v27c0 36 -10.833 64.5 -32.5 85.5s-53.5 31.5 -95.5 31.5c-26.667 0 -51.834 -6.66699 -75.501 -20s-45.167 -33.333 -64.5 -60c-2.66699 -4 -5 -6.33301 -7 -7s-5 -0.333984 -9 0.999023l-52 18
c-2 1.33301 -3.16699 3.5 -3.5 6.5s0.166992 6.16699 1.5 9.5c14.667 24 32.167 44.333 52.5 61s44.333 29.334 72 38.001s58.5 13 92.5 13c48 0 86.667 -8.16699 116 -24.5s50 -40.5 62 -72.5c20.667 32 47.167 56.167 79.5 72.5s69.166 24.5 110.499 24.5
c47.333 0 89.166 -10.667 125.499 -32s64.5 -52.166 84.5 -92.499s30 -89.5 30 -147.5c0 -6.66699 -1 -11.834 -3 -15.501s-7 -5.5 -15 -5.5l-369 -1v0zM642.005 479.999c-30.667 0 -58.166 -7.16797 -82.499 -21.501s-43.833 -34.833 -58.5 -61.5s-22.334 -58 -23.001 -94
l303 -1c7.33301 0 12 1 14 3s3 6 3 12c0 28.667 -6.66699 55.334 -20 80.001s-31.5 44.667 -54.5 60s-50.167 23 -81.5 23v0zM395.006 251.998c0 5.33301 -1.00195 9.16602 -3.00195 11.499s-6.33301 3.5 -13 3.5l-73 -6c-39.333 -2.66699 -72.666 -9 -99.999 -19
s-48.166 -23.167 -62.499 -39.5s-21.5 -36.166 -21.5 -59.499c0 -28 9.83301 -50.667 29.5 -68s47.167 -25.333 82.5 -24c30 1.33301 57 7.5 81 18.5s43.333 25.5 58 43.5s22 37.667 22 59v80v0z" />
    <glyph glyph-name="ccedilla" unicode="&#xe7;" horiz-adv-x="542" 
d="M297 540c34.667 0 65.165 -5.49902 91.498 -16.499s49 -26 68 -45s34.833 -39.833 47.5 -62.5c4 -8 2.33301 -13 -5 -15l-55 -13c-4.66699 -2 -9 0 -13 6c-13.333 19.333 -26.5 35 -39.5 47s-26.833 21.167 -41.5 27.5s-30.667 9.5 -48 9.5
c-34 0 -63.833 -8.5 -89.5 -25.5s-45.5 -41.5 -59.5 -73.5s-21 -70 -21 -114c0 -44.667 7.16699 -83 21.5 -115s34.333 -56.333 60 -73s55.834 -25 90.501 -25c32 0 59.667 8 83 24s44.666 39.333 63.999 70c2 3.33301 3.83301 5.16602 5.5 5.49902
s4.16699 -0.166992 7.5 -1.5l43 -16c4.66699 -2 6 -6.33301 4 -13c-10 -17.333 -21.667 -34 -35 -50s-28.833 -30 -46.5 -42s-37.5 -21.5 -59.5 -28.5s-46.333 -10.5 -73 -10.5c-49.333 0 -92.833 11.5 -130.5 34.5s-67.167 55 -88.5 96s-32 88.5 -32 142.5
c0 54.667 10.833 102.667 32.5 144s51.334 73.833 89.001 97.5s80.834 35.5 129.501 35.5v0zM387.998 -130.999c0 -17.333 -4.99609 -31.666 -14.9961 -42.999s-23.167 -20.166 -39.5 -26.499s-34.5 -9.5 -54.5 -9.5c-16.667 0 -32.334 1.83301 -47.001 5.5
s-28.334 9.16699 -41.001 16.5c-4 2.66699 -5.33301 5.66699 -4 9l11 26c2 3.33301 5 4 9 2c8 -5.33301 16.833 -9.83301 26.5 -13.5s21.5 -5.5 35.5 -5.5c19.333 0 33.666 3.16699 42.999 9.5s14 15.833 14 28.5c0 15.333 -6.5 26.666 -19.5 33.999s-33.5 11.333 -61.5 12
c-3.33301 0 -5.5 0.5 -6.5 1.5s-0.833008 2.5 0.5 4.5l37 85h47l-23 -57c-1.33301 -3.33301 0 -5 4 -5c21.333 -1.33301 38.166 -5.83301 50.499 -13.5s21 -16.834 26 -27.501s7.5 -21.667 7.5 -33v0z" />
    <glyph glyph-name="egrave" unicode="&#xe8;" horiz-adv-x="581" 
d="M133 232c0 -32.667 7.83594 -62.501 23.5029 -89.501s36.667 -48.5 63 -64.5s55.833 -24 88.5 -24c33.333 0 63 6.83301 89 20.5s48.333 34.5 67 62.5c2.66699 2.66699 4.83398 4.16699 6.50098 4.5s4.16699 -0.166992 7.5 -1.5l42 -21c6 -3.33301 6.66699 -8 2 -14
c-18 -26.667 -37.833 -48.5 -59.5 -65.5s-45.834 -29.5 -72.501 -37.5s-56.667 -12 -90 -12c-49.333 0 -93 11.333 -131 34s-68 54.334 -90 95.001s-33 87.667 -33 141c0 58 11.167 107.833 33.5 149.5s52.666 73.834 90.999 96.501s81.166 34 128.499 34
c48.667 0 91 -10.667 127 -32s64 -52.333 84 -93s30 -89.667 30 -147c0 -4.66699 -0.5 -9.33398 -1.5 -14.001s-5.5 -7 -13.5 -7h-383c-2.66699 0 -4.83398 -1.5 -6.50098 -4.5s-2.5 -6.5 -2.5 -10.5v0zM439.003 301.999c7.33301 0 12.001 0.833008 14.001 2.5s3 5.5 3 11.5
c0 28.667 -6.16699 55.5 -18.5 80.5s-30 45.167 -53 60.5s-50.833 23 -83.5 23c-36 0 -66.333 -8.5 -91 -25.5s-43.334 -39.167 -56.001 -66.5s-19 -56 -19 -86h304zM187.004 745.999c2.66699 5.33301 6.66699 7 12 5l232 -93c5.33301 -2 6.66602 -6.66699 3.99902 -14
l-8 -22c-1.33301 -4 -3.16602 -6.5 -5.49902 -7.5s-5.83301 -1.16699 -10.5 -0.5l-228 69c-10 3.33301 -13.667 9.33301 -11 18l15 45v0z" />
    <glyph glyph-name="eacute" unicode="&#xe9;" horiz-adv-x="581" 
d="M133 232c0 -32.667 7.83594 -62.501 23.5029 -89.501s36.667 -48.5 63 -64.5s55.833 -24 88.5 -24c33.333 0 63 6.83301 89 20.5s48.333 34.5 67 62.5c2.66699 2.66699 4.83398 4.16699 6.50098 4.5s4.16699 -0.166992 7.5 -1.5l42 -21c6 -3.33301 6.66699 -8 2 -14
c-18 -26.667 -37.833 -48.5 -59.5 -65.5s-45.834 -29.5 -72.501 -37.5s-56.667 -12 -90 -12c-49.333 0 -93 11.333 -131 34s-68 54.334 -90 95.001s-33 87.667 -33 141c0 58 11.167 107.833 33.5 149.5s52.666 73.834 90.999 96.501s81.166 34 128.499 34
c48.667 0 91 -10.667 127 -32s64 -52.333 84 -93s30 -89.667 30 -147c0 -4.66699 -0.5 -9.33398 -1.5 -14.001s-5.5 -7 -13.5 -7h-383c-2.66699 0 -4.83398 -1.5 -6.50098 -4.5s-2.5 -6.5 -2.5 -10.5v0zM439.003 301.999c7.33301 0 12.001 0.833008 14.001 2.5s3 5.5 3 11.5
c0 28.667 -6.16699 55.5 -18.5 80.5s-30 45.167 -53 60.5s-50.833 23 -83.5 23c-36 0 -66.333 -8.5 -91 -25.5s-43.334 -39.167 -56.001 -66.5s-19 -56 -19 -86h304zM433.004 702.999c2.66699 -8.66699 -1 -14.667 -11 -18l-228 -69
c-4.66699 -0.666992 -8.16699 -0.5 -10.5 0.5s-4.16602 3.5 -5.49902 7.5l-8 22c-2.66699 7.33301 -1.33398 12 3.99902 14l232 93c6 2 10 0.333008 12 -5z" />
    <glyph glyph-name="ecircumflex" unicode="&#xea;" horiz-adv-x="581" 
d="M133 232c0 -32.667 7.83594 -62.501 23.5029 -89.501s36.667 -48.5 63 -64.5s55.833 -24 88.5 -24c33.333 0 63 6.83301 89 20.5s48.333 34.5 67 62.5c2.66699 2.66699 4.83398 4.16699 6.50098 4.5s4.16699 -0.166992 7.5 -1.5l42 -21c6 -3.33301 6.66699 -8 2 -14
c-18 -26.667 -37.833 -48.5 -59.5 -65.5s-45.834 -29.5 -72.501 -37.5s-56.667 -12 -90 -12c-49.333 0 -93 11.333 -131 34s-68 54.334 -90 95.001s-33 87.667 -33 141c0 58 11.167 107.833 33.5 149.5s52.666 73.834 90.999 96.501s81.166 34 128.499 34
c48.667 0 91 -10.667 127 -32s64 -52.333 84 -93s30 -89.667 30 -147c0 -4.66699 -0.5 -9.33398 -1.5 -14.001s-5.5 -7 -13.5 -7h-383c-2.66699 0 -4.83398 -1.5 -6.50098 -4.5s-2.5 -6.5 -2.5 -10.5v0zM439.003 301.999c7.33301 0 12.001 0.833008 14.001 2.5s3 5.5 3 11.5
c0 28.667 -6.16699 55.5 -18.5 80.5s-30 45.167 -53 60.5s-50.833 23 -83.5 23c-36 0 -66.333 -8.5 -91 -25.5s-43.334 -39.167 -56.001 -66.5s-19 -56 -19 -86h304zM308.004 686.999c-4.66699 5.33301 -8.00195 8.00098 -10.002 8.00098s-6.33301 -2.66699 -13 -8l-57 -50
c-4 -2.66699 -7 -4.33398 -9 -5.00098s-5 -1 -9 -1h-54c-4.66699 0 -7.16699 1.16699 -7.5 3.5s1.16699 5.16602 4.5 8.49902l103 91c3.33301 3.33301 6.83301 6 10.5 8s8.5 3 14.5 3h39c4.66699 0 8.33398 -1.16699 11.001 -3.5s5.33398 -4.5 8.00098 -6.5l102 -92
c8.66699 -8 8 -12 -2 -12h-58c-4 0 -7.33301 0.333008 -10 1s-5.66699 2.33398 -9 5.00098z" />
    <glyph glyph-name="edieresis" unicode="&#xeb;" horiz-adv-x="581" 
d="M133 232c0 -32.667 7.83594 -62.501 23.5029 -89.501s36.667 -48.5 63 -64.5s55.833 -24 88.5 -24c33.333 0 63 6.83301 89 20.5s48.333 34.5 67 62.5c2.66699 2.66699 4.83398 4.16699 6.50098 4.5s4.16699 -0.166992 7.5 -1.5l42 -21c6 -3.33301 6.66699 -8 2 -14
c-18 -26.667 -37.833 -48.5 -59.5 -65.5s-45.834 -29.5 -72.501 -37.5s-56.667 -12 -90 -12c-49.333 0 -93 11.333 -131 34s-68 54.334 -90 95.001s-33 87.667 -33 141c0 58 11.167 107.833 33.5 149.5s52.666 73.834 90.999 96.501s81.166 34 128.499 34
c48.667 0 91 -10.667 127 -32s64 -52.333 84 -93s30 -89.667 30 -147c0 -4.66699 -0.5 -9.33398 -1.5 -14.001s-5.5 -7 -13.5 -7h-383c-2.66699 0 -4.83398 -1.5 -6.50098 -4.5s-2.5 -6.5 -2.5 -10.5v0zM439.003 301.999c7.33301 0 12.001 0.833008 14.001 2.5s3 5.5 3 11.5
c0 28.667 -6.16699 55.5 -18.5 80.5s-30 45.167 -53 60.5s-50.833 23 -83.5 23c-36 0 -66.333 -8.5 -91 -25.5s-43.334 -39.167 -56.001 -66.5s-19 -56 -19 -86h304zM266.004 646.999c0 -6 -1.16699 -10 -3.5 -12s-6.83301 -3 -13.5 -3h-53c-5.33301 0 -9 1 -11 3
s-3 5.33301 -3 10v84c0 8.66699 3.66699 13 11 13h62c7.33301 0 11 -4 11 -12v-83zM412.004 646.999c0 -6 -1.16699 -10 -3.5 -12s-6.83301 -3 -13.5 -3h-52c-6 0 -9.83301 1 -11.5 3s-2.5 5.33301 -2.5 10v84c0 8.66699 3.66699 13 11 13h61c7.33301 0 11 -4 11 -12v-83z
" />
    <glyph glyph-name="igrave" unicode="&#xec;" horiz-adv-x="239" 
d="M161 17c0 -6.66699 -1.16797 -11.167 -3.50098 -13.5s-7.16602 -3.5 -14.499 -3.5h-51c-6 0 -10 1 -12 3s-3 5.66699 -3 11v502c0 9.33301 4 14 12 14h61c7.33301 0 11 -4.33301 11 -13v-500zM8.99902 746c2.66699 5.33301 6.66699 7 12 5l232 -93
c5.33301 -2 6.66602 -6.66699 3.99902 -14l-8 -22c-1.33301 -4 -3.16602 -6.5 -5.49902 -7.5s-5.83301 -1.16699 -10.5 -0.5l-228 69c-10 3.33301 -13.667 9.33301 -11 18l15 45v0z" />
    <glyph glyph-name="iacute" unicode="&#xed;" horiz-adv-x="239" 
d="M161 17c0 -6.66699 -1.16797 -11.167 -3.50098 -13.5s-7.16602 -3.5 -14.499 -3.5h-51c-6 0 -10 1 -12 3s-3 5.66699 -3 11v502c0 9.33301 4 14 12 14h61c7.33301 0 11 -4.33301 11 -13v-500zM254.999 703c2.66699 -8.66699 -1 -14.667 -11 -18l-228 -69
c-4.66699 -0.666992 -8.16699 -0.5 -10.5 0.5s-4.16602 3.5 -5.49902 7.5l-8 22c-2.66699 7.33301 -1.33398 12 3.99902 14l232 93c6 2 10 0.333008 12 -5z" />
    <glyph glyph-name="icircumflex" unicode="&#xee;" horiz-adv-x="239" 
d="M161 17c0 -6.66699 -1.16797 -11.167 -3.50098 -13.5s-7.16602 -3.5 -14.499 -3.5h-51c-6 0 -10 1 -12 3s-3 5.66699 -3 11v502c0 9.33301 4 14 12 14h61c7.33301 0 11 -4.33301 11 -13v-500zM130.999 687c-4.66699 5.33301 -8.00195 8.00098 -10.002 8.00098
s-6.33301 -2.66699 -13 -8l-57 -50c-4 -2.66699 -7 -4.33398 -9 -5.00098s-5 -1 -9 -1h-54c-4.66699 0 -7.16699 1.16699 -7.5 3.5s1.16699 5.16602 4.5 8.49902l103 91c3.33301 3.33301 6.83301 6 10.5 8s8.5 3 14.5 3h39c4.66699 0 8.33398 -1.16699 11.001 -3.5
s5.33398 -4.5 8.00098 -6.5l102 -92c8.66699 -8 8 -12 -2 -12h-58c-4 0 -7.33301 0.333008 -10 1s-5.66699 2.33398 -9 5.00098z" />
    <glyph glyph-name="idieresis" unicode="&#xef;" horiz-adv-x="239" 
d="M161 17c0 -6.66699 -1.16797 -11.167 -3.50098 -13.5s-7.16602 -3.5 -14.499 -3.5h-51c-6 0 -10 1 -12 3s-3 5.66699 -3 11v502c0 9.33301 4 14 12 14h61c7.33301 0 11 -4.33301 11 -13v-500zM88.999 647c0 -6 -1.16699 -10 -3.5 -12s-6.83301 -3 -13.5 -3h-53
c-5.33301 0 -9 1 -11 3s-3 5.33301 -3 10v84c0 8.66699 3.66699 13 11 13h62c7.33301 0 11 -4 11 -12v-83zM234.999 647c0 -6 -1.16699 -10 -3.5 -12s-6.83301 -3 -13.5 -3h-52c-6 0 -9.83301 1 -11.5 3s-2.5 5.33301 -2.5 10v84c0 8.66699 3.66699 13 11 13h61
c7.33301 0 11 -4 11 -12v-83z" />
    <glyph glyph-name="eth" unicode="&#xf0;" 
d="M552 262c0 -53.333 -10.165 -100.494 -30.498 -141.494s-49.666 -73 -87.999 -96s-83.5 -34.5 -135.5 -34.5c-50 0 -93.833 11.333 -131.5 34s-67.167 53.667 -88.5 93s-32 84.333 -32 135c0 52 10.667 98.167 32 138.5s50.666 72 87.999 95s79.666 34.5 126.999 34.5
c26 0 49.667 -4.33301 71 -13s39.666 -20.667 54.999 -36c-14 30 -32.333 58.333 -55 85s-51.667 52 -87 76l-148 -84c-6 -3.33301 -11.333 -1.33301 -16 6l-11 17c-2 3.33301 -2.66699 6.16602 -2 8.49902s2 4.16602 4 5.49902l132 73c-16 8.66699 -32.5 17.167 -49.5 25.5
s-35.5 16.166 -55.5 23.499c-2.66699 1.33301 -4.16699 3.16602 -4.5 5.49902s0.833984 4.5 3.50098 6.5l36 28c3.33301 2 6 3.33301 8 4s5.66699 0 11 -2c22 -7.33301 42.667 -15.333 62 -24s37.666 -18.334 54.999 -29.001l96 54
c4.66699 3.33301 8.66699 2.66602 12 -2.00098l14 -26c2.66699 -4 2 -7.33301 -2 -10l-78 -43c74 -50 127.167 -109.667 159.5 -179s48.5 -145.333 48.5 -228v0zM301.002 53.0059c32.667 0 61.333 8.66895 86 26.002s44 41.166 58 71.499s21 65.166 21 104.499
s-7.16699 74.333 -21.5 105s-33.833 54.667 -58.5 72s-53.334 26 -86.001 26c-32 0 -60.833 -8.83301 -86.5 -26.5s-45.667 -41.834 -60 -72.501s-21.5 -65.334 -21.5 -104.001c0 -39.333 7.16699 -74.166 21.5 -104.499s34.333 -54.166 60 -71.499s54.834 -26 87.501 -26v0
z" />
    <glyph glyph-name="ntilde" unicode="&#xf1;" horiz-adv-x="584" 
d="M91 0c-9.33301 0 -14 4.33496 -14 13.002v504c0 8.66699 3.66699 13 11 13h60c7.33301 0 11 -3.66699 11 -11v-58c0 -3.33301 0.666992 -5.33301 2 -6s3.66602 0.333008 6.99902 3c22 17.333 42.5 32.166 61.5 44.499s38.5 21.666 58.5 27.999s41.333 9.5 64 9.5
c52 0 91.833 -14 119.5 -42s41.5 -64.333 41.5 -109v-373c0 -10.667 -5 -16 -15 -16h-56c-4.66699 0 -8 1.16699 -10 3.5s-3 5.5 -3 9.5v357c0 32.667 -8.33301 58.167 -25 76.5s-43 27.5 -79 27.5c-19.333 0 -37.5 -3.16699 -54.5 -9.5s-34.167 -15.333 -51.5 -27
s-36.666 -26.5 -57.999 -44.5v-378c0 -10 -5 -15 -15 -15h-55v0zM444 677.002c-7.33301 -4.66699 -17.168 -9.5 -29.501 -14.5s-27.833 -7.5 -46.5 -7.5c-17.333 0 -32.833 2.16699 -46.5 6.5s-26.667 8.66602 -39 12.999s-26.166 6.5 -41.499 6.5
c-14.667 0 -26.167 -2.33301 -34.5 -7l-25.5 -14c-3.33301 -2 -6.16602 -2.83301 -8.49902 -2.5s-4.16602 2.83301 -5.49902 7.5l-10 26c-0.666992 4 -1 6.83301 -1 8.5s1.66699 3.83398 5 6.50098c10.667 8 21.667 15 33 21s25.666 9 42.999 9
c16.667 0 32.167 -2.16699 46.5 -6.5s28.5 -9 42.5 -14s28.333 -7.5 43 -7.5c12.667 0 23.167 2 31.5 6s16.833 8.66699 25.5 14c4 2 7.33301 2.83301 10 2.5s4.66699 -2.83301 6 -7.5l10 -31c1.33301 -4.66699 -1.33398 -9.66699 -8.00098 -15v0z" />
    <glyph glyph-name="ograve" unicode="&#xf2;" 
d="M299 -10c-50 0 -94.167 11.501 -132.5 34.501s-68 55 -89 96s-31.5 88.167 -31.5 141.5c0 55.333 10.833 103.833 32.5 145.5s51.5 74.167 89.5 97.5s82 35 132 35c50.667 0 94.834 -11.833 132.501 -35.5s67 -56.334 88 -98.001s31.5 -89.5 31.5 -143.5
c0 -53.333 -10.667 -100.5 -32 -141.5s-50.833 -73.167 -88.5 -96.5s-81.834 -35 -132.501 -35v0zM301 53.001c34.667 0 64.334 8.5 89.001 25.5s43.5 41.333 56.5 73s19.5 69.5 19.5 113.5s-6.66699 81.833 -20 113.5s-32.333 56.167 -57 73.5s-54.334 26 -89.001 26
c-34 0 -63.667 -8.66699 -89 -26s-44.833 -41.833 -58.5 -73.5s-20.5 -69.5 -20.5 -113.5c0 -43.333 6.83301 -81 20.5 -113s33.167 -56.5 58.5 -73.5s55.333 -25.5 90 -25.5v0zM189 746.001c2.66699 5.33301 6.66699 7 12 5l232 -93
c5.33301 -2 6.66602 -6.66699 3.99902 -14l-8 -22c-1.33301 -4 -3.16602 -6.5 -5.49902 -7.5s-5.83301 -1.16699 -10.5 -0.5l-228 69c-10 3.33301 -13.667 9.33301 -11 18l15 45v0z" />
    <glyph glyph-name="oacute" unicode="&#xf3;" 
d="M299 -10c-50 0 -94.167 11.501 -132.5 34.501s-68 55 -89 96s-31.5 88.167 -31.5 141.5c0 55.333 10.833 103.833 32.5 145.5s51.5 74.167 89.5 97.5s82 35 132 35c50.667 0 94.834 -11.833 132.501 -35.5s67 -56.334 88 -98.001s31.5 -89.5 31.5 -143.5
c0 -53.333 -10.667 -100.5 -32 -141.5s-50.833 -73.167 -88.5 -96.5s-81.834 -35 -132.501 -35v0zM301 53.001c34.667 0 64.334 8.5 89.001 25.5s43.5 41.333 56.5 73s19.5 69.5 19.5 113.5s-6.66699 81.833 -20 113.5s-32.333 56.167 -57 73.5s-54.334 26 -89.001 26
c-34 0 -63.667 -8.66699 -89 -26s-44.833 -41.833 -58.5 -73.5s-20.5 -69.5 -20.5 -113.5c0 -43.333 6.83301 -81 20.5 -113s33.167 -56.5 58.5 -73.5s55.333 -25.5 90 -25.5v0zM435 703.001c2.66699 -8.66699 -1 -14.667 -11 -18l-228 -69
c-4.66699 -0.666992 -8.16699 -0.5 -10.5 0.5s-4.16602 3.5 -5.49902 7.5l-8 22c-2.66699 7.33301 -1.33398 12 3.99902 14l232 93c6 2 10 0.333008 12 -5z" />
    <glyph glyph-name="ocircumflex" unicode="&#xf4;" 
d="M299 -10c-50 0 -94.167 11.501 -132.5 34.501s-68 55 -89 96s-31.5 88.167 -31.5 141.5c0 55.333 10.833 103.833 32.5 145.5s51.5 74.167 89.5 97.5s82 35 132 35c50.667 0 94.834 -11.833 132.501 -35.5s67 -56.334 88 -98.001s31.5 -89.5 31.5 -143.5
c0 -53.333 -10.667 -100.5 -32 -141.5s-50.833 -73.167 -88.5 -96.5s-81.834 -35 -132.501 -35v0zM301 53.001c34.667 0 64.334 8.5 89.001 25.5s43.5 41.333 56.5 73s19.5 69.5 19.5 113.5s-6.66699 81.833 -20 113.5s-32.333 56.167 -57 73.5s-54.334 26 -89.001 26
c-34 0 -63.667 -8.66699 -89 -26s-44.833 -41.833 -58.5 -73.5s-20.5 -69.5 -20.5 -113.5c0 -43.333 6.83301 -81 20.5 -113s33.167 -56.5 58.5 -73.5s55.333 -25.5 90 -25.5v0zM311 687.001c-4.66699 5.33301 -8.00195 8.00098 -10.002 8.00098s-6.33301 -2.66699 -13 -8
l-57 -50c-4 -2.66699 -7 -4.33398 -9 -5.00098s-5 -1 -9 -1h-54c-4.66699 0 -7.16699 1.16699 -7.5 3.5s1.16699 5.16602 4.5 8.49902l103 91c3.33301 3.33301 6.83301 6 10.5 8s8.5 3 14.5 3h39c4.66699 0 8.33398 -1.16699 11.001 -3.5s5.33398 -4.5 8.00098 -6.5l102 -92
c8.66699 -8 8 -12 -2 -12h-58c-4 0 -7.33301 0.333008 -10 1s-5.66699 2.33398 -9 5.00098z" />
    <glyph glyph-name="otilde" unicode="&#xf5;" 
d="M299 -10c-50 0 -94.167 11.501 -132.5 34.501s-68 55 -89 96s-31.5 88.167 -31.5 141.5c0 55.333 10.833 103.833 32.5 145.5s51.5 74.167 89.5 97.5s82 35 132 35c50.667 0 94.834 -11.833 132.501 -35.5s67 -56.334 88 -98.001s31.5 -89.5 31.5 -143.5
c0 -53.333 -10.667 -100.5 -32 -141.5s-50.833 -73.167 -88.5 -96.5s-81.834 -35 -132.501 -35v0zM301 53.001c34.667 0 64.334 8.5 89.001 25.5s43.5 41.333 56.5 73s19.5 69.5 19.5 113.5s-6.66699 81.833 -20 113.5s-32.333 56.167 -57 73.5s-54.334 26 -89.001 26
c-34 0 -63.667 -8.66699 -89 -26s-44.833 -41.833 -58.5 -73.5s-20.5 -69.5 -20.5 -113.5c0 -43.333 6.83301 -81 20.5 -113s33.167 -56.5 58.5 -73.5s55.333 -25.5 90 -25.5v0zM441 677.001c-7.33301 -4.66699 -17.168 -9.5 -29.501 -14.5s-27.833 -7.5 -46.5 -7.5
c-17.333 0 -32.833 2.16699 -46.5 6.5s-26.667 8.66602 -39 12.999s-26.166 6.5 -41.499 6.5c-14.667 0 -26.167 -2.33301 -34.5 -7l-25.5 -14c-3.33301 -2 -6.16602 -2.83301 -8.49902 -2.5s-4.16602 2.83301 -5.49902 7.5l-10 26c-0.666992 4 -1 6.83301 -1 8.5
s1.66699 3.83398 5 6.50098c10.667 8 21.667 15 33 21s25.666 9 42.999 9c16.667 0 32.167 -2.16699 46.5 -6.5s28.5 -9 42.5 -14s28.333 -7.5 43 -7.5c12.667 0 23.167 2 31.5 6s16.833 8.66699 25.5 14c4 2 7.33301 2.83301 10 2.5s4.66699 -2.83301 6 -7.5l10 -31
c1.33301 -4.66699 -1.33398 -9.66699 -8.00098 -15v0z" />
    <glyph glyph-name="odieresis" unicode="&#xf6;" 
d="M299 -10c-50 0 -94.167 11.501 -132.5 34.501s-68 55 -89 96s-31.5 88.167 -31.5 141.5c0 55.333 10.833 103.833 32.5 145.5s51.5 74.167 89.5 97.5s82 35 132 35c50.667 0 94.834 -11.833 132.501 -35.5s67 -56.334 88 -98.001s31.5 -89.5 31.5 -143.5
c0 -53.333 -10.667 -100.5 -32 -141.5s-50.833 -73.167 -88.5 -96.5s-81.834 -35 -132.501 -35v0zM301 53.001c34.667 0 64.334 8.5 89.001 25.5s43.5 41.333 56.5 73s19.5 69.5 19.5 113.5s-6.66699 81.833 -20 113.5s-32.333 56.167 -57 73.5s-54.334 26 -89.001 26
c-34 0 -63.667 -8.66699 -89 -26s-44.833 -41.833 -58.5 -73.5s-20.5 -69.5 -20.5 -113.5c0 -43.333 6.83301 -81 20.5 -113s33.167 -56.5 58.5 -73.5s55.333 -25.5 90 -25.5v0zM269 647.001c0 -6 -1.16699 -10 -3.5 -12s-6.83301 -3 -13.5 -3h-53c-5.33301 0 -9 1 -11 3
s-3 5.33301 -3 10v84c0 8.66699 3.66699 13 11 13h62c7.33301 0 11 -4 11 -12v-83zM415 647.001c0 -6 -1.16699 -10 -3.5 -12s-6.83301 -3 -13.5 -3h-52c-6 0 -9.83301 1 -11.5 3s-2.5 5.33301 -2.5 10v84c0 8.66699 3.66699 13 11 13h61c7.33301 0 11 -4 11 -12v-83z" />
    <glyph glyph-name="divide" unicode="&#xf7;" horiz-adv-x="558" 
d="M335 158c0 -10 -5.66699 -15 -17 -15h-80c-9.33301 0 -14 4.33301 -14 13v82c0 8 3 12 9 12h93c6 0 9 -3.66699 9 -11v-81zM496 353c0 -8.66699 -5.33301 -13 -16 -13l-405 -1c-4.66699 0 -8 1 -10 3s-3 5 -3 9v43c0 8 3 12 9 12h415c6.66699 0 10 -3.33301 10 -10v-43z
M335 510c0 -10 -5.66699 -15 -17 -15h-80c-9.33301 0 -14 4.66699 -14 14v82c0 8 3 12 9 12h93c6 0 9 -3.66699 9 -11v-82z" />
    <glyph glyph-name="oslash" unicode="&#xf8;" horiz-adv-x="583" 
d="M63 6c-4 -4 -8 -5.99902 -12 -5.99902s-8 2 -12 6l-13 14c-8 8.66699 -8 16.667 0 24l494 479c7.33301 7.33301 14 7.66602 20 0.999023l19 -19c5.33301 -6.66699 5.33301 -12.667 0 -18zM298 -9.99902c-50.667 0 -94.998 11.501 -132.998 34.501s-67.5 55 -88.5 96
s-31.5 88.167 -31.5 141.5c0 55.333 10.667 103.833 32 145.5s51.166 74.167 89.499 97.5s82.5 35 132.5 35c50.667 0 94.667 -11.833 132 -35.5s66.666 -56.334 87.999 -98.001s32 -89.5 32 -143.5c0 -53.333 -10.667 -100.5 -32 -141.5s-51 -73.167 -89 -96.5
s-82 -35 -132 -35v0zM299.002 53.002c35.333 0 65.333 8.5 90 25.5s43.5 41.333 56.5 73s19.5 69.5 19.5 113.5s-6.66699 81.833 -20 113.5s-32.5 56.167 -57.5 73.5s-54.5 26 -88.5 26c-34.667 0 -64.5 -8.66699 -89.5 -26s-44.333 -41.833 -58 -73.5
s-20.5 -69.5 -20.5 -113.5c0 -43.333 6.83301 -81 20.5 -113s33 -56.5 58 -73.5s54.833 -25.5 89.5 -25.5v0z" />
    <glyph glyph-name="ugrave" unicode="&#xf9;" horiz-adv-x="579" 
d="M257 56c28.667 0 56.166 7.83203 82.499 23.499s52.5 36.834 78.5 63.501v372c0 10 5.33301 15 16 15h55c9.33301 0 14 -4.66699 14 -14l-2 -503c0 -8.66699 -3.66699 -13 -11 -13h-58c-7.33301 0 -11 3.66699 -11 11v59c0 3.33301 -0.666992 5.33301 -2 6
s-3.66602 -0.333008 -6.99902 -3c-36.667 -31.333 -69.167 -53 -97.5 -65s-56.5 -18 -84.5 -18c-30.667 0 -58 6.33301 -82 19s-43 30.5 -57 53.5s-21 49.833 -21 80.5v371c0 10.667 5 16 15 16h56c8.66699 0 13 -4.66699 13 -14v-351c0 -32.667 9.16699 -59 27.5 -79
s43.5 -30 75.5 -30v0zM164.999 745.999c2.66699 5.33301 6.66699 7 12 5l232 -93c5.33301 -2 6.66602 -6.66699 3.99902 -14l-8 -22c-1.33301 -4 -3.16602 -6.5 -5.49902 -7.5s-5.83301 -1.16699 -10.5 -0.5l-228 69c-10 3.33301 -13.667 9.33301 -11 18l15 45v0z" />
    <glyph glyph-name="uacute" unicode="&#xfa;" horiz-adv-x="579" 
d="M257 56c28.667 0 56.166 7.83203 82.499 23.499s52.5 36.834 78.5 63.501v372c0 10 5.33301 15 16 15h55c9.33301 0 14 -4.66699 14 -14l-2 -503c0 -8.66699 -3.66699 -13 -11 -13h-58c-7.33301 0 -11 3.66699 -11 11v59c0 3.33301 -0.666992 5.33301 -2 6
s-3.66602 -0.333008 -6.99902 -3c-36.667 -31.333 -69.167 -53 -97.5 -65s-56.5 -18 -84.5 -18c-30.667 0 -58 6.33301 -82 19s-43 30.5 -57 53.5s-21 49.833 -21 80.5v371c0 10.667 5 16 15 16h56c8.66699 0 13 -4.66699 13 -14v-351c0 -32.667 9.16699 -59 27.5 -79
s43.5 -30 75.5 -30v0zM410.999 702.999c2.66699 -8.66699 -1 -14.667 -11 -18l-228 -69c-4.66699 -0.666992 -8.16699 -0.5 -10.5 0.5s-4.16602 3.5 -5.49902 7.5l-8 22c-2.66699 7.33301 -1.33398 12 3.99902 14l232 93c6 2 10 0.333008 12 -5z" />
    <glyph glyph-name="ucircumflex" unicode="&#xfb;" horiz-adv-x="579" 
d="M257 56c28.667 0 56.166 7.83203 82.499 23.499s52.5 36.834 78.5 63.501v372c0 10 5.33301 15 16 15h55c9.33301 0 14 -4.66699 14 -14l-2 -503c0 -8.66699 -3.66699 -13 -11 -13h-58c-7.33301 0 -11 3.66699 -11 11v59c0 3.33301 -0.666992 5.33301 -2 6
s-3.66602 -0.333008 -6.99902 -3c-36.667 -31.333 -69.167 -53 -97.5 -65s-56.5 -18 -84.5 -18c-30.667 0 -58 6.33301 -82 19s-43 30.5 -57 53.5s-21 49.833 -21 80.5v371c0 10.667 5 16 15 16h56c8.66699 0 13 -4.66699 13 -14v-351c0 -32.667 9.16699 -59 27.5 -79
s43.5 -30 75.5 -30v0zM286.999 686.999c-4.66699 5.33301 -8.00195 8.00098 -10.002 8.00098s-6.33301 -2.66699 -13 -8l-57 -50c-4 -2.66699 -7 -4.33398 -9 -5.00098s-5 -1 -9 -1h-54c-4.66699 0 -7.16699 1.16699 -7.5 3.5s1.16699 5.16602 4.5 8.49902l103 91
c3.33301 3.33301 6.83301 6 10.5 8s8.5 3 14.5 3h39c4.66699 0 8.33398 -1.16699 11.001 -3.5s5.33398 -4.5 8.00098 -6.5l102 -92c8.66699 -8 8 -12 -2 -12h-58c-4 0 -7.33301 0.333008 -10 1s-5.66699 2.33398 -9 5.00098z" />
    <glyph glyph-name="udieresis" unicode="&#xfc;" horiz-adv-x="579" 
d="M257 56c28.667 0 56.166 7.83203 82.499 23.499s52.5 36.834 78.5 63.501v372c0 10 5.33301 15 16 15h55c9.33301 0 14 -4.66699 14 -14l-2 -503c0 -8.66699 -3.66699 -13 -11 -13h-58c-7.33301 0 -11 3.66699 -11 11v59c0 3.33301 -0.666992 5.33301 -2 6
s-3.66602 -0.333008 -6.99902 -3c-36.667 -31.333 -69.167 -53 -97.5 -65s-56.5 -18 -84.5 -18c-30.667 0 -58 6.33301 -82 19s-43 30.5 -57 53.5s-21 49.833 -21 80.5v371c0 10.667 5 16 15 16h56c8.66699 0 13 -4.66699 13 -14v-351c0 -32.667 9.16699 -59 27.5 -79
s43.5 -30 75.5 -30v0zM244.999 646.999c0 -6 -1.16699 -10 -3.5 -12s-6.83301 -3 -13.5 -3h-53c-5.33301 0 -9 1 -11 3s-3 5.33301 -3 10v84c0 8.66699 3.66699 13 11 13h62c7.33301 0 11 -4 11 -12v-83zM390.999 646.999c0 -6 -1.16699 -10 -3.5 -12s-6.83301 -3 -13.5 -3
h-52c-6 0 -9.83301 1 -11.5 3s-2.5 5.33301 -2.5 10v84c0 8.66699 3.66699 13 11 13h61c7.33301 0 11 -4 11 -12v-83z" />
    <glyph glyph-name="yacute" unicode="&#xfd;" horiz-adv-x="530" 
d="M106 -165c-19.333 0 -34.3369 0.665039 -45.0039 1.99805s-16 5 -16 11v39c0 4.66699 1.83301 8 5.5 10s11.167 3 22.5 3h63c14.667 0 28 4.83301 40 14.5s22 21.834 30 36.501s13.333 29.5 16 44.5s1.66699 28.167 -3 39.5l-191 478
c-1.33301 4.66699 -1.16602 8.66699 0.500977 12s5.16699 5 10.5 5h62c4 0 7.33301 -0.833008 10 -2.5s4.66699 -4.5 6 -8.5l149 -388c2.66699 -6 5.66699 -9 9 -9s6.33301 4 9 12l147 385c2 4 4 6.83301 6 8.5s4.66699 2.5 8 2.5h47c4.66699 0 8 -1.5 10 -4.5
s2 -6.5 0 -10.5l-220 -562c-9.33301 -24 -19.666 -43.667 -30.999 -59s-24.166 -27.166 -38.499 -35.499s-30.166 -14.333 -47.499 -18s-37 -5.5 -59 -5.5v0zM408.996 702.998c2.66699 -8.66699 -1 -14.667 -11 -18l-228 -69c-4.66699 -0.666992 -8.16699 -0.5 -10.5 0.5
s-4.16602 3.5 -5.49902 7.5l-8 22c-2.66699 7.33301 -1.33398 12 3.99902 14l232 93c6 2 10 0.333008 12 -5z" />
    <glyph glyph-name="thorn" unicode="&#xfe;" horiz-adv-x="595" 
d="M146 742c9.33301 0 14.002 -5.00098 14.002 -15.001v-254c0 -5.33301 1.16699 -8.16602 3.5 -8.49902s5.5 1.16699 9.5 4.5c7.33301 8 17.333 17.5 30 28.5s29.167 20.833 49.5 29.5s46.166 13 77.499 13c40.667 0 77.5 -9.83301 110.5 -29.5s59.333 -49.167 79 -88.5
s29.5 -89 29.5 -149s-9.66699 -111 -29 -153s-46.166 -74.167 -80.499 -96.5s-74.5 -33.5 -120.5 -33.5c-30.667 0 -57.834 4.83301 -81.501 14.5s-43.834 21.5 -60.501 35.5c-6 5.33301 -10.167 7.5 -12.5 6.5s-3.5 -5.16699 -3.5 -12.5v-186
c0 -8.66699 -3.66699 -13 -11 -13h-62c-7.33301 0 -11 4.33301 -11 13v878c0 6 1.16699 10.167 3.5 12.5s6.5 3.5 12.5 3.5h53v0zM161.002 116.999c20.667 -20 41.8301 -36.0029 63.4971 -48.0029s45.834 -18 72.501 -18c32 0 60.5 8.33301 85.5 25s44.667 41.334 59 74.001
s21.5 73.334 21.5 122.001s-7.33301 88.334 -22 119.001s-34.167 53 -58.5 67s-51.166 21 -80.499 21c-27.333 0 -51.666 -6 -72.999 -18s-38 -26.833 -50 -44.5s-18 -35.167 -18 -52.5v-247v0z" />
    <glyph glyph-name="ydieresis" unicode="&#xff;" horiz-adv-x="530" 
d="M106 -165c-19.333 0 -34.3369 0.665039 -45.0039 1.99805s-16 5 -16 11v39c0 4.66699 1.83301 8 5.5 10s11.167 3 22.5 3h63c14.667 0 28 4.83301 40 14.5s22 21.834 30 36.501s13.333 29.5 16 44.5s1.66699 28.167 -3 39.5l-191 478
c-1.33301 4.66699 -1.16602 8.66699 0.500977 12s5.16699 5 10.5 5h62c4 0 7.33301 -0.833008 10 -2.5s4.66699 -4.5 6 -8.5l149 -388c2.66699 -6 5.66699 -9 9 -9s6.33301 4 9 12l147 385c2 4 4 6.83301 6 8.5s4.66699 2.5 8 2.5h47c4.66699 0 8 -1.5 10 -4.5
s2 -6.5 0 -10.5l-220 -562c-9.33301 -24 -19.666 -43.667 -30.999 -59s-24.166 -27.166 -38.499 -35.499s-30.166 -14.333 -47.499 -18s-37 -5.5 -59 -5.5v0zM242.996 646.998c0 -6 -1.16699 -10 -3.5 -12s-6.83301 -3 -13.5 -3h-53c-5.33301 0 -9 1 -11 3s-3 5.33301 -3 10
v84c0 8.66699 3.66699 13 11 13h62c7.33301 0 11 -4 11 -12v-83zM388.996 646.998c0 -6 -1.16699 -10 -3.5 -12s-6.83301 -3 -13.5 -3h-52c-6 0 -9.83301 1 -11.5 3s-2.5 5.33301 -2.5 10v84c0 8.66699 3.66699 13 11 13h61c7.33301 0 11 -4 11 -12v-83z" />
    <glyph glyph-name="Amacron" unicode="&#x100;" horiz-adv-x="727" 
d="M55 0c-4 0 -6.83105 1.50098 -8.49805 4.50098s-1.83398 7.16699 -0.500977 12.5l259 711c2 4.66699 4.33301 8.16699 7 10.5s7 3.5 13 3.5h78c12 0 19.667 -5 23 -15l256 -710c1.33301 -4 1.16602 -7.83301 -0.500977 -11.5s-4.83398 -5.5 -9.50098 -5.5h-71
c-8 0 -13.333 3.33301 -16 10l-69 194c-1.33301 2.66699 -2.66602 4.66699 -3.99902 6s-4 2 -8 2h-291c-6 0 -10 -2.66699 -12 -8l-71 -195c-0.666992 -2.66699 -2.16699 -4.83398 -4.5 -6.50098s-5.83301 -2.5 -10.5 -2.5h-60v0zM478.002 288.001c8 0 10.667 4.33301 8 13
l-120 329c-2.66699 6 -5.16699 9 -7.5 9s-4.5 -3 -6.5 -9l-122 -331c-3.33301 -7.33301 -1.33301 -11 6 -11h242zM510.002 891.001c0 -8.66699 -5 -13 -15 -13h-270c-4 0 -6.83301 1 -8.5 3s-2.5 5 -2.5 9v39c0 7.33301 2.66699 11 8 11h280c5.33301 0 8 -3.33301 8 -10v-39
z" />
    <glyph glyph-name="amacron" unicode="&#x101;" horiz-adv-x="548" 
d="M382 64c-24.667 -24 -51.498 -42.332 -80.498 -54.999s-61.5 -19 -97.5 -19c-52 0 -92.833 13.333 -122.5 40s-44.5 61.667 -44.5 105c0 35.333 10 65.833 30 91.5s49.667 46 89 61s87.666 24.167 144.999 27.5l78 6c4 0.666992 7.66699 2 11 4s5 5.66699 5 11v27
c0 36 -11.167 64.5 -33.5 85.5s-52.5 31.5 -90.5 31.5c-29.333 0 -55.833 -6.66699 -79.5 -20s-44.834 -33.333 -63.501 -60c-2.66699 -3.33301 -4.83398 -5.5 -6.50098 -6.5s-4.5 -0.833008 -8.5 0.5l-54 18c-2 1.33301 -3.5 3 -4.5 5s-0.166992 5.66699 2.5 11
c20 34.667 48.167 62 84.5 82s80.833 30 133.5 30c44.667 0 81.834 -6.83301 111.501 -20.5s52 -33.334 67 -59.001s22.5 -56.167 22.5 -91.5v-354c0 -6 -1 -10 -3 -12s-5.33301 -3 -10 -3h-51c-4.66699 0 -8 1.5 -10 4.5s-3.33301 6.83301 -4 11.5l-1 46
c-2 9.33301 -7 10 -15 2v0zM395.002 254.001c0 11.333 -4.66602 16.665 -13.999 15.998l-66 -6c-30.667 -1.33301 -58 -5.16602 -82 -11.499s-44.333 -14.5 -61 -24.5s-29.334 -21.833 -38.001 -35.5s-13 -29.5 -13 -47.5c0 -29.333 10.167 -52.166 30.5 -68.499
s47.833 -24.5 82.5 -24.5c21.333 0 41.833 3.83301 61.5 11.5s36.834 17.5 51.501 29.5c15.333 12.667 27.166 25.667 35.499 39s12.5 26.333 12.5 39v83v0zM420.003 679c0 -8.66699 -5 -13 -15 -13h-270c-4 0 -6.83301 1 -8.5 3s-2.5 5 -2.5 9v39
c0 7.33301 2.66699 11 8 11h280c5.33301 0 8 -3.33301 8 -10v-39z" />
    <glyph glyph-name="Abreve" unicode="&#x102;" horiz-adv-x="727" 
d="M55 0c-4 0 -6.83105 1.50098 -8.49805 4.50098s-1.83398 7.16699 -0.500977 12.5l259 711c2 4.66699 4.33301 8.16699 7 10.5s7 3.5 13 3.5h78c12 0 19.667 -5 23 -15l256 -710c1.33301 -4 1.16602 -7.83301 -0.500977 -11.5s-4.83398 -5.5 -9.50098 -5.5h-71
c-8 0 -13.333 3.33301 -16 10l-69 194c-1.33301 2.66699 -2.66602 4.66699 -3.99902 6s-4 2 -8 2h-291c-6 0 -10 -2.66699 -12 -8l-71 -195c-0.666992 -2.66699 -2.16699 -4.83398 -4.5 -6.50098s-5.83301 -2.5 -10.5 -2.5h-60v0zM478.002 288.001c8 0 10.667 4.33301 8 13
l-120 329c-2.66699 6 -5.16699 9 -7.5 9s-4.5 -3 -6.5 -9l-122 -331c-3.33301 -7.33301 -1.33301 -11 6 -11h242zM501.002 954.001c8.66699 0 11.666 -3.66797 8.99902 -11.001c-4.66699 -16 -13.667 -31.333 -27 -46s-30.166 -26.834 -50.499 -36.501
s-44.166 -14.5 -71.499 -14.5c-26 0 -49.167 4.5 -69.5 13.5s-36.833 21 -49.5 36s-21.667 31.167 -27 48.5c-0.666992 2 -0.666992 4.16699 0 6.5s2.66699 3.5 6 3.5h47c4 0 6.83301 -0.666992 8.5 -2s3.83398 -3.66602 6.50098 -6.99902
c4 -5.33301 9.16699 -11.5 15.5 -18.5s14.666 -13 24.999 -18s22.833 -7.5 37.5 -7.5c21.333 0 38.666 4.83301 51.999 14.5s23 19.834 29 30.501c2 3.33301 4 5.5 6 6.5s4 1.5 6 1.5h47v0z" />
    <glyph glyph-name="abreve" unicode="&#x103;" horiz-adv-x="548" 
d="M382 64c-24.667 -24 -51.498 -42.332 -80.498 -54.999s-61.5 -19 -97.5 -19c-52 0 -92.833 13.333 -122.5 40s-44.5 61.667 -44.5 105c0 35.333 10 65.833 30 91.5s49.667 46 89 61s87.666 24.167 144.999 27.5l78 6c4 0.666992 7.66699 2 11 4s5 5.66699 5 11v27
c0 36 -11.167 64.5 -33.5 85.5s-52.5 31.5 -90.5 31.5c-29.333 0 -55.833 -6.66699 -79.5 -20s-44.834 -33.333 -63.501 -60c-2.66699 -3.33301 -4.83398 -5.5 -6.50098 -6.5s-4.5 -0.833008 -8.5 0.5l-54 18c-2 1.33301 -3.5 3 -4.5 5s-0.166992 5.66699 2.5 11
c20 34.667 48.167 62 84.5 82s80.833 30 133.5 30c44.667 0 81.834 -6.83301 111.501 -20.5s52 -33.334 67 -59.001s22.5 -56.167 22.5 -91.5v-354c0 -6 -1 -10 -3 -12s-5.33301 -3 -10 -3h-51c-4.66699 0 -8 1.5 -10 4.5s-3.33301 6.83301 -4 11.5l-1 46
c-2 9.33301 -7 10 -15 2v0zM395.002 254.001c0 11.333 -4.66602 16.665 -13.999 15.998l-66 -6c-30.667 -1.33301 -58 -5.16602 -82 -11.499s-44.333 -14.5 -61 -24.5s-29.334 -21.833 -38.001 -35.5s-13 -29.5 -13 -47.5c0 -29.333 10.167 -52.166 30.5 -68.499
s47.833 -24.5 82.5 -24.5c21.333 0 41.833 3.83301 61.5 11.5s36.834 17.5 51.501 29.5c15.333 12.667 27.166 25.667 35.499 39s12.5 26.333 12.5 39v83v0zM411.003 742c8.66699 0 11.666 -3.66797 8.99902 -11.001c-4.66699 -16 -13.667 -31.333 -27 -46
s-30.166 -26.834 -50.499 -36.501s-44.166 -14.5 -71.499 -14.5c-26 0 -49.167 4.5 -69.5 13.5s-36.833 21 -49.5 36s-21.667 31.167 -27 48.5c-0.666992 2 -0.666992 4.16699 0 6.5s2.66699 3.5 6 3.5h47c4 0 6.83301 -0.666992 8.5 -2s3.83398 -3.66602 6.50098 -6.99902
c4 -5.33301 9.16699 -11.5 15.5 -18.5s14.666 -13 24.999 -18s22.833 -7.5 37.5 -7.5c21.333 0 38.666 4.83301 51.999 14.5s23 19.834 29 30.501c2 3.33301 4 5.5 6 6.5s4 1.5 6 1.5h47v0z" />
    <glyph glyph-name="Aogonek" unicode="&#x104;" horiz-adv-x="727" 
d="M55 0c-4 0 -6.83105 1.50098 -8.49805 4.50098s-1.83398 7.16699 -0.500977 12.5l259 711c2 4.66699 4.33301 8.16699 7 10.5s7 3.5 13 3.5h78c12 0 19.667 -5 23 -15l256 -710c1.33301 -4 1.16602 -7.83301 -0.500977 -11.5s-4.83398 -5.5 -9.50098 -5.5h-71
c-8 0 -13.333 3.33301 -16 10l-69 194c-1.33301 2.66699 -2.66602 4.66699 -3.99902 6s-4 2 -8 2h-291c-6 0 -10 -2.66699 -12 -8l-71 -195c-0.666992 -2.66699 -2.16699 -4.83398 -4.5 -6.50098s-5.83301 -2.5 -10.5 -2.5h-60v0zM478.002 288.001c8 0 10.667 4.33301 8 13
l-120 329c-2.66699 6 -5.16699 9 -7.5 9s-4.5 -3 -6.5 -9l-122 -331c-3.33301 -7.33301 -1.33301 -11 6 -11h242zM510.002 -89.999c0 20.667 7.50098 39.1689 22.501 55.502s42.833 30.833 83.5 43.5l63 -7c-34.667 -14.667 -59.834 -28.334 -75.501 -41.001
s-23.5 -27.667 -23.5 -45c0 -12.667 3.83301 -22.167 11.5 -28.5s20.5 -9.5 38.5 -9.5c14 0 26.5 1.5 37.5 4.5s19.167 5.83301 24.5 8.5c7.33301 3.33301 11 1.66602 11 -5.00098v-29c0 -4.66699 -2 -8.33398 -6 -11.001c-8 -4 -20 -7.83301 -36 -11.5s-33 -5.5 -51 -5.5
c-33.333 0 -58.333 7.33301 -75 22s-25 34.334 -25 59.001v0z" />
    <glyph glyph-name="aogonek" unicode="&#x105;" horiz-adv-x="548" 
d="M382 64c-24.667 -24 -51.498 -42.332 -80.498 -54.999s-61.5 -19 -97.5 -19c-52 0 -92.833 13.333 -122.5 40s-44.5 61.667 -44.5 105c0 35.333 10 65.833 30 91.5s49.667 46 89 61s87.666 24.167 144.999 27.5l78 6c4 0.666992 7.66699 2 11 4s5 5.66699 5 11v27
c0 36 -11.167 64.5 -33.5 85.5s-52.5 31.5 -90.5 31.5c-29.333 0 -55.833 -6.66699 -79.5 -20s-44.834 -33.333 -63.501 -60c-2.66699 -3.33301 -4.83398 -5.5 -6.50098 -6.5s-4.5 -0.833008 -8.5 0.5l-54 18c-2 1.33301 -3.5 3 -4.5 5s-0.166992 5.66699 2.5 11
c20 34.667 48.167 62 84.5 82s80.833 30 133.5 30c44.667 0 81.834 -6.83301 111.501 -20.5s52 -33.334 67 -59.001s22.5 -56.167 22.5 -91.5v-354c0 -6 -1 -10 -3 -12s-5.33301 -3 -10 -3h-51c-4.66699 0 -8 1.5 -10 4.5s-3.33301 6.83301 -4 11.5l-1 46
c-2 9.33301 -7 10 -15 2v0zM395.002 254.001c0 11.333 -4.66602 16.665 -13.999 15.998l-66 -6c-30.667 -1.33301 -58 -5.16602 -82 -11.499s-44.333 -14.5 -61 -24.5s-29.334 -21.833 -38.001 -35.5s-13 -29.5 -13 -47.5c0 -29.333 10.167 -52.166 30.5 -68.499
s47.833 -24.5 82.5 -24.5c21.333 0 41.833 3.83301 61.5 11.5s36.834 17.5 51.501 29.5c15.333 12.667 27.166 25.667 35.499 39s12.5 26.333 12.5 39v83v0zM305.003 -88c0 20.667 7.50098 39.1689 22.501 55.502s42.833 30.833 83.5 43.5l63 -7
c-34.667 -14.667 -59.834 -28.334 -75.501 -41.001s-23.5 -27.667 -23.5 -45c0 -12.667 3.83301 -22.167 11.5 -28.5s20.5 -9.5 38.5 -9.5c14 0 26.5 1.5 37.5 4.5s19.167 5.83301 24.5 8.5c7.33301 3.33301 11 1.66602 11 -5.00098v-29c0 -4.66699 -2 -8.33398 -6 -11.001
c-8 -4 -20 -7.83301 -36 -11.5s-33 -5.5 -51 -5.5c-33.333 0 -58.333 7.33301 -75 22s-25 34.334 -25 59.001v0z" />
    <glyph glyph-name="Cacute" unicode="&#x106;" horiz-adv-x="707" 
d="M378 752c33.333 0 65.498 -5.5 96.498 -16.5s58.833 -25.833 83.5 -44.5s45 -40.334 61 -65.001s26 -51 30 -79c1.33301 -6 1.5 -10 0.5 -12s-3.5 -3 -7.5 -3l-75 -6c-3.33301 -0.666992 -5.66602 0 -6.99902 2s-2.33301 4.66699 -3 8
c-9.33301 42.667 -29.5 77.167 -60.5 103.5s-69.5 39.5 -115.5 39.5c-69.333 0 -122.666 -25.667 -159.999 -77s-56 -128.666 -56 -231.999c0 -100 18.333 -175.667 55 -227s92 -77 166 -77c47.333 0 86.833 11.333 118.5 34s57.167 59 76.5 109c2 4 6 5.33301 12 4l59 -14
c2 -0.666992 3.66699 -2 5 -4s1.33301 -5.33301 0 -10c-5.33301 -19.333 -13.5 -38.333 -24.5 -57s-24.5 -36.167 -40.5 -52.5s-34.667 -31 -56 -44s-44.833 -23.167 -70.5 -30.5s-53.5 -11 -83.5 -11c-66 0 -122.833 15.333 -170.5 46s-84 74.667 -109 132
s-37.5 125.333 -37.5 204s12.5 146.5 37.5 203.5s61 100.667 108 131s102.833 45.5 167.5 45.5v0zM511.998 915c2.66699 -8.66699 -1 -14.667 -11 -18l-228 -69c-4.66699 -0.666992 -8.16699 -0.5 -10.5 0.5s-4.16602 3.5 -5.49902 7.5l-8 22
c-2.66699 7.33301 -1.33398 12 3.99902 14l232 93c6 2 10 0.333008 12 -5z" />
    <glyph glyph-name="cacute" unicode="&#x107;" horiz-adv-x="542" 
d="M297 540c34.667 0 65.165 -5.49902 91.498 -16.499s49 -26 68 -45s34.833 -39.833 47.5 -62.5c4 -8 2.33301 -13 -5 -15l-55 -13c-4.66699 -2 -9 0 -13 6c-13.333 19.333 -26.5 35 -39.5 47s-26.833 21.167 -41.5 27.5s-30.667 9.5 -48 9.5
c-34 0 -63.833 -8.5 -89.5 -25.5s-45.5 -41.5 -59.5 -73.5s-21 -70 -21 -114c0 -44.667 7.16699 -83 21.5 -115s34.333 -56.333 60 -73s55.834 -25 90.501 -25c32 0 59.667 8 83 24s44.666 39.333 63.999 70c2 3.33301 3.83301 5.16602 5.5 5.49902
s4.16699 -0.166992 7.5 -1.5l43 -16c4.66699 -2 6 -6.33301 4 -13c-10 -17.333 -21.667 -34 -35 -50s-28.833 -30 -46.5 -42s-37.5 -21.5 -59.5 -28.5s-46.333 -10.5 -73 -10.5c-49.333 0 -92.833 11.5 -130.5 34.5s-67.167 55 -88.5 96s-32 88.5 -32 142.5
c0 54.667 10.833 102.667 32.5 144s51.334 73.833 89.001 97.5s80.834 35.5 129.501 35.5v0zM429.998 703.001c2.66699 -8.66699 -1 -14.667 -11 -18l-228 -69c-4.66699 -0.666992 -8.16699 -0.5 -10.5 0.5s-4.16602 3.5 -5.49902 7.5l-8 22
c-2.66699 7.33301 -1.33398 12 3.99902 14l232 93c6 2 10 0.333008 12 -5z" />
    <glyph glyph-name="Ccircumflex" unicode="&#x108;" horiz-adv-x="707" 
d="M378 752c33.333 0 65.498 -5.5 96.498 -16.5s58.833 -25.833 83.5 -44.5s45 -40.334 61 -65.001s26 -51 30 -79c1.33301 -6 1.5 -10 0.5 -12s-3.5 -3 -7.5 -3l-75 -6c-3.33301 -0.666992 -5.66602 0 -6.99902 2s-2.33301 4.66699 -3 8
c-9.33301 42.667 -29.5 77.167 -60.5 103.5s-69.5 39.5 -115.5 39.5c-69.333 0 -122.666 -25.667 -159.999 -77s-56 -128.666 -56 -231.999c0 -100 18.333 -175.667 55 -227s92 -77 166 -77c47.333 0 86.833 11.333 118.5 34s57.167 59 76.5 109c2 4 6 5.33301 12 4l59 -14
c2 -0.666992 3.66699 -2 5 -4s1.33301 -5.33301 0 -10c-5.33301 -19.333 -13.5 -38.333 -24.5 -57s-24.5 -36.167 -40.5 -52.5s-34.667 -31 -56 -44s-44.833 -23.167 -70.5 -30.5s-53.5 -11 -83.5 -11c-66 0 -122.833 15.333 -170.5 46s-84 74.667 -109 132
s-37.5 125.333 -37.5 204s12.5 146.5 37.5 203.5s61 100.667 108 131s102.833 45.5 167.5 45.5v0zM387.998 899c-4.66699 5.33301 -8.00195 8.00098 -10.002 8.00098s-6.33301 -2.66699 -13 -8l-57 -50c-4 -2.66699 -7 -4.33398 -9 -5.00098s-5 -1 -9 -1h-54
c-4.66699 0 -7.16699 1.16699 -7.5 3.5s1.16699 5.16602 4.5 8.49902l103 91c3.33301 3.33301 6.83301 6 10.5 8s8.5 3 14.5 3h39c4.66699 0 8.33398 -1.16699 11.001 -3.5s5.33398 -4.5 8.00098 -6.5l102 -92c8.66699 -8 8 -12 -2 -12h-58c-4 0 -7.33301 0.333008 -10 1
s-5.66699 2.33398 -9 5.00098z" />
    <glyph glyph-name="ccircumflex" unicode="&#x109;" horiz-adv-x="542" 
d="M297 540c34.667 0 65.165 -5.49902 91.498 -16.499s49 -26 68 -45s34.833 -39.833 47.5 -62.5c4 -8 2.33301 -13 -5 -15l-55 -13c-4.66699 -2 -9 0 -13 6c-13.333 19.333 -26.5 35 -39.5 47s-26.833 21.167 -41.5 27.5s-30.667 9.5 -48 9.5
c-34 0 -63.833 -8.5 -89.5 -25.5s-45.5 -41.5 -59.5 -73.5s-21 -70 -21 -114c0 -44.667 7.16699 -83 21.5 -115s34.333 -56.333 60 -73s55.834 -25 90.501 -25c32 0 59.667 8 83 24s44.666 39.333 63.999 70c2 3.33301 3.83301 5.16602 5.5 5.49902
s4.16699 -0.166992 7.5 -1.5l43 -16c4.66699 -2 6 -6.33301 4 -13c-10 -17.333 -21.667 -34 -35 -50s-28.833 -30 -46.5 -42s-37.5 -21.5 -59.5 -28.5s-46.333 -10.5 -73 -10.5c-49.333 0 -92.833 11.5 -130.5 34.5s-67.167 55 -88.5 96s-32 88.5 -32 142.5
c0 54.667 10.833 102.667 32.5 144s51.334 73.833 89.001 97.5s80.834 35.5 129.501 35.5v0zM305.998 687.001c-4.66699 5.33301 -8.00195 8.00098 -10.002 8.00098s-6.33301 -2.66699 -13 -8l-57 -50c-4 -2.66699 -7 -4.33398 -9 -5.00098s-5 -1 -9 -1h-54
c-4.66699 0 -7.16699 1.16699 -7.5 3.5s1.16699 5.16602 4.5 8.49902l103 91c3.33301 3.33301 6.83301 6 10.5 8s8.5 3 14.5 3h39c4.66699 0 8.33398 -1.16699 11.001 -3.5s5.33398 -4.5 8.00098 -6.5l102 -92c8.66699 -8 8 -12 -2 -12h-58c-4 0 -7.33301 0.333008 -10 1
s-5.66699 2.33398 -9 5.00098z" />
    <glyph glyph-name="Cdotaccent" unicode="&#x10a;" horiz-adv-x="707" 
d="M378 752c33.333 0 65.498 -5.5 96.498 -16.5s58.833 -25.833 83.5 -44.5s45 -40.334 61 -65.001s26 -51 30 -79c1.33301 -6 1.5 -10 0.5 -12s-3.5 -3 -7.5 -3l-75 -6c-3.33301 -0.666992 -5.66602 0 -6.99902 2s-2.33301 4.66699 -3 8
c-9.33301 42.667 -29.5 77.167 -60.5 103.5s-69.5 39.5 -115.5 39.5c-69.333 0 -122.666 -25.667 -159.999 -77s-56 -128.666 -56 -231.999c0 -100 18.333 -175.667 55 -227s92 -77 166 -77c47.333 0 86.833 11.333 118.5 34s57.167 59 76.5 109c2 4 6 5.33301 12 4l59 -14
c2 -0.666992 3.66699 -2 5 -4s1.33301 -5.33301 0 -10c-5.33301 -19.333 -13.5 -38.333 -24.5 -57s-24.5 -36.167 -40.5 -52.5s-34.667 -31 -56 -44s-44.833 -23.167 -70.5 -30.5s-53.5 -11 -83.5 -11c-66 0 -122.833 15.333 -170.5 46s-84 74.667 -109 132
s-37.5 125.333 -37.5 204s12.5 146.5 37.5 203.5s61 100.667 108 131s102.833 45.5 167.5 45.5v0zM422.998 853c0 -6 -1.16797 -10.167 -3.50098 -12.5s-7.16602 -3.5 -14.499 -3.5h-58c-6 0 -10 1 -12 3s-3 5.66699 -3 11v89c0 9.33301 3.66699 14 11 14h69
c7.33301 0 11 -4.33301 11 -13v-88z" />
    <glyph glyph-name="cdotaccent" unicode="&#x10b;" horiz-adv-x="542" 
d="M297 540c34.667 0 65.165 -5.49902 91.498 -16.499s49 -26 68 -45s34.833 -39.833 47.5 -62.5c4 -8 2.33301 -13 -5 -15l-55 -13c-4.66699 -2 -9 0 -13 6c-13.333 19.333 -26.5 35 -39.5 47s-26.833 21.167 -41.5 27.5s-30.667 9.5 -48 9.5
c-34 0 -63.833 -8.5 -89.5 -25.5s-45.5 -41.5 -59.5 -73.5s-21 -70 -21 -114c0 -44.667 7.16699 -83 21.5 -115s34.333 -56.333 60 -73s55.834 -25 90.501 -25c32 0 59.667 8 83 24s44.666 39.333 63.999 70c2 3.33301 3.83301 5.16602 5.5 5.49902
s4.16699 -0.166992 7.5 -1.5l43 -16c4.66699 -2 6 -6.33301 4 -13c-10 -17.333 -21.667 -34 -35 -50s-28.833 -30 -46.5 -42s-37.5 -21.5 -59.5 -28.5s-46.333 -10.5 -73 -10.5c-49.333 0 -92.833 11.5 -130.5 34.5s-67.167 55 -88.5 96s-32 88.5 -32 142.5
c0 54.667 10.833 102.667 32.5 144s51.334 73.833 89.001 97.5s80.834 35.5 129.501 35.5v0zM340.998 641.001c0 -6 -1.16797 -10.167 -3.50098 -12.5s-7.16602 -3.5 -14.499 -3.5h-58c-6 0 -10 1 -12 3s-3 5.66699 -3 11v89c0 9.33301 3.66699 14 11 14h69
c7.33301 0 11 -4.33301 11 -13v-88z" />
    <glyph glyph-name="Ccaron" unicode="&#x10c;" horiz-adv-x="707" 
d="M378 752c33.333 0 65.498 -5.5 96.498 -16.5s58.833 -25.833 83.5 -44.5s45 -40.334 61 -65.001s26 -51 30 -79c1.33301 -6 1.5 -10 0.5 -12s-3.5 -3 -7.5 -3l-75 -6c-3.33301 -0.666992 -5.66602 0 -6.99902 2s-2.33301 4.66699 -3 8
c-9.33301 42.667 -29.5 77.167 -60.5 103.5s-69.5 39.5 -115.5 39.5c-69.333 0 -122.666 -25.667 -159.999 -77s-56 -128.666 -56 -231.999c0 -100 18.333 -175.667 55 -227s92 -77 166 -77c47.333 0 86.833 11.333 118.5 34s57.167 59 76.5 109c2 4 6 5.33301 12 4l59 -14
c2 -0.666992 3.66699 -2 5 -4s1.33301 -5.33301 0 -10c-5.33301 -19.333 -13.5 -38.333 -24.5 -57s-24.5 -36.167 -40.5 -52.5s-34.667 -31 -56 -44s-44.833 -23.167 -70.5 -30.5s-53.5 -11 -83.5 -11c-66 0 -122.833 15.333 -170.5 46s-84 74.667 -109 132
s-37.5 125.333 -37.5 204s12.5 146.5 37.5 203.5s61 100.667 108 131s102.833 45.5 167.5 45.5v0zM441.998 947c3.33301 3.33301 6.33398 5.33496 9.00098 6.00195s6 1 10 1h58c10 0 10.667 -4 2 -12l-102 -93l-8 -6c-2.66699 -2 -6.33398 -3 -11.001 -3h-39
c-6 0 -10.833 1 -14.5 3s-7.16699 4.33301 -10.5 7l-103 92c-3.33301 3.33301 -4.83301 6.16602 -4.5 8.49902s2.83301 3.5 7.5 3.5h54c4 0 7 -0.166992 9 -0.5s5 -2.5 9 -6.5l57 -49c6 -6 10.167 -8.83301 12.5 -8.5s5.83301 3.16602 10.5 8.49902l54 49v0z" />
    <glyph glyph-name="ccaron" unicode="&#x10d;" horiz-adv-x="542" 
d="M297 540c34.667 0 65.165 -5.49902 91.498 -16.499s49 -26 68 -45s34.833 -39.833 47.5 -62.5c4 -8 2.33301 -13 -5 -15l-55 -13c-4.66699 -2 -9 0 -13 6c-13.333 19.333 -26.5 35 -39.5 47s-26.833 21.167 -41.5 27.5s-30.667 9.5 -48 9.5
c-34 0 -63.833 -8.5 -89.5 -25.5s-45.5 -41.5 -59.5 -73.5s-21 -70 -21 -114c0 -44.667 7.16699 -83 21.5 -115s34.333 -56.333 60 -73s55.834 -25 90.501 -25c32 0 59.667 8 83 24s44.666 39.333 63.999 70c2 3.33301 3.83301 5.16602 5.5 5.49902
s4.16699 -0.166992 7.5 -1.5l43 -16c4.66699 -2 6 -6.33301 4 -13c-10 -17.333 -21.667 -34 -35 -50s-28.833 -30 -46.5 -42s-37.5 -21.5 -59.5 -28.5s-46.333 -10.5 -73 -10.5c-49.333 0 -92.833 11.5 -130.5 34.5s-67.167 55 -88.5 96s-32 88.5 -32 142.5
c0 54.667 10.833 102.667 32.5 144s51.334 73.833 89.001 97.5s80.834 35.5 129.501 35.5v0zM359.998 735.001c3.33301 3.33301 6.33398 5.33496 9.00098 6.00195s6 1 10 1h58c10 0 10.667 -4 2 -12l-102 -93l-8 -6c-2.66699 -2 -6.33398 -3 -11.001 -3h-39
c-6 0 -10.833 1 -14.5 3s-7.16699 4.33301 -10.5 7l-103 92c-3.33301 3.33301 -4.83301 6.16602 -4.5 8.49902s2.83301 3.5 7.5 3.5h54c4 0 7 -0.166992 9 -0.5s5 -2.5 9 -6.5l57 -49c6 -6 10.167 -8.83301 12.5 -8.5s5.83301 3.16602 10.5 8.49902l54 49v0z" />
    <glyph glyph-name="Dcaron" unicode="&#x10e;" horiz-adv-x="722" 
d="M112 742h29.001c14.667 0 30.667 -0.166992 48 -0.5s33.333 -0.5 48 -0.5h31c92.667 -1.33301 167.5 -16 224.5 -44s98.667 -68.667 125 -122s39.5 -119.333 39.5 -198c0 -83.333 -14.333 -153 -43 -209s-72.667 -98 -132 -126s-134 -42 -224 -42h-147
c-9.33301 -0 -14 5.33301 -14 16v712c0 4.66699 1.16699 8.16699 3.5 10.5s6.16602 3.5 11.499 3.5v0zM203.001 669c-6.66699 0 -10 -4.66699 -10 -14v-572c0 -7.33301 4 -11 12 -11h38c74 0 134 9.83301 180 29.5s79.833 51.5 101.5 95.5s32.5 102.333 32.5 175
c0 76 -11.167 135.5 -33.5 178.5s-56.333 73.5 -102 91.5s-103.5 27 -173.5 27h-45v0zM408.001 947c3.33301 3.33301 6.33398 5.33496 9.00098 6.00195s6 1 10 1h58c10 0 10.667 -4 2 -12l-102 -93l-8 -6c-2.66699 -2 -6.33398 -3 -11.001 -3h-39c-6 0 -10.833 1 -14.5 3
s-7.16699 4.33301 -10.5 7l-103 92c-3.33301 3.33301 -4.83301 6.16602 -4.5 8.49902s2.83301 3.5 7.5 3.5h54c4 0 7 -0.166992 9 -0.5s5 -2.5 9 -6.5l57 -49c6 -6 10.167 -8.83301 12.5 -8.5s5.83301 3.16602 10.5 8.49902l54 49v0z" />
    <glyph glyph-name="dcaron" unicode="&#x10f;" horiz-adv-x="682" 
d="M454 0c-4.66699 0 -8.16602 1.16602 -10.499 3.49902s-3.5 5.83301 -3.5 10.5v42c0 5.33301 -1.16699 8.33301 -3.5 9s-5.5 -1 -9.5 -5c-7.33301 -6.66699 -17.833 -15.667 -31.5 -27s-30.834 -21.333 -51.501 -30s-45.334 -13 -74.001 -13c-42 0 -79.667 10 -113 30
s-59.833 49.833 -79.5 89.5s-29.5 88.834 -29.5 147.501c0 56.667 9.83301 106.167 29.5 148.5s47.334 75.333 83.001 99s76.167 35.5 121.5 35.5c32.667 0 60 -5.33301 82 -16s41.333 -23 58 -37c6 -4.66699 10.167 -6.5 12.5 -5.5s3.5 5.16699 3.5 12.5v235
c0 8.66699 3.66699 13 11 13h61c7.33301 0 11 -4.33301 11 -13v-713c0 -6 -1 -10.167 -3 -12.5s-6.33301 -3.5 -13 -3.5h-51v0zM437.001 412.999c-20.667 20.667 -41.668 36.666 -63.001 47.999s-45.333 17 -72 17c-32 0 -60.833 -8.16699 -86.5 -24.5
s-45.667 -40.833 -60 -73.5s-21.5 -72.667 -21.5 -120c0 -48.667 7.33301 -88.5 22 -119.5s34.334 -53.667 59.001 -68s51.667 -21.5 81 -21.5c27.333 0 51.5 6.33301 72.5 19s37.667 28.334 50 47.001s18.5 37 18.5 55v241v0zM590 546.998
c-2.66699 0 -4.66797 1.16602 -6.00098 3.49902s-1.66602 4.5 -0.999023 6.5l31 72c2.66699 6.66699 1.33398 10.667 -3.99902 12l-7 1c-7.33301 0.666992 -11 4.33398 -11 11.001v80c0 6 2.66699 9 8 9h58c4.66699 0 7 -2.66699 7 -8v-92
c0 -0.666992 -0.166992 -1.5 -0.5 -2.5s-0.5 -1.83301 -0.5 -2.5l-35 -80c-0.666992 -4 -2.33398 -6.66699 -5.00098 -8s-6.66699 -2 -12 -2h-22v0z" />
    <glyph glyph-name="Dcroat" unicode="&#x110;" horiz-adv-x="727" 
d="M367 352c0 -10.667 -6.33301 -15.999 -19 -15.999h-302c-5.33301 0 -9 1.16699 -11 3.5s-3 6.16602 -3 11.499v42c0 8.66699 3.33301 13 10 13h315c6.66699 0 10 -4 10 -12v-42zM117 742.001h29.502c14.333 0 30.166 -0.166992 47.499 -0.5s33.5 -0.5 48.5 -0.5h31.5
c92 -1.33301 166.5 -16 223.5 -44s98.833 -68.667 125.5 -122s40 -119.333 40 -198c0 -83.333 -14.5 -153 -43.5 -209s-73 -98 -132 -126s-133.833 -42 -224.5 -42h-146c-10 0 -15 5.33301 -15 16v712c0 4.66699 1.16699 8.16699 3.5 10.5s6.16602 3.5 11.499 3.5v0z
M208.002 669.001c-6.66699 0 -9.99902 -4.66699 -9.99902 -14v-572c0 -7.33301 4 -11 12 -11h38c74 0 134.167 9.83301 180.5 29.5s80.333 51.5 102 95.5s32.5 102.333 32.5 175c0 76 -11.167 135.5 -33.5 178.5s-56.333 73.5 -102 91.5s-103.834 27 -174.501 27h-45v0z" />
    <glyph glyph-name="dcroat" unicode="&#x111;" horiz-adv-x="609" 
d="M587 626c0 -8 -5 -12 -15 -12h-286c-4 0 -6.83301 1 -8.5 3s-2.5 5 -2.5 9v32c0 7.33301 2.66699 11 8 11h296c5.33301 0 8 -3 8 -9v-34zM454 0c-4.66699 0 -8.16602 1.16602 -10.499 3.49902s-3.5 5.83301 -3.5 10.5v42c0 5.33301 -1.16699 8.33301 -3.5 9
s-5.5 -1 -9.5 -5c-7.33301 -6.66699 -17.833 -15.667 -31.5 -27s-30.834 -21.333 -51.501 -30s-45.334 -13 -74.001 -13c-42 0 -79.667 10 -113 30s-59.833 49.833 -79.5 89.5s-29.5 88.834 -29.5 147.501c0 56.667 9.83301 106.167 29.5 148.5s47.334 75.333 83.001 99
s76.167 35.5 121.5 35.5c32.667 0 60 -5.33301 82 -16s41.333 -23 58 -37c6 -4.66699 10.167 -6.5 12.5 -5.5s3.5 5.16699 3.5 12.5v235c0 8.66699 3.66699 13 11 13h61c7.33301 0 11 -4.33301 11 -13v-713c0 -6 -1 -10.167 -3 -12.5s-6.33301 -3.5 -13 -3.5h-51v0z
M437.001 412.999c-20.667 20.667 -41.668 36.666 -63.001 47.999s-45.333 17 -72 17c-32 0 -60.833 -8.16699 -86.5 -24.5s-45.667 -40.833 -60 -73.5s-21.5 -72.667 -21.5 -120c0 -48.667 7.33301 -88.5 22 -119.5s34.334 -53.667 59.001 -68s51.667 -21.5 81 -21.5
c27.333 0 51.5 6.33301 72.5 19s37.667 28.334 50 47.001s18.5 37 18.5 55v241v0z" />
    <glyph glyph-name="Emacron" unicode="&#x112;" horiz-adv-x="628" 
d="M97 728c0 9.33301 4 14.001 12 14.001h449c6.66699 0 10 -3.66699 10 -11v-51c0 -8 -4.33301 -12 -13 -12h-349c-8.66699 0 -13 -4 -13 -12v-234c0 -7.33301 3.66699 -11 11 -11h259c7.33301 0 11 -3.66699 11 -11v-53c0 -2.66699 -0.666992 -4.83398 -2 -6.50098
s-4.33301 -2.5 -9 -2.5h-259c-7.33301 0 -11 -3.66699 -11 -11v-243c0 -6.66699 3.33301 -10 10 -10h367c7.33301 0 11 -3.33301 11 -10v-53c0 -3.33301 -0.833008 -6 -2.5 -8s-4.5 -3 -8.5 -3h-459c-9.33301 0 -14 4.66699 -14 14v714v0zM490 891.001
c0 -8.66699 -5 -13 -15 -13h-270c-4 0 -6.83301 1 -8.5 3s-2.5 5 -2.5 9v39c0 7.33301 2.66699 11 8 11h280c5.33301 0 8 -3.33301 8 -10v-39z" />
    <glyph glyph-name="emacron" unicode="&#x113;" horiz-adv-x="581" 
d="M133 232c0 -32.667 7.83594 -62.501 23.5029 -89.501s36.667 -48.5 63 -64.5s55.833 -24 88.5 -24c33.333 0 63 6.83301 89 20.5s48.333 34.5 67 62.5c2.66699 2.66699 4.83398 4.16699 6.50098 4.5s4.16699 -0.166992 7.5 -1.5l42 -21c6 -3.33301 6.66699 -8 2 -14
c-18 -26.667 -37.833 -48.5 -59.5 -65.5s-45.834 -29.5 -72.501 -37.5s-56.667 -12 -90 -12c-49.333 0 -93 11.333 -131 34s-68 54.334 -90 95.001s-33 87.667 -33 141c0 58 11.167 107.833 33.5 149.5s52.666 73.834 90.999 96.501s81.166 34 128.499 34
c48.667 0 91 -10.667 127 -32s64 -52.333 84 -93s30 -89.667 30 -147c0 -4.66699 -0.5 -9.33398 -1.5 -14.001s-5.5 -7 -13.5 -7h-383c-2.66699 0 -4.83398 -1.5 -6.50098 -4.5s-2.5 -6.5 -2.5 -10.5v0zM439.003 301.999c7.33301 0 12.001 0.833008 14.001 2.5s3 5.5 3 11.5
c0 28.667 -6.16699 55.5 -18.5 80.5s-30 45.167 -53 60.5s-50.833 23 -83.5 23c-36 0 -66.333 -8.5 -91 -25.5s-43.334 -39.167 -56.001 -66.5s-19 -56 -19 -86h304zM446.004 678.999c0 -8.66699 -5 -13 -15 -13h-270c-4 0 -6.83301 1 -8.5 3s-2.5 5 -2.5 9v39
c0 7.33301 2.66699 11 8 11h280c5.33301 0 8 -3.33301 8 -10v-39z" />
    <glyph glyph-name="Ebreve" unicode="&#x114;" horiz-adv-x="628" 
d="M97 728c0 9.33301 4 14.001 12 14.001h449c6.66699 0 10 -3.66699 10 -11v-51c0 -8 -4.33301 -12 -13 -12h-349c-8.66699 0 -13 -4 -13 -12v-234c0 -7.33301 3.66699 -11 11 -11h259c7.33301 0 11 -3.66699 11 -11v-53c0 -2.66699 -0.666992 -4.83398 -2 -6.50098
s-4.33301 -2.5 -9 -2.5h-259c-7.33301 0 -11 -3.66699 -11 -11v-243c0 -6.66699 3.33301 -10 10 -10h367c7.33301 0 11 -3.33301 11 -10v-53c0 -3.33301 -0.833008 -6 -2.5 -8s-4.5 -3 -8.5 -3h-459c-9.33301 0 -14 4.66699 -14 14v714v0zM481 954.001
c8.66699 0 11.666 -3.66797 8.99902 -11.001c-4.66699 -16 -13.667 -31.333 -27 -46s-30.166 -26.834 -50.499 -36.501s-44.166 -14.5 -71.499 -14.5c-26 0 -49.167 4.5 -69.5 13.5s-36.833 21 -49.5 36s-21.667 31.167 -27 48.5c-0.666992 2 -0.666992 4.16699 0 6.5
s2.66699 3.5 6 3.5h47c4 0 6.83301 -0.666992 8.5 -2s3.83398 -3.66602 6.50098 -6.99902c4 -5.33301 9.16699 -11.5 15.5 -18.5s14.666 -13 24.999 -18s22.833 -7.5 37.5 -7.5c21.333 0 38.666 4.83301 51.999 14.5s23 19.834 29 30.501c2 3.33301 4 5.5 6 6.5s4 1.5 6 1.5
h47v0z" />
    <glyph glyph-name="ebreve" unicode="&#x115;" horiz-adv-x="581" 
d="M133 232c0 -32.667 7.83594 -62.501 23.5029 -89.501s36.667 -48.5 63 -64.5s55.833 -24 88.5 -24c33.333 0 63 6.83301 89 20.5s48.333 34.5 67 62.5c2.66699 2.66699 4.83398 4.16699 6.50098 4.5s4.16699 -0.166992 7.5 -1.5l42 -21c6 -3.33301 6.66699 -8 2 -14
c-18 -26.667 -37.833 -48.5 -59.5 -65.5s-45.834 -29.5 -72.501 -37.5s-56.667 -12 -90 -12c-49.333 0 -93 11.333 -131 34s-68 54.334 -90 95.001s-33 87.667 -33 141c0 58 11.167 107.833 33.5 149.5s52.666 73.834 90.999 96.501s81.166 34 128.499 34
c48.667 0 91 -10.667 127 -32s64 -52.333 84 -93s30 -89.667 30 -147c0 -4.66699 -0.5 -9.33398 -1.5 -14.001s-5.5 -7 -13.5 -7h-383c-2.66699 0 -4.83398 -1.5 -6.50098 -4.5s-2.5 -6.5 -2.5 -10.5v0zM439.003 301.999c7.33301 0 12.001 0.833008 14.001 2.5s3 5.5 3 11.5
c0 28.667 -6.16699 55.5 -18.5 80.5s-30 45.167 -53 60.5s-50.833 23 -83.5 23c-36 0 -66.333 -8.5 -91 -25.5s-43.334 -39.167 -56.001 -66.5s-19 -56 -19 -86h304zM437.004 741.999c8.66699 0 11.666 -3.66797 8.99902 -11.001c-4.66699 -16 -13.667 -31.333 -27 -46
s-30.166 -26.834 -50.499 -36.501s-44.166 -14.5 -71.499 -14.5c-26 0 -49.167 4.5 -69.5 13.5s-36.833 21 -49.5 36s-21.667 31.167 -27 48.5c-0.666992 2 -0.666992 4.16699 0 6.5s2.66699 3.5 6 3.5h47c4 0 6.83301 -0.666992 8.5 -2s3.83398 -3.66602 6.50098 -6.99902
c4 -5.33301 9.16699 -11.5 15.5 -18.5s14.666 -13 24.999 -18s22.833 -7.5 37.5 -7.5c21.333 0 38.666 4.83301 51.999 14.5s23 19.834 29 30.501c2 3.33301 4 5.5 6 6.5s4 1.5 6 1.5h47v0z" />
    <glyph glyph-name="Edotaccent" unicode="&#x116;" horiz-adv-x="628" 
d="M97 728c0 9.33301 4 14.001 12 14.001h449c6.66699 0 10 -3.66699 10 -11v-51c0 -8 -4.33301 -12 -13 -12h-349c-8.66699 0 -13 -4 -13 -12v-234c0 -7.33301 3.66699 -11 11 -11h259c7.33301 0 11 -3.66699 11 -11v-53c0 -2.66699 -0.666992 -4.83398 -2 -6.50098
s-4.33301 -2.5 -9 -2.5h-259c-7.33301 0 -11 -3.66699 -11 -11v-243c0 -6.66699 3.33301 -10 10 -10h367c7.33301 0 11 -3.33301 11 -10v-53c0 -3.33301 -0.833008 -6 -2.5 -8s-4.5 -3 -8.5 -3h-459c-9.33301 0 -14 4.66699 -14 14v714v0zM388 853.001
c0 -6 -1.16797 -10.167 -3.50098 -12.5s-7.16602 -3.5 -14.499 -3.5h-58c-6 0 -10 1 -12 3s-3 5.66699 -3 11v89c0 9.33301 3.66699 14 11 14h69c7.33301 0 11 -4.33301 11 -13v-88z" />
    <glyph glyph-name="edotaccent" unicode="&#x117;" horiz-adv-x="581" 
d="M133 232c0 -32.667 7.83594 -62.501 23.5029 -89.501s36.667 -48.5 63 -64.5s55.833 -24 88.5 -24c33.333 0 63 6.83301 89 20.5s48.333 34.5 67 62.5c2.66699 2.66699 4.83398 4.16699 6.50098 4.5s4.16699 -0.166992 7.5 -1.5l42 -21c6 -3.33301 6.66699 -8 2 -14
c-18 -26.667 -37.833 -48.5 -59.5 -65.5s-45.834 -29.5 -72.501 -37.5s-56.667 -12 -90 -12c-49.333 0 -93 11.333 -131 34s-68 54.334 -90 95.001s-33 87.667 -33 141c0 58 11.167 107.833 33.5 149.5s52.666 73.834 90.999 96.501s81.166 34 128.499 34
c48.667 0 91 -10.667 127 -32s64 -52.333 84 -93s30 -89.667 30 -147c0 -4.66699 -0.5 -9.33398 -1.5 -14.001s-5.5 -7 -13.5 -7h-383c-2.66699 0 -4.83398 -1.5 -6.50098 -4.5s-2.5 -6.5 -2.5 -10.5v0zM439.003 301.999c7.33301 0 12.001 0.833008 14.001 2.5s3 5.5 3 11.5
c0 28.667 -6.16699 55.5 -18.5 80.5s-30 45.167 -53 60.5s-50.833 23 -83.5 23c-36 0 -66.333 -8.5 -91 -25.5s-43.334 -39.167 -56.001 -66.5s-19 -56 -19 -86h304zM353.004 640.999c0 -6 -1.16797 -10.167 -3.50098 -12.5s-7.16602 -3.5 -14.499 -3.5h-58
c-6 0 -10 1 -12 3s-3 5.66699 -3 11v89c0 9.33301 3.66699 14 11 14h69c7.33301 0 11 -4.33301 11 -13v-88z" />
    <glyph glyph-name="Eogonek" unicode="&#x118;" horiz-adv-x="628" 
d="M97 728c0 9.33301 4 14.001 12 14.001h449c6.66699 0 10 -3.66699 10 -11v-51c0 -8 -4.33301 -12 -13 -12h-349c-8.66699 0 -13 -4 -13 -12v-234c0 -7.33301 3.66699 -11 11 -11h259c7.33301 0 11 -3.66699 11 -11v-53c0 -2.66699 -0.666992 -4.83398 -2 -6.50098
s-4.33301 -2.5 -9 -2.5h-259c-7.33301 0 -11 -3.66699 -11 -11v-243c0 -6.66699 3.33301 -10 10 -10h367c7.33301 0 11 -3.33301 11 -10v-53c0 -3.33301 -0.833008 -6 -2.5 -8s-4.5 -3 -8.5 -3h-459c-9.33301 0 -14 4.66699 -14 14v714v0zM407 -89.999
c0 20.667 7.50098 39.1689 22.501 55.502s42.833 30.833 83.5 43.5l63 -7c-34.667 -14.667 -59.834 -28.334 -75.501 -41.001s-23.5 -27.667 -23.5 -45c0 -12.667 3.83301 -22.167 11.5 -28.5s20.5 -9.5 38.5 -9.5c14 0 26.5 1.5 37.5 4.5s19.167 5.83301 24.5 8.5
c7.33301 3.33301 11 1.66602 11 -5.00098v-29c0 -4.66699 -2 -8.33398 -6 -11.001c-8 -4 -20 -7.83301 -36 -11.5s-33 -5.5 -51 -5.5c-33.333 0 -58.333 7.33301 -75 22s-25 34.334 -25 59.001v0z" />
    <glyph glyph-name="eogonek" unicode="&#x119;" horiz-adv-x="581" 
d="M133 232c0 -32.667 7.83594 -62.501 23.5029 -89.501s36.667 -48.5 63 -64.5s55.833 -24 88.5 -24c33.333 0 63 6.83301 89 20.5s48.333 34.5 67 62.5c2.66699 2.66699 4.83398 4.16699 6.50098 4.5s4.16699 -0.166992 7.5 -1.5l42 -21c6 -3.33301 6.66699 -8 2 -14
c-18 -26.667 -37.833 -48.5 -59.5 -65.5s-45.834 -29.5 -72.501 -37.5s-56.667 -12 -90 -12c-49.333 0 -93 11.333 -131 34s-68 54.334 -90 95.001s-33 87.667 -33 141c0 58 11.167 107.833 33.5 149.5s52.666 73.834 90.999 96.501s81.166 34 128.499 34
c48.667 0 91 -10.667 127 -32s64 -52.333 84 -93s30 -89.667 30 -147c0 -4.66699 -0.5 -9.33398 -1.5 -14.001s-5.5 -7 -13.5 -7h-383c-2.66699 0 -4.83398 -1.5 -6.50098 -4.5s-2.5 -6.5 -2.5 -10.5v0zM439.003 301.999c7.33301 0 12.001 0.833008 14.001 2.5s3 5.5 3 11.5
c0 28.667 -6.16699 55.5 -18.5 80.5s-30 45.167 -53 60.5s-50.833 23 -83.5 23c-36 0 -66.333 -8.5 -91 -25.5s-43.334 -39.167 -56.001 -66.5s-19 -56 -19 -86h304zM245.004 -80.001c0 20.667 7.50098 39.1689 22.501 55.502s42.833 30.833 83.5 43.5l63 -7
c-34.667 -14.667 -59.834 -28.334 -75.501 -41.001s-23.5 -27.667 -23.5 -45c0 -12.667 3.83301 -22.167 11.5 -28.5s20.5 -9.5 38.5 -9.5c14 0 26.5 1.5 37.5 4.5s19.167 5.83301 24.5 8.5c7.33301 3.33301 11 1.66602 11 -5.00098v-29c0 -4.66699 -2 -8.33398 -6 -11.001
c-8 -4 -20 -7.83301 -36 -11.5s-33 -5.5 -51 -5.5c-33.333 0 -58.333 7.33301 -75 22s-25 34.334 -25 59.001v0z" />
    <glyph glyph-name="Ecaron" unicode="&#x11a;" horiz-adv-x="628" 
d="M97 728c0 9.33301 4 14.001 12 14.001h449c6.66699 0 10 -3.66699 10 -11v-51c0 -8 -4.33301 -12 -13 -12h-349c-8.66699 0 -13 -4 -13 -12v-234c0 -7.33301 3.66699 -11 11 -11h259c7.33301 0 11 -3.66699 11 -11v-53c0 -2.66699 -0.666992 -4.83398 -2 -6.50098
s-4.33301 -2.5 -9 -2.5h-259c-7.33301 0 -11 -3.66699 -11 -11v-243c0 -6.66699 3.33301 -10 10 -10h367c7.33301 0 11 -3.33301 11 -10v-53c0 -3.33301 -0.833008 -6 -2.5 -8s-4.5 -3 -8.5 -3h-459c-9.33301 0 -14 4.66699 -14 14v714v0zM407 947.001
c3.33301 3.33301 6.33398 5.33496 9.00098 6.00195s6 1 10 1h58c10 0 10.667 -4 2 -12l-102 -93l-8 -6c-2.66699 -2 -6.33398 -3 -11.001 -3h-39c-6 0 -10.833 1 -14.5 3s-7.16699 4.33301 -10.5 7l-103 92c-3.33301 3.33301 -4.83301 6.16602 -4.5 8.49902
s2.83301 3.5 7.5 3.5h54c4 0 7 -0.166992 9 -0.5s5 -2.5 9 -6.5l57 -49c6 -6 10.167 -8.83301 12.5 -8.5s5.83301 3.16602 10.5 8.49902l54 49v0z" />
    <glyph glyph-name="ecaron" unicode="&#x11b;" horiz-adv-x="581" 
d="M133 232c0 -32.667 7.83594 -62.501 23.5029 -89.501s36.667 -48.5 63 -64.5s55.833 -24 88.5 -24c33.333 0 63 6.83301 89 20.5s48.333 34.5 67 62.5c2.66699 2.66699 4.83398 4.16699 6.50098 4.5s4.16699 -0.166992 7.5 -1.5l42 -21c6 -3.33301 6.66699 -8 2 -14
c-18 -26.667 -37.833 -48.5 -59.5 -65.5s-45.834 -29.5 -72.501 -37.5s-56.667 -12 -90 -12c-49.333 0 -93 11.333 -131 34s-68 54.334 -90 95.001s-33 87.667 -33 141c0 58 11.167 107.833 33.5 149.5s52.666 73.834 90.999 96.501s81.166 34 128.499 34
c48.667 0 91 -10.667 127 -32s64 -52.333 84 -93s30 -89.667 30 -147c0 -4.66699 -0.5 -9.33398 -1.5 -14.001s-5.5 -7 -13.5 -7h-383c-2.66699 0 -4.83398 -1.5 -6.50098 -4.5s-2.5 -6.5 -2.5 -10.5v0zM439.003 301.999c7.33301 0 12.001 0.833008 14.001 2.5s3 5.5 3 11.5
c0 28.667 -6.16699 55.5 -18.5 80.5s-30 45.167 -53 60.5s-50.833 23 -83.5 23c-36 0 -66.333 -8.5 -91 -25.5s-43.334 -39.167 -56.001 -66.5s-19 -56 -19 -86h304zM362.004 734.999c3.33301 3.33301 6.33398 5.33496 9.00098 6.00195s6 1 10 1h58c10 0 10.667 -4 2 -12
l-102 -93l-8 -6c-2.66699 -2 -6.33398 -3 -11.001 -3h-39c-6 0 -10.833 1 -14.5 3s-7.16699 4.33301 -10.5 7l-103 92c-3.33301 3.33301 -4.83301 6.16602 -4.5 8.49902s2.83301 3.5 7.5 3.5h54c4 0 7 -0.166992 9 -0.5s5 -2.5 9 -6.5l57 -49
c6 -6 10.167 -8.83301 12.5 -8.5s5.83301 3.16602 10.5 8.49902l54 49v0z" />
    <glyph glyph-name="Gcircumflex" unicode="&#x11c;" horiz-adv-x="739" 
d="M375 -10c-64 0 -119.329 15.1699 -165.996 45.5029s-82.334 73.666 -107.001 129.999s-37 123.833 -37 202.5c0 80.667 13 149.667 39 207s62.667 101.166 110 131.499s102.333 45.5 165 45.5c46.667 0 89.5 -9.33301 128.5 -28s71.333 -43.334 97 -74.001
s41.167 -63.334 46.5 -98.001c0.666992 -5.33301 0.5 -9 -0.5 -11s-3.5 -3.66699 -7.5 -5l-72 -11c-3.33301 -0.666992 -5.83301 -0.166992 -7.5 1.5s-2.83398 4.5 -3.50098 8.5c-4.66699 26.667 -15.334 50.834 -32.001 72.501s-37.834 39 -63.501 52
s-54.5 19.5 -86.5 19.5c-45.333 0 -84 -11.5 -116 -34.5s-56.167 -57.333 -72.5 -103s-24.5 -101.5 -24.5 -167.5c0 -69.333 8.16699 -127.166 24.5 -173.499s40.666 -80.833 72.999 -103.5s71.5 -34 117.5 -34c32.667 0 61 5.5 85 16.5s44 25.667 60 44s28.333 38 37 59
s13.334 41.5 14.001 61.5l1 60c1.33301 6.66699 -2 10 -10 10h-163c-4 0 -6.83301 0.833008 -8.5 2.5s-2.5 4.5 -2.5 8.5v43c0 6 3.33301 9 10 9l248 -1c4.66699 0 8.33398 -1 11.001 -3s4 -5 4 -9v-351c0 -4.66699 -1 -8 -3 -10s-5 -3 -9 -3h-23
c-4.66699 0 -8.5 0.666992 -11.5 2s-5.16699 4.66602 -6.5 9.99902l-11 93c-0.666992 2.66699 -1.83398 4 -3.50098 4s-3.5 -1.66699 -5.5 -5c-12.667 -20 -28.667 -38.667 -48 -56s-43 -31.333 -71 -42s-61 -16 -99 -16v0zM386.004 899.003
c-4.66699 5.33301 -8.00195 8.00098 -10.002 8.00098s-6.33301 -2.66699 -13 -8l-57 -50c-4 -2.66699 -7 -4.33398 -9 -5.00098s-5 -1 -9 -1h-54c-4.66699 0 -7.16699 1.16699 -7.5 3.5s1.16699 5.16602 4.5 8.49902l103 91c3.33301 3.33301 6.83301 6 10.5 8s8.5 3 14.5 3
h39c4.66699 0 8.33398 -1.16699 11.001 -3.5s5.33398 -4.5 8.00098 -6.5l102 -92c8.66699 -8 8 -12 -2 -12h-58c-4 0 -7.33301 0.333008 -10 1s-5.66699 2.33398 -9 5.00098z" />
    <glyph glyph-name="gcircumflex" unicode="&#x11d;" horiz-adv-x="602" 
d="M556 539c6.66699 0 11.498 -1.33691 14.498 -4.00391s4.5 -6.66699 4.5 -12v-35c0 -6 -1.5 -10.667 -4.5 -14s-8.16699 -4.66602 -15.5 -3.99902c-10.667 0 -20 -0.666992 -28 -2s-16 -3.66602 -24 -6.99902c-16 -6 -22.667 -13.667 -20 -23
c3.33301 -7.33301 7 -16.166 11 -26.499s6 -24.166 6 -41.499c0 -29.333 -7.66699 -56.166 -23 -80.499s-39.166 -43.833 -71.499 -58.5s-73.166 -22 -122.499 -22c-34 0 -60.667 -2 -80 -6s-33 -9.33301 -41 -16s-12 -13.667 -12 -21
c0 -10.667 7.16699 -18.334 21.5 -23.001s37.5 -8 69.5 -10l129 -7c58.667 -3.33301 101.667 -17.333 129 -42s41 -57 41 -97c0 -50 -22.167 -89.5 -66.5 -118.5s-107.5 -43.5 -189.5 -43.5c-84.667 0 -149.167 12.167 -193.5 36.5s-66.5 59.166 -66.5 104.499
c0 23.333 8.16699 44.333 24.5 63s39.5 35.334 69.5 50.001c7.33301 3.33301 7.33301 7 0 11c-14.667 6.66699 -26 14.834 -34 24.501s-12 21.167 -12 34.5c0 9.33301 3 18.666 9 27.999s14.833 18 26.5 26s25.834 15 42.501 21c4 1.33301 6 3 6 5s-1.66699 4.33301 -5 7
c-29.333 14.667 -51 33 -65 55s-21 48.333 -21 79c0 52 19.667 93 59 123s95 45 167 45c34.667 0 64.167 -4 88.5 -12s44.833 -19 61.5 -33c4 -3.33301 7.66699 -5 11 -5s6.66602 1.66699 9.99902 5c8 7.33301 17 14.5 27 21.5s20.833 12.833 32.5 17.5s23.167 7 34.5 7v0z
M282.998 261.996c46.667 0 81.334 9.5 104.001 28.5s34 45.833 34 80.5c0 35.333 -11.333 63.166 -34 83.499s-57.334 30.5 -104.001 30.5c-44.667 0 -79.167 -10.167 -103.5 -30.5s-36.5 -48.166 -36.5 -83.499c0 -34.667 12.167 -61.5 36.5 -80.5
s58.833 -28.5 103.5 -28.5v0zM194.998 64.9961c-12 0.666992 -25.333 -2.83301 -40 -10.5s-27.667 -18.167 -39 -31.5s-17 -29 -17 -47c0 -20.667 7.16699 -38.5 21.5 -53.5s36 -26.333 65 -34s64.833 -11.5 107.5 -11.5c55.333 0 97.333 8.16699 126 24.5s43 41.5 43 75.5
c0 22 -7.5 40 -22.5 54s-40.833 22 -77.5 24zM299.998 686.996c-4.66699 5.33301 -8.00195 8.00098 -10.002 8.00098s-6.33301 -2.66699 -13 -8l-57 -50c-4 -2.66699 -7 -4.33398 -9 -5.00098s-5 -1 -9 -1h-54c-4.66699 0 -7.16699 1.16699 -7.5 3.5
s1.16699 5.16602 4.5 8.49902l103 91c3.33301 3.33301 6.83301 6 10.5 8s8.5 3 14.5 3h39c4.66699 0 8.33398 -1.16699 11.001 -3.5s5.33398 -4.5 8.00098 -6.5l102 -92c8.66699 -8 8 -12 -2 -12h-58c-4 0 -7.33301 0.333008 -10 1s-5.66699 2.33398 -9 5.00098z" />
    <glyph glyph-name="Gbreve" unicode="&#x11e;" horiz-adv-x="739" 
d="M375 -10c-64 0 -119.329 15.1699 -165.996 45.5029s-82.334 73.666 -107.001 129.999s-37 123.833 -37 202.5c0 80.667 13 149.667 39 207s62.667 101.166 110 131.499s102.333 45.5 165 45.5c46.667 0 89.5 -9.33301 128.5 -28s71.333 -43.334 97 -74.001
s41.167 -63.334 46.5 -98.001c0.666992 -5.33301 0.5 -9 -0.5 -11s-3.5 -3.66699 -7.5 -5l-72 -11c-3.33301 -0.666992 -5.83301 -0.166992 -7.5 1.5s-2.83398 4.5 -3.50098 8.5c-4.66699 26.667 -15.334 50.834 -32.001 72.501s-37.834 39 -63.501 52
s-54.5 19.5 -86.5 19.5c-45.333 0 -84 -11.5 -116 -34.5s-56.167 -57.333 -72.5 -103s-24.5 -101.5 -24.5 -167.5c0 -69.333 8.16699 -127.166 24.5 -173.499s40.666 -80.833 72.999 -103.5s71.5 -34 117.5 -34c32.667 0 61 5.5 85 16.5s44 25.667 60 44s28.333 38 37 59
s13.334 41.5 14.001 61.5l1 60c1.33301 6.66699 -2 10 -10 10h-163c-4 0 -6.83301 0.833008 -8.5 2.5s-2.5 4.5 -2.5 8.5v43c0 6 3.33301 9 10 9l248 -1c4.66699 0 8.33398 -1 11.001 -3s4 -5 4 -9v-351c0 -4.66699 -1 -8 -3 -10s-5 -3 -9 -3h-23
c-4.66699 0 -8.5 0.666992 -11.5 2s-5.16699 4.66602 -6.5 9.99902l-11 93c-0.666992 2.66699 -1.83398 4 -3.50098 4s-3.5 -1.66699 -5.5 -5c-12.667 -20 -28.667 -38.667 -48 -56s-43 -31.333 -71 -42s-61 -16 -99 -16v0zM515.004 954.003
c8.66699 0 11.666 -3.66797 8.99902 -11.001c-4.66699 -16 -13.667 -31.333 -27 -46s-30.166 -26.834 -50.499 -36.501s-44.166 -14.5 -71.499 -14.5c-26 0 -49.167 4.5 -69.5 13.5s-36.833 21 -49.5 36s-21.667 31.167 -27 48.5c-0.666992 2 -0.666992 4.16699 0 6.5
s2.66699 3.5 6 3.5h47c4 0 6.83301 -0.666992 8.5 -2s3.83398 -3.66602 6.50098 -6.99902c4 -5.33301 9.16699 -11.5 15.5 -18.5s14.666 -13 24.999 -18s22.833 -7.5 37.5 -7.5c21.333 0 38.666 4.83301 51.999 14.5s23 19.834 29 30.501c2 3.33301 4 5.5 6 6.5s4 1.5 6 1.5
h47v0z" />
    </font>
</defs>
</svg>
